<ttFont>
    <TTGlyph name="a.tam" xMin="24" yMin="-9" xMax="873" yMax="518">
      <contour>
        <pt x="401" y="518" on="1"/>
        <pt x="457" y="518" on="0"/>
        <pt x="555" y="477" on="0"/>
        <pt x="628" y="408" on="0"/>
        <pt x="672" y="319" on="0"/>
        <pt x="675" y="272" on="1"/>
        <pt x="771" y="272" on="1"/>
        <pt x="771" y="511" on="1"/>
        <pt x="873" y="511" on="1"/>
        <pt x="873" y="0" on="1"/>
        <pt x="771" y="0" on="1"/>
        <pt x="771" y="207" on="1"/>
        <pt x="672" y="207" on="1"/>
        <pt x="664" y="159" on="0"/>
        <pt x="619" y="79" on="0"/>
        <pt x="542" y="22" on="0"/>
        <pt x="433" y="-9" on="0"/>
        <pt x="362" y="-9" on="1"/>
        <pt x="283" y="-9" on="0"/>
        <pt x="158" y="27" on="0"/>
        <pt x="71" y="84" on="0"/>
        <pt x="24" y="153" on="0"/>
        <pt x="24" y="185" on="1"/>
        <pt x="24" y="229" on="0"/>
        <pt x="85" y="272" on="0"/>
        <pt x="136" y="272" on="1"/>
        <pt x="211" y="272" on="1"/>
        <pt x="179" y="304" on="0"/>
        <pt x="179" y="351" on="1"/>
        <pt x="179" y="388" on="0"/>
        <pt x="215" y="449" on="0"/>
        <pt x="276" y="493" on="0"/>
        <pt x="357" y="518" on="0"/>
      </contour>
      <contour>
        <pt x="362" y="77" on="1"/>
        <pt x="454" y="77" on="0"/>
        <pt x="570" y="145" on="0"/>
        <pt x="587" y="207" on="1"/>
        <pt x="179" y="207" on="1"/>
        <pt x="156" y="207" on="0"/>
        <pt x="129" y="189" on="0"/>
        <pt x="129" y="169" on="1"/>
        <pt x="129" y="152" on="0"/>
        <pt x="155" y="119" on="0"/>
        <pt x="210" y="93" on="0"/>
        <pt x="299" y="77" on="0"/>
      </contour>
      <contour>
        <pt x="404" y="366" on="1"/>
        <pt x="404" y="382" on="0"/>
        <pt x="399" y="413" on="0"/>
        <pt x="392" y="430" on="1"/>
        <pt x="338" y="425" on="0"/>
        <pt x="268" y="375" on="0"/>
        <pt x="268" y="335" on="1"/>
        <pt x="268" y="307" on="0"/>
        <pt x="303" y="272" on="0"/>
        <pt x="329" y="272" on="1"/>
        <pt x="332" y="272" on="1"/>
        <pt x="367" y="274" on="0"/>
        <pt x="404" y="327" on="0"/>
      </contour>
      <contour>
        <pt x="466" y="351" on="1"/>
        <pt x="466" y="327" on="0"/>
        <pt x="453" y="286" on="0"/>
        <pt x="442" y="272" on="1"/>
        <pt x="593" y="272" on="1"/>
        <pt x="591" y="302" on="0"/>
        <pt x="566" y="354" on="0"/>
        <pt x="527" y="394" on="0"/>
        <pt x="476" y="422" on="0"/>
        <pt x="447" y="428" on="1"/>
        <pt x="455" y="411" on="0"/>
        <pt x="466" y="372" on="0"/>
      </contour>
    </TTGlyph>
    <TTGlyph name="aa.tam" xMin="24" yMin="-181" xMax="1175" yMax="518">
      <contour>
        <pt x="401" y="518" on="1"/>
        <pt x="457" y="518" on="0"/>
        <pt x="555" y="477" on="0"/>
        <pt x="628" y="408" on="0"/>
        <pt x="672" y="319" on="0"/>
        <pt x="675" y="272" on="1"/>
        <pt x="771" y="272" on="1"/>
        <pt x="771" y="511" on="1"/>
        <pt x="873" y="511" on="1"/>
        <pt x="873" y="220" on="1"/>
        <pt x="893" y="264" on="0"/>
        <pt x="959" y="305" on="0"/>
        <pt x="1004" y="305" on="1"/>
        <pt x="1042" y="305" on="0"/>
        <pt x="1105" y="275" on="0"/>
        <pt x="1150" y="221" on="0"/>
        <pt x="1175" y="148" on="0"/>
        <pt x="1175" y="106" on="1"/>
        <pt x="1175" y="40" on="0"/>
        <pt x="1120" y="-66" on="0"/>
        <pt x="1021" y="-141" on="0"/>
        <pt x="886" y="-181" on="0"/>
        <pt x="806" y="-181" on="1"/>
        <pt x="758" y="-181" on="0"/>
        <pt x="652" y="-162" on="0"/>
        <pt x="603" y="-143" on="1"/>
        <pt x="603" y="-37" on="1"/>
        <pt x="656" y="-63" on="0"/>
        <pt x="761" y="-87" on="0"/>
        <pt x="806" y="-87" on="1"/>
        <pt x="864" y="-87" on="0"/>
        <pt x="960" y="-59" on="0"/>
        <pt x="1029" y="-9" on="0"/>
        <pt x="1067" y="62" on="0"/>
        <pt x="1067" y="106" on="1"/>
        <pt x="1067" y="160" on="0"/>
        <pt x="1014" y="215" on="0"/>
        <pt x="980" y="215" on="1"/>
        <pt x="934" y="215" on="0"/>
        <pt x="873" y="129" on="0"/>
        <pt x="873" y="57" on="1"/>
        <pt x="873" y="0" on="1"/>
        <pt x="771" y="0" on="1"/>
        <pt x="771" y="207" on="1"/>
        <pt x="672" y="207" on="1"/>
        <pt x="664" y="159" on="0"/>
        <pt x="619" y="79" on="0"/>
        <pt x="542" y="22" on="0"/>
        <pt x="433" y="-9" on="0"/>
        <pt x="362" y="-9" on="1"/>
        <pt x="283" y="-9" on="0"/>
        <pt x="158" y="27" on="0"/>
        <pt x="71" y="84" on="0"/>
        <pt x="24" y="153" on="0"/>
        <pt x="24" y="185" on="1"/>
        <pt x="24" y="229" on="0"/>
        <pt x="85" y="272" on="0"/>
        <pt x="136" y="272" on="1"/>
        <pt x="211" y="272" on="1"/>
        <pt x="179" y="304" on="0"/>
        <pt x="179" y="351" on="1"/>
        <pt x="179" y="388" on="0"/>
        <pt x="215" y="449" on="0"/>
        <pt x="276" y="493" on="0"/>
        <pt x="357" y="518" on="0"/>
      </contour>
      <contour>
        <pt x="362" y="77" on="1"/>
        <pt x="454" y="77" on="0"/>
        <pt x="570" y="145" on="0"/>
        <pt x="587" y="207" on="1"/>
        <pt x="179" y="207" on="1"/>
        <pt x="156" y="207" on="0"/>
        <pt x="129" y="189" on="0"/>
        <pt x="129" y="169" on="1"/>
        <pt x="129" y="152" on="0"/>
        <pt x="155" y="119" on="0"/>
        <pt x="210" y="93" on="0"/>
        <pt x="299" y="77" on="0"/>
      </contour>
      <contour>
        <pt x="404" y="366" on="1"/>
        <pt x="404" y="382" on="0"/>
        <pt x="399" y="413" on="0"/>
        <pt x="392" y="430" on="1"/>
        <pt x="338" y="425" on="0"/>
        <pt x="268" y="375" on="0"/>
        <pt x="268" y="335" on="1"/>
        <pt x="268" y="309" on="0"/>
        <pt x="300" y="274" on="0"/>
        <pt x="324" y="272" on="1"/>
        <pt x="329" y="272" on="1"/>
        <pt x="365" y="272" on="0"/>
        <pt x="404" y="326" on="0"/>
      </contour>
      <contour>
        <pt x="466" y="351" on="1"/>
        <pt x="466" y="327" on="0"/>
        <pt x="453" y="286" on="0"/>
        <pt x="442" y="272" on="1"/>
        <pt x="593" y="272" on="1"/>
        <pt x="591" y="302" on="0"/>
        <pt x="566" y="354" on="0"/>
        <pt x="527" y="394" on="0"/>
        <pt x="476" y="422" on="0"/>
        <pt x="447" y="428" on="1"/>
        <pt x="455" y="411" on="0"/>
        <pt x="466" y="371" on="0"/>
      </contour>
    </TTGlyph>
    <TTGlyph name="aamatra.tam" xMin="97" yMin="0" xMax="589" yMax="509">
      <contour>
        <pt x="589" y="509" on="1"/>
        <pt x="589" y="416" on="1"/>
        <pt x="480" y="416" on="1"/>
        <pt x="480" y="0" on="1"/>
        <pt x="378" y="0" on="1"/>
        <pt x="378" y="416" on="1"/>
        <pt x="200" y="416" on="1"/>
        <pt x="200" y="0" on="1"/>
        <pt x="97" y="0" on="1"/>
        <pt x="97" y="509" on="1"/>
      </contour>
    </TTGlyph>
    <TTGlyph name="ai.tam" xMin="63" yMin="-258" xMax="822" yMax="518">
      <contour>
        <pt x="632" y="518" on="1"/>
        <pt x="671" y="518" on="0"/>
        <pt x="740" y="487" on="0"/>
        <pt x="792" y="431" on="0"/>
        <pt x="822" y="355" on="0"/>
        <pt x="822" y="309" on="1"/>
        <pt x="822" y="240" on="0"/>
        <pt x="766" y="134" on="0"/>
        <pt x="670" y="63" on="0"/>
        <pt x="539" y="27" on="0"/>
        <pt x="464" y="27" on="1"/>
        <pt x="271" y="27" on="1"/>
        <pt x="223" y="27" on="0"/>
        <pt x="171" y="-17" on="0"/>
        <pt x="171" y="-56" on="1"/>
        <pt x="171" y="-102" on="0"/>
        <pt x="239" y="-160" on="0"/>
        <pt x="300" y="-160" on="1"/>
        <pt x="359" y="-160" on="0"/>
        <pt x="422" y="-106" on="0"/>
        <pt x="422" y="-47" on="1"/>
        <pt x="524" y="-47" on="1"/>
        <pt x="524" y="-106" on="0"/>
        <pt x="580" y="-160" on="0"/>
        <pt x="625" y="-160" on="1"/>
        <pt x="663" y="-160" on="0"/>
        <pt x="713" y="-113" on="0"/>
        <pt x="713" y="-71" on="1"/>
        <pt x="713" y="-49" on="0"/>
        <pt x="701" y="-10" on="0"/>
        <pt x="690" y="10" on="1"/>
        <pt x="780" y="49" on="1"/>
        <pt x="800" y="17" on="0"/>
        <pt x="822" y="-50" on="0"/>
        <pt x="822" y="-85" on="1"/>
        <pt x="822" y="-124" on="0"/>
        <pt x="796" y="-188" on="0"/>
        <pt x="749" y="-233" on="0"/>
        <pt x="683" y="-258" on="0"/>
        <pt x="643" y="-258" on="1"/>
        <pt x="595" y="-258" on="0"/>
        <pt x="520" y="-212" on="0"/>
        <pt x="500" y="-161" on="1"/>
        <pt x="442" y="-258" on="0"/>
        <pt x="300" y="-258" on="1"/>
        <pt x="248" y="-258" on="0"/>
        <pt x="161" y="-226" on="0"/>
        <pt x="98" y="-169" on="0"/>
        <pt x="63" y="-92" on="0"/>
        <pt x="63" y="-47" on="1"/>
        <pt x="63" y="33" on="0"/>
        <pt x="168" y="120" on="0"/>
        <pt x="268" y="120" on="1"/>
        <pt x="455" y="120" on="1"/>
        <pt x="579" y="120" on="0"/>
        <pt x="713" y="220" on="0"/>
        <pt x="713" y="315" on="1"/>
        <pt x="713" y="371" on="0"/>
        <pt x="667" y="428" on="0"/>
        <pt x="631" y="428" on="1"/>
        <pt x="590" y="428" on="0"/>
        <pt x="538" y="359" on="0"/>
        <pt x="538" y="290" on="1"/>
        <pt x="538" y="208" on="1"/>
        <pt x="436" y="208" on="1"/>
        <pt x="436" y="273" on="1"/>
        <pt x="434" y="327" on="0"/>
        <pt x="386" y="406" on="0"/>
        <pt x="341" y="417" on="1"/>
        <pt x="328" y="425" on="0"/>
        <pt x="296" y="430" on="0"/>
        <pt x="282" y="431" on="1"/>
        <pt x="317" y="406" on="0"/>
        <pt x="357" y="332" on="0"/>
        <pt x="357" y="295" on="1"/>
        <pt x="357" y="247" on="0"/>
        <pt x="291" y="179" on="0"/>
        <pt x="224" y="179" on="1"/>
        <pt x="192" y="179" on="0"/>
        <pt x="134" y="199" on="0"/>
        <pt x="89" y="237" on="0"/>
        <pt x="63" y="294" on="0"/>
        <pt x="63" y="332" on="1"/>
        <pt x="63" y="373" on="0"/>
        <pt x="99" y="442" on="0"/>
        <pt x="158" y="491" on="0"/>
        <pt x="233" y="518" on="0"/>
        <pt x="272" y="518" on="1"/>
        <pt x="331" y="518" on="0"/>
        <pt x="428" y="461" on="0"/>
        <pt x="456" y="402" on="1"/>
        <pt x="480" y="459" on="0"/>
        <pt x="572" y="518" on="0"/>
      </contour>
      <contour>
        <pt x="290" y="327" on="1"/>
        <pt x="290" y="354" on="0"/>
        <pt x="263" y="404" on="0"/>
        <pt x="237" y="421" on="1"/>
        <pt x="202" y="407" on="0"/>
        <pt x="163" y="356" on="0"/>
        <pt x="163" y="321" on="1"/>
        <pt x="163" y="289" on="0"/>
        <pt x="198" y="256" on="0"/>
        <pt x="224" y="256" on="1"/>
        <pt x="256" y="256" on="0"/>
        <pt x="290" y="297" on="0"/>
      </contour>
    </TTGlyph>
    <TTGlyph name="aimatra.tam" xMin="52" yMin="-9" xMax="1137" yMax="518">
      <contour>
        <pt x="441" y="518" on="1"/>
        <pt x="508" y="518" on="0"/>
        <pt x="637" y="480" on="0"/>
        <pt x="693" y="446" on="1"/>
        <pt x="733" y="479" on="0"/>
        <pt x="829" y="518" on="0"/>
        <pt x="883" y="518" on="1"/>
        <pt x="937" y="518" on="0"/>
        <pt x="1030" y="480" on="0"/>
        <pt x="1098" y="409" on="0"/>
        <pt x="1137" y="309" on="0"/>
        <pt x="1137" y="248" on="1"/>
        <pt x="1137" y="181" on="0"/>
        <pt x="1081" y="47" on="0"/>
        <pt x="1027" y="-7" on="1"/>
        <pt x="940" y="27" on="1"/>
        <pt x="992" y="87" on="0"/>
        <pt x="1034" y="193" on="0"/>
        <pt x="1034" y="251" on="1"/>
        <pt x="1034" y="286" on="0"/>
        <pt x="1015" y="350" on="0"/>
        <pt x="978" y="399" on="0"/>
        <pt x="923" y="428" on="0"/>
        <pt x="887" y="428" on="1"/>
        <pt x="856" y="428" on="0"/>
        <pt x="796" y="407" on="0"/>
        <pt x="769" y="389" on="1"/>
        <pt x="817" y="343" on="0"/>
        <pt x="874" y="230" on="0"/>
        <pt x="874" y="167" on="1"/>
        <pt x="874" y="128" on="0"/>
        <pt x="850" y="63" on="0"/>
        <pt x="808" y="16" on="0"/>
        <pt x="750" y="-9" on="0"/>
        <pt x="716" y="-9" on="1"/>
        <pt x="683" y="-9" on="0"/>
        <pt x="626" y="16" on="0"/>
        <pt x="583" y="63" on="0"/>
        <pt x="559" y="128" on="0"/>
        <pt x="559" y="167" on="1"/>
        <pt x="559" y="222" on="0"/>
        <pt x="597" y="332" on="0"/>
        <pt x="631" y="380" on="1"/>
        <pt x="589" y="401" on="0"/>
        <pt x="492" y="424" on="0"/>
        <pt x="441" y="424" on="1"/>
        <pt x="379" y="424" on="0"/>
        <pt x="273" y="391" on="0"/>
        <pt x="196" y="333" on="0"/>
        <pt x="152" y="253" on="0"/>
        <pt x="152" y="206" on="1"/>
        <pt x="152" y="155" on="0"/>
        <pt x="189" y="97" on="0"/>
        <pt x="218" y="83" on="1"/>
        <pt x="208" y="104" on="0"/>
        <pt x="208" y="130" on="1"/>
        <pt x="208" y="168" on="0"/>
        <pt x="231" y="232" on="0"/>
        <pt x="271" y="279" on="0"/>
        <pt x="326" y="305" on="0"/>
        <pt x="359" y="305" on="1"/>
        <pt x="388" y="305" on="0"/>
        <pt x="438" y="283" on="0"/>
        <pt x="474" y="244" on="0"/>
        <pt x="495" y="190" on="0"/>
        <pt x="495" y="159" on="1"/>
        <pt x="495" y="123" on="0"/>
        <pt x="468" y="61" on="0"/>
        <pt x="418" y="16" on="0"/>
        <pt x="347" y="-9" on="0"/>
        <pt x="303" y="-9" on="1"/>
        <pt x="254" y="-9" on="0"/>
        <pt x="163" y="25" on="0"/>
        <pt x="94" y="86" on="0"/>
        <pt x="52" y="171" on="0"/>
        <pt x="52" y="223" on="1"/>
        <pt x="52" y="281" on="0"/>
        <pt x="104" y="387" on="0"/>
        <pt x="203" y="469" on="0"/>
        <pt x="348" y="518" on="0"/>
      </contour>
      <contour>
        <pt x="784" y="167" on="1"/>
        <pt x="784" y="215" on="0"/>
        <pt x="742" y="298" on="0"/>
        <pt x="706" y="330" on="1"/>
        <pt x="679" y="295" on="0"/>
        <pt x="648" y="212" on="0"/>
        <pt x="648" y="167" on="1"/>
        <pt x="648" y="127" on="0"/>
        <pt x="686" y="80" on="0"/>
        <pt x="715" y="80" on="1"/>
        <pt x="744" y="80" on="0"/>
        <pt x="784" y="127" on="0"/>
      </contour>
      <contour>
        <pt x="352" y="215" on="1"/>
        <pt x="332" y="215" on="0"/>
        <pt x="301" y="197" on="0"/>
        <pt x="280" y="167" on="0"/>
        <pt x="269" y="129" on="0"/>
        <pt x="269" y="110" on="1"/>
        <pt x="269" y="91" on="0"/>
        <pt x="277" y="73" on="1"/>
        <pt x="284" y="71" on="0"/>
        <pt x="300" y="71" on="0"/>
        <pt x="308" y="71" on="1"/>
        <pt x="324" y="71" on="0"/>
        <pt x="360" y="82" on="0"/>
        <pt x="388" y="104" on="0"/>
        <pt x="407" y="136" on="0"/>
        <pt x="407" y="157" on="1"/>
        <pt x="407" y="183" on="0"/>
        <pt x="380" y="215" on="0"/>
      </contour>
    </TTGlyph>
    <TTGlyph name="aimatrahalf.tam" xMin="54" yMin="-9" xMax="527" yMax="825">
      <contour>
        <pt x="292" y="825" on="1"/>
        <pt x="342" y="825" on="0"/>
        <pt x="428" y="791" on="0"/>
        <pt x="491" y="733" on="0"/>
        <pt x="527" y="656" on="0"/>
        <pt x="527" y="613" on="1"/>
        <pt x="527" y="544" on="0"/>
        <pt x="468" y="436" on="0"/>
        <pt x="408" y="391" on="1"/>
        <pt x="217" y="246" on="1"/>
        <pt x="191" y="226" on="0"/>
        <pt x="165" y="186" on="0"/>
        <pt x="165" y="161" on="1"/>
        <pt x="165" y="129" on="0"/>
        <pt x="207" y="85" on="0"/>
        <pt x="242" y="85" on="1"/>
        <pt x="316" y="85" on="0"/>
        <pt x="436" y="198" on="0"/>
        <pt x="476" y="295" on="1"/>
        <pt x="518" y="279" on="1"/>
        <pt x="505" y="213" on="0"/>
        <pt x="454" y="106" on="0"/>
        <pt x="383" y="31" on="0"/>
        <pt x="293" y="-9" on="0"/>
        <pt x="242" y="-9" on="1"/>
        <pt x="203" y="-9" on="0"/>
        <pt x="135" y="16" on="0"/>
        <pt x="86" y="62" on="0"/>
        <pt x="57" y="126" on="0"/>
        <pt x="57" y="165" on="1"/>
        <pt x="57" y="222" on="0"/>
        <pt x="118" y="300" on="0"/>
        <pt x="170" y="340" on="1"/>
        <pt x="333" y="464" on="1"/>
        <pt x="379" y="499" on="0"/>
        <pt x="423" y="570" on="0"/>
        <pt x="423" y="618" on="1"/>
        <pt x="423" y="669" on="0"/>
        <pt x="360" y="738" on="0"/>
        <pt x="312" y="745" on="1"/>
        <pt x="331" y="724" on="0"/>
        <pt x="352" y="672" on="0"/>
        <pt x="352" y="646" on="1"/>
        <pt x="352" y="621" on="0"/>
        <pt x="335" y="573" on="0"/>
        <pt x="300" y="536" on="0"/>
        <pt x="249" y="513" on="0"/>
        <pt x="215" y="513" on="1"/>
        <pt x="180" y="513" on="0"/>
        <pt x="121" y="534" on="0"/>
        <pt x="78" y="571" on="0"/>
        <pt x="54" y="623" on="0"/>
        <pt x="54" y="653" on="1"/>
        <pt x="54" y="691" on="0"/>
        <pt x="92" y="754" on="0"/>
        <pt x="157" y="800" on="0"/>
        <pt x="243" y="825" on="0"/>
      </contour>
      <contour>
        <pt x="266" y="749" on="1"/>
        <pt x="246" y="747" on="0"/>
        <pt x="206" y="732" on="0"/>
        <pt x="174" y="708" on="0"/>
        <pt x="154" y="675" on="0"/>
        <pt x="154" y="656" on="1"/>
        <pt x="154" y="627" on="0"/>
        <pt x="188" y="590" on="0"/>
        <pt x="220" y="590" on="1"/>
        <pt x="252" y="590" on="0"/>
        <pt x="288" y="635" on="0"/>
        <pt x="288" y="667" on="1"/>
        <pt x="288" y="687" on="0"/>
        <pt x="276" y="729" on="0"/>
      </contour>
    </TTGlyph>
    <TTGlyph name="ampersand" xMin="69" yMin="-9" xMax="830" yMax="657">
      <contour>
        <pt x="830" y="162" on="1"/>
        <pt x="828" y="83" on="0"/>
        <pt x="756" y="-9" on="0"/>
        <pt x="684" y="-9" on="1"/>
        <pt x="638" y="-9" on="0"/>
        <pt x="557" y="27" on="0"/>
        <pt x="513" y="70" on="1"/>
        <pt x="469" y="32" on="0"/>
        <pt x="367" y="-9" on="0"/>
        <pt x="304" y="-9" on="1"/>
        <pt x="255" y="-9" on="0"/>
        <pt x="170" y="18" on="0"/>
        <pt x="106" y="66" on="0"/>
        <pt x="69" y="134" on="0"/>
        <pt x="69" y="175" on="1"/>
        <pt x="69" y="304" on="0"/>
        <pt x="232" y="337" on="1"/>
        <pt x="194" y="378" on="0"/>
        <pt x="155" y="454" on="0"/>
        <pt x="155" y="497" on="1"/>
        <pt x="155" y="530" on="0"/>
        <pt x="183" y="589" on="0"/>
        <pt x="235" y="632" on="0"/>
        <pt x="309" y="657" on="0"/>
        <pt x="355" y="657" on="1"/>
        <pt x="397" y="657" on="0"/>
        <pt x="467" y="630" on="0"/>
        <pt x="517" y="586" on="0"/>
        <pt x="544" y="527" on="0"/>
        <pt x="544" y="496" on="1"/>
        <pt x="544" y="438" on="0"/>
        <pt x="474" y="349" on="0"/>
        <pt x="394" y="315" on="1"/>
        <pt x="513" y="202" on="1"/>
        <pt x="566" y="270" on="0"/>
        <pt x="612" y="369" on="1"/>
        <pt x="688" y="328" on="1"/>
        <pt x="662" y="273" on="0"/>
        <pt x="608" y="179" on="0"/>
        <pt x="578" y="140" on="1"/>
        <pt x="600" y="120" on="1"/>
        <pt x="623" y="99" on="0"/>
        <pt x="656" y="82" on="0"/>
        <pt x="675" y="82" on="1"/>
        <pt x="700" y="82" on="0"/>
        <pt x="735" y="123" on="0"/>
        <pt x="737" y="162" on="1"/>
      </contour>
      <contour>
        <pt x="174" y="175" on="1"/>
        <pt x="174" y="135" on="0"/>
        <pt x="238" y="81" on="0"/>
        <pt x="298" y="81" on="1"/>
        <pt x="338" y="81" on="0"/>
        <pt x="411" y="108" on="0"/>
        <pt x="445" y="134" on="1"/>
        <pt x="295" y="276" on="1"/>
        <pt x="229" y="265" on="0"/>
        <pt x="174" y="213" on="0"/>
      </contour>
      <contour>
        <pt x="439" y="491" on="1"/>
        <pt x="439" y="523" on="0"/>
        <pt x="393" y="567" on="0"/>
        <pt x="356" y="567" on="1"/>
        <pt x="314" y="567" on="0"/>
        <pt x="267" y="519" on="0"/>
        <pt x="267" y="487" on="1"/>
        <pt x="267" y="435" on="0"/>
        <pt x="313" y="392" on="1"/>
        <pt x="335" y="371" on="1"/>
        <pt x="390" y="396" on="0"/>
        <pt x="439" y="454" on="0"/>
      </contour>
    </TTGlyph>
    <TTGlyph name="anusvara.tam" xMin="25" yMin="590" xMax="297" yMax="831">
      <contour>
        <pt x="161" y="831" on="1"/>
        <pt x="221" y="831" on="0"/>
        <pt x="297" y="767" on="0"/>
        <pt x="297" y="710" on="1"/>
        <pt x="297" y="653" on="0"/>
        <pt x="221" y="590" on="0"/>
        <pt x="161" y="590" on="1"/>
        <pt x="101" y="590" on="0"/>
        <pt x="25" y="653" on="0"/>
        <pt x="25" y="710" on="1"/>
        <pt x="25" y="767" on="0"/>
        <pt x="101" y="831" on="0"/>
      </contour>
      <contour>
        <pt x="161" y="760" on="1"/>
        <pt x="140" y="760" on="0"/>
        <pt x="117" y="733" on="0"/>
        <pt x="117" y="710" on="1"/>
        <pt x="117" y="687" on="0"/>
        <pt x="140" y="662" on="0"/>
        <pt x="161" y="662" on="1"/>
        <pt x="183" y="662" on="0"/>
        <pt x="206" y="687" on="0"/>
        <pt x="206" y="710" on="1"/>
        <pt x="206" y="733" on="0"/>
        <pt x="183" y="760" on="0"/>
      </contour>
    </TTGlyph>
    <TTGlyph name="apostrophe" xMin="36" yMin="386" xMax="234" yMax="653">
      <contour>
        <pt x="61" y="583" on="1"/>
        <pt x="61" y="613" on="0"/>
        <pt x="105" y="653" on="0"/>
        <pt x="140" y="653" on="1"/>
        <pt x="184" y="653" on="0"/>
        <pt x="234" y="593" on="0"/>
        <pt x="234" y="548" on="1"/>
        <pt x="234" y="525" on="0"/>
        <pt x="219" y="479" on="0"/>
        <pt x="190" y="436" on="0"/>
        <pt x="148" y="399" on="0"/>
        <pt x="122" y="386" on="1"/>
        <pt x="36" y="429" on="1"/>
        <pt x="69" y="445" on="0"/>
        <pt x="119" y="488" on="0"/>
        <pt x="127" y="515" on="1"/>
        <pt x="99" y="520" on="0"/>
        <pt x="61" y="554" on="0"/>
      </contour>
    </TTGlyph>
    <TTGlyph name="asciicircum" xMin="20" yMin="220" xMax="507" yMax="602">
      <contour>
        <pt x="20" y="220" on="1"/>
        <pt x="217" y="602" on="1"/>
        <pt x="310" y="602" on="1"/>
        <pt x="507" y="220" on="1"/>
        <pt x="379" y="220" on="1"/>
        <pt x="263" y="465" on="1"/>
        <pt x="148" y="220" on="1"/>
      </contour>
    </TTGlyph>
    <TTGlyph name="asciitilde" xMin="57" yMin="206" xMax="509" yMax="378">
      <contour>
        <pt x="119" y="206" on="1"/>
        <pt x="57" y="239" on="1"/>
        <pt x="74" y="302" on="0"/>
        <pt x="135" y="377" on="0"/>
        <pt x="183" y="377" on="1"/>
        <pt x="205" y="377" on="0"/>
        <pt x="254" y="363" on="0"/>
        <pt x="291" y="349" on="1"/>
        <pt x="327" y="335" on="0"/>
        <pt x="368" y="323" on="0"/>
        <pt x="382" y="323" on="1"/>
        <pt x="423" y="323" on="0"/>
        <pt x="447" y="378" on="1"/>
        <pt x="509" y="339" on="1"/>
        <pt x="489" y="276" on="0"/>
        <pt x="420" y="213" on="0"/>
        <pt x="373" y="213" on="1"/>
        <pt x="357" y="213" on="0"/>
        <pt x="309" y="226" on="0"/>
        <pt x="272" y="241" on="1"/>
        <pt x="235" y="254" on="0"/>
        <pt x="197" y="266" on="0"/>
        <pt x="182" y="266" on="1"/>
        <pt x="163" y="266" on="0"/>
        <pt x="132" y="238" on="0"/>
      </contour>
    </TTGlyph>
    <TTGlyph name="asterisk" xMin="50" yMin="396" xMax="364" yMax="703">
      <contour>
        <pt x="162" y="528" on="1"/>
        <pt x="50" y="565" on="1"/>
        <pt x="80" y="634" on="1"/>
        <pt x="179" y="583" on="1"/>
        <pt x="167" y="703" on="1"/>
        <pt x="247" y="703" on="1"/>
        <pt x="235" y="583" on="1"/>
        <pt x="334" y="635" on="1"/>
        <pt x="364" y="565" on="1"/>
        <pt x="254" y="528" on="1"/>
        <pt x="340" y="446" on="1"/>
        <pt x="283" y="396" on="1"/>
        <pt x="208" y="497" on="1"/>
        <pt x="132" y="396" on="1"/>
        <pt x="75" y="446" on="1"/>
      </contour>
    </TTGlyph>
    <TTGlyph name="at" xMin="50" yMin="-228" xMax="948" yMax="628">
      <contour>
        <pt x="580" y="255" on="1"/>
        <pt x="580" y="284" on="0"/>
        <pt x="559" y="321" on="0"/>
        <pt x="529" y="321" on="1"/>
        <pt x="508" y="321" on="0"/>
        <pt x="463" y="300" on="0"/>
        <pt x="427" y="262" on="0"/>
        <pt x="403" y="207" on="0"/>
        <pt x="403" y="173" on="1"/>
        <pt x="403" y="130" on="0"/>
        <pt x="448" y="74" on="0"/>
        <pt x="483" y="74" on="1"/>
        <pt x="517" y="74" on="0"/>
        <pt x="560" y="121" on="0"/>
        <pt x="580" y="159" on="1"/>
      </contour>
      <contour>
        <pt x="544" y="628" on="1"/>
        <pt x="631" y="628" on="0"/>
        <pt x="779" y="575" on="0"/>
        <pt x="887" y="480" on="0"/>
        <pt x="948" y="347" on="0"/>
        <pt x="948" y="268" on="1"/>
        <pt x="948" y="204" on="0"/>
        <pt x="910" y="102" on="0"/>
        <pt x="846" y="30" on="0"/>
        <pt x="760" y="-9" on="0"/>
        <pt x="711" y="-9" on="1"/>
        <pt x="616" y="-9" on="0"/>
        <pt x="585" y="72" on="1"/>
        <pt x="566" y="35" on="0"/>
        <pt x="509" y="-9" on="0"/>
        <pt x="459" y="-9" on="1"/>
        <pt x="428" y="-9" on="0"/>
        <pt x="369" y="18" on="0"/>
        <pt x="322" y="66" on="0"/>
        <pt x="294" y="132" on="0"/>
        <pt x="294" y="171" on="1"/>
        <pt x="294" y="222" on="0"/>
        <pt x="333" y="310" on="0"/>
        <pt x="399" y="376" on="0"/>
        <pt x="486" y="414" on="0"/>
        <pt x="533" y="414" on="1"/>
        <pt x="565" y="414" on="0"/>
        <pt x="620" y="394" on="0"/>
        <pt x="660" y="354" on="0"/>
        <pt x="683" y="296" on="0"/>
        <pt x="683" y="257" on="1"/>
        <pt x="683" y="127" on="1"/>
        <pt x="683" y="74" on="0"/>
        <pt x="722" y="74" on="1"/>
        <pt x="740" y="74" on="0"/>
        <pt x="782" y="98" on="0"/>
        <pt x="816" y="146" on="0"/>
        <pt x="839" y="216" on="0"/>
        <pt x="839" y="262" on="1"/>
        <pt x="839" y="321" on="0"/>
        <pt x="799" y="421" on="0"/>
        <pt x="722" y="494" on="0"/>
        <pt x="613" y="535" on="0"/>
        <pt x="544" y="535" on="1"/>
        <pt x="466" y="535" on="0"/>
        <pt x="326" y="482" on="0"/>
        <pt x="220" y="387" on="0"/>
        <pt x="158" y="257" on="0"/>
        <pt x="158" y="180" on="1"/>
        <pt x="158" y="105" on="0"/>
        <pt x="213" y="-13" on="0"/>
        <pt x="316" y="-94" on="0"/>
        <pt x="463" y="-137" on="0"/>
        <pt x="555" y="-137" on="1"/>
        <pt x="555" y="-228" on="1"/>
        <pt x="450" y="-228" on="0"/>
        <pt x="265" y="-171" on="0"/>
        <pt x="129" y="-63" on="0"/>
        <pt x="50" y="95" on="0"/>
        <pt x="50" y="197" on="1"/>
        <pt x="50" y="290" on="0"/>
        <pt x="128" y="448" on="0"/>
        <pt x="262" y="563" on="0"/>
        <pt x="442" y="628" on="0"/>
      </contour>
    </TTGlyph>
    <TTGlyph name="au.tam" xMin="52" yMin="-358" xMax="2212" yMax="518">
      <contour>
        <pt x="853" y="-202" on="1"/>
        <pt x="782" y="-202" on="0"/>
        <pt x="725" y="-182" on="1"/>
        <pt x="671" y="-271" on="0"/>
        <pt x="542" y="-358" on="0"/>
        <pt x="459" y="-358" on="1"/>
        <pt x="419" y="-358" on="0"/>
        <pt x="348" y="-336" on="0"/>
        <pt x="294" y="-297" on="0"/>
        <pt x="263" y="-241" on="0"/>
        <pt x="263" y="-206" on="1"/>
        <pt x="263" y="-176" on="0"/>
        <pt x="287" y="-129" on="0"/>
        <pt x="326" y="-95" on="0"/>
        <pt x="378" y="-77" on="0"/>
        <pt x="406" y="-77" on="1"/>
        <pt x="442" y="-77" on="0"/>
        <pt x="495" y="-102" on="0"/>
        <pt x="531" y="-146" on="0"/>
        <pt x="551" y="-206" on="0"/>
        <pt x="554" y="-241" on="1"/>
        <pt x="582" y="-220" on="0"/>
        <pt x="624" y="-167" on="0"/>
        <pt x="643" y="-138" on="1"/>
        <pt x="568" y="-75" on="0"/>
        <pt x="568" y="30" on="1"/>
        <pt x="568" y="115" on="0"/>
        <pt x="664" y="248" on="0"/>
        <pt x="745" y="299" on="1"/>
        <pt x="855" y="263" on="1"/>
        <pt x="841" y="234" on="0"/>
        <pt x="828" y="186" on="0"/>
        <pt x="828" y="155" on="1"/>
        <pt x="828" y="123" on="0"/>
        <pt x="865" y="85" on="0"/>
        <pt x="894" y="85" on="1"/>
        <pt x="926" y="85" on="0"/>
        <pt x="972" y="142" on="0"/>
        <pt x="972" y="195" on="1"/>
        <pt x="972" y="244" on="0"/>
        <pt x="913" y="327" on="0"/>
        <pt x="806" y="389" on="0"/>
        <pt x="657" y="424" on="0"/>
        <pt x="567" y="424" on="1"/>
        <pt x="366" y="424" on="0"/>
        <pt x="160" y="306" on="0"/>
        <pt x="160" y="200" on="1"/>
        <pt x="160" y="154" on="0"/>
        <pt x="197" y="97" on="0"/>
        <pt x="226" y="83" on="1"/>
        <pt x="221" y="107" on="0"/>
        <pt x="220" y="159" on="0"/>
        <pt x="226" y="184" on="1"/>
        <pt x="232" y="209" on="0"/>
        <pt x="257" y="253" on="0"/>
        <pt x="295" y="286" on="0"/>
        <pt x="345" y="305" on="0"/>
        <pt x="376" y="305" on="1"/>
        <pt x="410" y="305" on="0"/>
        <pt x="464" y="283" on="0"/>
        <pt x="502" y="244" on="0"/>
        <pt x="522" y="190" on="0"/>
        <pt x="522" y="159" on="1"/>
        <pt x="522" y="123" on="0"/>
        <pt x="491" y="61" on="0"/>
        <pt x="435" y="16" on="0"/>
        <pt x="357" y="-9" on="0"/>
        <pt x="311" y="-9" on="1"/>
        <pt x="261" y="-9" on="0"/>
        <pt x="168" y="25" on="0"/>
        <pt x="96" y="86" on="0"/>
        <pt x="52" y="170" on="0"/>
        <pt x="52" y="220" on="1"/>
        <pt x="52" y="284" on="0"/>
        <pt x="112" y="394" on="0"/>
        <pt x="237" y="473" on="0"/>
        <pt x="432" y="518" on="0"/>
        <pt x="567" y="518" on="1"/>
        <pt x="694" y="518" on="0"/>
        <pt x="886" y="461" on="0"/>
        <pt x="1015" y="369" on="0"/>
        <pt x="1080" y="253" on="0"/>
        <pt x="1080" y="194" on="1"/>
        <pt x="1080" y="146" on="0"/>
        <pt x="1052" y="71" on="0"/>
        <pt x="1002" y="19" on="0"/>
        <pt x="936" y="-9" on="0"/>
        <pt x="898" y="-9" on="1"/>
        <pt x="865" y="-9" on="0"/>
        <pt x="807" y="10" on="0"/>
        <pt x="765" y="46" on="0"/>
        <pt x="741" y="96" on="0"/>
        <pt x="741" y="128" on="1"/>
        <pt x="741" y="142" on="0"/>
        <pt x="747" y="175" on="0"/>
        <pt x="755" y="192" on="1"/>
        <pt x="716" y="162" on="0"/>
        <pt x="671" y="76" on="0"/>
        <pt x="671" y="31" on="1"/>
        <pt x="671" y="-41" on="0"/>
        <pt x="767" y="-109" on="0"/>
        <pt x="845" y="-109" on="1"/>
        <pt x="945" y="-109" on="1"/>
        <pt x="945" y="-202" on="1"/>
      </contour>
      <contour>
        <pt x="1477" y="518" on="1"/>
        <pt x="1526" y="518" on="0"/>
        <pt x="1606" y="490" on="0"/>
        <pt x="1668" y="444" on="0"/>
        <pt x="1711" y="383" on="0"/>
        <pt x="1724" y="349" on="1"/>
        <pt x="1724" y="509" on="1"/>
        <pt x="2212" y="509" on="1"/>
        <pt x="2212" y="416" on="1"/>
        <pt x="2104" y="416" on="1"/>
        <pt x="2104" y="0" on="1"/>
        <pt x="2001" y="0" on="1"/>
        <pt x="2001" y="416" on="1"/>
        <pt x="1819" y="416" on="1"/>
        <pt x="1819" y="0" on="1"/>
        <pt x="1724" y="0" on="1"/>
        <pt x="1724" y="160" on="1"/>
        <pt x="1724" y="221" on="0"/>
        <pt x="1691" y="319" on="0"/>
        <pt x="1631" y="388" on="0"/>
        <pt x="1546" y="424" on="0"/>
        <pt x="1495" y="424" on="1"/>
        <pt x="1446" y="424" on="0"/>
        <pt x="1363" y="390" on="0"/>
        <pt x="1303" y="331" on="0"/>
        <pt x="1270" y="251" on="0"/>
        <pt x="1270" y="206" on="1"/>
        <pt x="1270" y="155" on="0"/>
        <pt x="1307" y="97" on="0"/>
        <pt x="1337" y="83" on="1"/>
        <pt x="1331" y="107" on="0"/>
        <pt x="1330" y="159" on="0"/>
        <pt x="1336" y="184" on="1"/>
        <pt x="1342" y="209" on="0"/>
        <pt x="1367" y="253" on="0"/>
        <pt x="1405" y="286" on="0"/>
        <pt x="1455" y="305" on="0"/>
        <pt x="1486" y="305" on="1"/>
        <pt x="1520" y="305" on="0"/>
        <pt x="1574" y="283" on="0"/>
        <pt x="1612" y="244" on="0"/>
        <pt x="1632" y="190" on="0"/>
        <pt x="1632" y="159" on="1"/>
        <pt x="1632" y="123" on="0"/>
        <pt x="1601" y="61" on="0"/>
        <pt x="1545" y="16" on="0"/>
        <pt x="1467" y="-9" on="0"/>
        <pt x="1421" y="-9" on="1"/>
        <pt x="1372" y="-9" on="0"/>
        <pt x="1279" y="25" on="0"/>
        <pt x="1206" y="87" on="0"/>
        <pt x="1162" y="174" on="0"/>
        <pt x="1162" y="227" on="1"/>
        <pt x="1162" y="294" on="0"/>
        <pt x="1215" y="402" on="0"/>
        <pt x="1302" y="477" on="0"/>
        <pt x="1416" y="518" on="0"/>
      </contour>
      <contour>
        <pt x="1470" y="215" on="1"/>
        <pt x="1437" y="215" on="0"/>
        <pt x="1397" y="168" on="0"/>
        <pt x="1392" y="137" on="1"/>
        <pt x="1390" y="120" on="0"/>
        <pt x="1390" y="88" on="0"/>
        <pt x="1394" y="73" on="1"/>
        <pt x="1402" y="71" on="0"/>
        <pt x="1418" y="71" on="0"/>
        <pt x="1426" y="71" on="1"/>
        <pt x="1442" y="71" on="0"/>
        <pt x="1477" y="82" on="0"/>
        <pt x="1506" y="103" on="0"/>
        <pt x="1525" y="136" on="0"/>
        <pt x="1525" y="157" on="1"/>
        <pt x="1525" y="183" on="0"/>
        <pt x="1497" y="215" on="0"/>
      </contour>
      <contour>
        <pt x="360" y="215" on="1"/>
        <pt x="327" y="215" on="0"/>
        <pt x="287" y="168" on="0"/>
        <pt x="282" y="137" on="1"/>
        <pt x="280" y="120" on="0"/>
        <pt x="280" y="88" on="0"/>
        <pt x="284" y="73" on="1"/>
        <pt x="292" y="71" on="0"/>
        <pt x="308" y="71" on="0"/>
        <pt x="316" y="71" on="1"/>
        <pt x="332" y="71" on="0"/>
        <pt x="367" y="82" on="0"/>
        <pt x="396" y="103" on="0"/>
        <pt x="415" y="136" on="0"/>
        <pt x="415" y="157" on="1"/>
        <pt x="415" y="183" on="0"/>
        <pt x="386" y="215" on="0"/>
      </contour>
      <contour>
        <pt x="422" y="-156" on="1"/>
        <pt x="395" y="-156" on="0"/>
        <pt x="363" y="-187" on="0"/>
        <pt x="363" y="-211" on="1"/>
        <pt x="363" y="-240" on="0"/>
        <pt x="410" y="-274" on="0"/>
        <pt x="445" y="-274" on="1"/>
        <pt x="461" y="-274" on="0"/>
        <pt x="482" y="-272" on="0"/>
        <pt x="495" y="-268" on="1"/>
        <pt x="491" y="-218" on="0"/>
        <pt x="456" y="-156" on="0"/>
      </contour>
    </TTGlyph>
    <TTGlyph name="aumatra.tam" xMin="55" yMin="-9" xMax="2372" yMax="790">
      <contour>
        <pt x="894" y="423" on="1"/>
        <pt x="914" y="439" on="0"/>
        <pt x="966" y="460" on="0"/>
        <pt x="993" y="464" on="1"/>
        <pt x="1005" y="368" on="1"/>
        <pt x="975" y="365" on="0"/>
        <pt x="954" y="347" on="1"/>
      </contour>
      <contour>
        <pt x="816" y="289" on="1"/>
        <pt x="820" y="316" on="0"/>
        <pt x="842" y="367" on="0"/>
        <pt x="858" y="387" on="1"/>
        <pt x="933" y="327" on="1"/>
        <pt x="918" y="306" on="0"/>
        <pt x="913" y="280" on="1"/>
      </contour>
      <contour>
        <pt x="1045" y="463" on="1"/>
        <pt x="1101" y="455" on="0"/>
        <pt x="1143" y="423" on="1"/>
        <pt x="1085" y="345" on="1"/>
        <pt x="1063" y="364" on="0"/>
        <pt x="1034" y="367" on="1"/>
      </contour>
      <contour>
        <pt x="1179" y="385" on="1"/>
        <pt x="1196" y="364" on="0"/>
        <pt x="1217" y="314" on="0"/>
        <pt x="1220" y="287" on="1"/>
        <pt x="1124" y="276" on="1"/>
        <pt x="1122" y="291" on="0"/>
        <pt x="1112" y="313" on="0"/>
        <pt x="1104" y="325" on="1"/>
      </contour>
      <contour>
        <pt x="1141" y="101" on="1"/>
        <pt x="1121" y="85" on="0"/>
        <pt x="1070" y="64" on="0"/>
        <pt x="1044" y="61" on="1"/>
        <pt x="1031" y="156" on="1"/>
        <pt x="1060" y="160" on="0"/>
        <pt x="1082" y="177" on="1"/>
      </contour>
      <contour>
        <pt x="1220" y="236" on="1"/>
        <pt x="1212" y="179" on="0"/>
        <pt x="1178" y="137" on="1"/>
        <pt x="1102" y="196" on="1"/>
        <pt x="1111" y="207" on="0"/>
        <pt x="1121" y="234" on="0"/>
        <pt x="1123" y="247" on="1"/>
      </contour>
      <contour>
        <pt x="857" y="139" on="1"/>
        <pt x="841" y="159" on="0"/>
        <pt x="820" y="210" on="0"/>
        <pt x="816" y="237" on="1"/>
        <pt x="912" y="249" on="1"/>
        <pt x="914" y="234" on="0"/>
        <pt x="924" y="212" on="0"/>
        <pt x="932" y="199" on="1"/>
      </contour>
      <contour>
        <pt x="992" y="61" on="1"/>
        <pt x="964" y="65" on="0"/>
        <pt x="913" y="87" on="0"/>
        <pt x="893" y="103" on="1"/>
        <pt x="953" y="177" on="1"/>
        <pt x="973" y="160" on="0"/>
        <pt x="1003" y="157" on="1"/>
      </contour>
      <contour>
        <pt x="497" y="790" on="1"/>
        <pt x="554" y="790" on="0"/>
        <pt x="642" y="755" on="0"/>
        <pt x="700" y="689" on="0"/>
        <pt x="730" y="595" on="0"/>
        <pt x="730" y="537" on="1"/>
        <pt x="730" y="0" on="1"/>
        <pt x="628" y="0" on="1"/>
        <pt x="628" y="538" on="1"/>
        <pt x="628" y="621" on="0"/>
        <pt x="557" y="692" on="0"/>
        <pt x="497" y="692" on="1"/>
        <pt x="441" y="692" on="0"/>
        <pt x="323" y="628" on="0"/>
        <pt x="225" y="518" on="0"/>
        <pt x="162" y="369" on="0"/>
        <pt x="162" y="284" on="1"/>
        <pt x="162" y="204" on="0"/>
        <pt x="208" y="106" on="0"/>
        <pt x="243" y="84" on="1"/>
        <pt x="238" y="107" on="0"/>
        <pt x="237" y="159" on="0"/>
        <pt x="244" y="184" on="1"/>
        <pt x="250" y="209" on="0"/>
        <pt x="274" y="253" on="0"/>
        <pt x="312" y="286" on="0"/>
        <pt x="362" y="305" on="0"/>
        <pt x="393" y="305" on="1"/>
        <pt x="427" y="305" on="0"/>
        <pt x="482" y="283" on="0"/>
        <pt x="520" y="244" on="0"/>
        <pt x="540" y="190" on="0"/>
        <pt x="540" y="159" on="1"/>
        <pt x="540" y="123" on="0"/>
        <pt x="509" y="61" on="0"/>
        <pt x="453" y="16" on="0"/>
        <pt x="375" y="-9" on="0"/>
        <pt x="328" y="-9" on="1"/>
        <pt x="277" y="-9" on="0"/>
        <pt x="178" y="33" on="0"/>
        <pt x="102" y="115" on="0"/>
        <pt x="55" y="234" on="0"/>
        <pt x="55" y="312" on="1"/>
        <pt x="55" y="411" on="0"/>
        <pt x="124" y="585" on="0"/>
        <pt x="244" y="715" on="0"/>
        <pt x="405" y="790" on="0"/>
      </contour>
      <contour>
        <pt x="377" y="215" on="1"/>
        <pt x="344" y="215" on="0"/>
        <pt x="304" y="168" on="0"/>
        <pt x="299" y="137" on="1"/>
        <pt x="294" y="103" on="0"/>
        <pt x="302" y="73" on="1"/>
        <pt x="309" y="71" on="0"/>
        <pt x="325" y="71" on="0"/>
        <pt x="333" y="71" on="1"/>
        <pt x="349" y="71" on="0"/>
        <pt x="384" y="82" on="0"/>
        <pt x="413" y="103" on="0"/>
        <pt x="432" y="136" on="0"/>
        <pt x="432" y="157" on="1"/>
        <pt x="432" y="183" on="0"/>
        <pt x="404" y="215" on="0"/>
      </contour>
      <contour>
        <pt x="1637" y="518" on="1"/>
        <pt x="1686" y="518" on="0"/>
        <pt x="1766" y="490" on="0"/>
        <pt x="1828" y="444" on="0"/>
        <pt x="1871" y="383" on="0"/>
        <pt x="1884" y="349" on="1"/>
        <pt x="1884" y="509" on="1"/>
        <pt x="2372" y="509" on="1"/>
        <pt x="2372" y="416" on="1"/>
        <pt x="2264" y="416" on="1"/>
        <pt x="2264" y="0" on="1"/>
        <pt x="2161" y="0" on="1"/>
        <pt x="2161" y="416" on="1"/>
        <pt x="1979" y="416" on="1"/>
        <pt x="1979" y="0" on="1"/>
        <pt x="1884" y="0" on="1"/>
        <pt x="1884" y="160" on="1"/>
        <pt x="1884" y="221" on="0"/>
        <pt x="1851" y="319" on="0"/>
        <pt x="1791" y="388" on="0"/>
        <pt x="1706" y="424" on="0"/>
        <pt x="1655" y="424" on="1"/>
        <pt x="1606" y="424" on="0"/>
        <pt x="1523" y="390" on="0"/>
        <pt x="1463" y="331" on="0"/>
        <pt x="1430" y="251" on="0"/>
        <pt x="1430" y="206" on="1"/>
        <pt x="1430" y="155" on="0"/>
        <pt x="1467" y="97" on="0"/>
        <pt x="1497" y="83" on="1"/>
        <pt x="1491" y="107" on="0"/>
        <pt x="1490" y="159" on="0"/>
        <pt x="1496" y="184" on="1"/>
        <pt x="1502" y="209" on="0"/>
        <pt x="1527" y="253" on="0"/>
        <pt x="1565" y="286" on="0"/>
        <pt x="1615" y="305" on="0"/>
        <pt x="1646" y="305" on="1"/>
        <pt x="1680" y="305" on="0"/>
        <pt x="1734" y="283" on="0"/>
        <pt x="1772" y="244" on="0"/>
        <pt x="1792" y="190" on="0"/>
        <pt x="1792" y="159" on="1"/>
        <pt x="1792" y="123" on="0"/>
        <pt x="1761" y="61" on="0"/>
        <pt x="1705" y="16" on="0"/>
        <pt x="1627" y="-9" on="0"/>
        <pt x="1581" y="-9" on="1"/>
        <pt x="1532" y="-9" on="0"/>
        <pt x="1439" y="25" on="0"/>
        <pt x="1366" y="87" on="0"/>
        <pt x="1322" y="174" on="0"/>
        <pt x="1322" y="227" on="1"/>
        <pt x="1322" y="294" on="0"/>
        <pt x="1375" y="402" on="0"/>
        <pt x="1462" y="477" on="0"/>
        <pt x="1576" y="518" on="0"/>
      </contour>
      <contour>
        <pt x="1630" y="215" on="1"/>
        <pt x="1597" y="215" on="0"/>
        <pt x="1557" y="168" on="0"/>
        <pt x="1552" y="137" on="1"/>
        <pt x="1550" y="120" on="0"/>
        <pt x="1550" y="88" on="0"/>
        <pt x="1554" y="73" on="1"/>
        <pt x="1562" y="71" on="0"/>
        <pt x="1578" y="71" on="0"/>
        <pt x="1586" y="71" on="1"/>
        <pt x="1602" y="71" on="0"/>
        <pt x="1637" y="82" on="0"/>
        <pt x="1666" y="103" on="0"/>
        <pt x="1685" y="136" on="0"/>
        <pt x="1685" y="157" on="1"/>
        <pt x="1685" y="183" on="0"/>
        <pt x="1657" y="215" on="0"/>
      </contour>
    </TTGlyph>
    <TTGlyph name="aumatrahalf.tam" xMin="52" yMin="-9" xMax="1102" yMax="518">
      <contour>
        <pt x="367" y="518" on="1"/>
        <pt x="416" y="518" on="0"/>
        <pt x="496" y="490" on="0"/>
        <pt x="558" y="444" on="0"/>
        <pt x="601" y="383" on="0"/>
        <pt x="614" y="349" on="1"/>
        <pt x="614" y="509" on="1"/>
        <pt x="1102" y="509" on="1"/>
        <pt x="1102" y="416" on="1"/>
        <pt x="994" y="416" on="1"/>
        <pt x="994" y="0" on="1"/>
        <pt x="891" y="0" on="1"/>
        <pt x="891" y="416" on="1"/>
        <pt x="709" y="416" on="1"/>
        <pt x="709" y="0" on="1"/>
        <pt x="614" y="0" on="1"/>
        <pt x="614" y="160" on="1"/>
        <pt x="614" y="221" on="0"/>
        <pt x="581" y="319" on="0"/>
        <pt x="521" y="388" on="0"/>
        <pt x="436" y="424" on="0"/>
        <pt x="385" y="424" on="1"/>
        <pt x="336" y="424" on="0"/>
        <pt x="253" y="390" on="0"/>
        <pt x="193" y="331" on="0"/>
        <pt x="160" y="251" on="0"/>
        <pt x="160" y="206" on="1"/>
        <pt x="160" y="155" on="0"/>
        <pt x="197" y="97" on="0"/>
        <pt x="227" y="83" on="1"/>
        <pt x="221" y="107" on="0"/>
        <pt x="220" y="159" on="0"/>
        <pt x="226" y="184" on="1"/>
        <pt x="232" y="209" on="0"/>
        <pt x="257" y="253" on="0"/>
        <pt x="295" y="286" on="0"/>
        <pt x="345" y="305" on="0"/>
        <pt x="376" y="305" on="1"/>
        <pt x="410" y="305" on="0"/>
        <pt x="464" y="283" on="0"/>
        <pt x="502" y="244" on="0"/>
        <pt x="522" y="190" on="0"/>
        <pt x="522" y="159" on="1"/>
        <pt x="522" y="123" on="0"/>
        <pt x="491" y="61" on="0"/>
        <pt x="435" y="16" on="0"/>
        <pt x="357" y="-9" on="0"/>
        <pt x="311" y="-9" on="1"/>
        <pt x="262" y="-9" on="0"/>
        <pt x="169" y="25" on="0"/>
        <pt x="96" y="87" on="0"/>
        <pt x="52" y="174" on="0"/>
        <pt x="52" y="227" on="1"/>
        <pt x="52" y="294" on="0"/>
        <pt x="105" y="402" on="0"/>
        <pt x="192" y="477" on="0"/>
        <pt x="306" y="518" on="0"/>
      </contour>
      <contour>
        <pt x="360" y="215" on="1"/>
        <pt x="327" y="215" on="0"/>
        <pt x="287" y="168" on="0"/>
        <pt x="282" y="137" on="1"/>
        <pt x="280" y="120" on="0"/>
        <pt x="280" y="88" on="0"/>
        <pt x="284" y="73" on="1"/>
        <pt x="292" y="71" on="0"/>
        <pt x="308" y="71" on="0"/>
        <pt x="316" y="71" on="1"/>
        <pt x="332" y="71" on="0"/>
        <pt x="367" y="82" on="0"/>
        <pt x="396" y="103" on="0"/>
        <pt x="415" y="136" on="0"/>
        <pt x="415" y="157" on="1"/>
        <pt x="415" y="183" on="0"/>
        <pt x="387" y="215" on="0"/>
      </contour>
    </TTGlyph>
    <TTGlyph name="backslash" xMin="7" yMin="-80" xMax="375" yMax="744">
      <contour>
        <pt x="7" y="744" on="1"/>
        <pt x="118" y="744" on="1"/>
        <pt x="375" y="-80" on="1"/>
        <pt x="264" y="-80" on="1"/>
      </contour>
    </TTGlyph>
    <TTGlyph name="bar" xMin="94" yMin="-122" xMax="197" yMax="769">
      <contour>
        <pt x="94" y="769" on="1"/>
        <pt x="197" y="769" on="1"/>
        <pt x="197" y="-122" on="1"/>
        <pt x="94" y="-122" on="1"/>
      </contour>
    </TTGlyph>
    <TTGlyph name="braceleft" xMin="71" yMin="-155" xMax="373" yMax="792">
      <contour>
        <pt x="373" y="-155" on="1"/>
        <pt x="305" y="-155" on="0"/>
        <pt x="212" y="-118" on="0"/>
        <pt x="154" y="-51" on="0"/>
        <pt x="129" y="41" on="0"/>
        <pt x="129" y="96" on="1"/>
        <pt x="129" y="187" on="1"/>
        <pt x="129" y="229" on="0"/>
        <pt x="115" y="261" on="0"/>
        <pt x="96" y="261" on="1"/>
        <pt x="71" y="261" on="1"/>
        <pt x="71" y="377" on="1"/>
        <pt x="96" y="377" on="1"/>
        <pt x="115" y="377" on="0"/>
        <pt x="129" y="408" on="0"/>
        <pt x="129" y="450" on="1"/>
        <pt x="129" y="542" on="1"/>
        <pt x="129" y="597" on="0"/>
        <pt x="154" y="689" on="0"/>
        <pt x="212" y="755" on="0"/>
        <pt x="305" y="792" on="0"/>
        <pt x="373" y="792" on="1"/>
        <pt x="373" y="701" on="1"/>
        <pt x="299" y="701" on="0"/>
        <pt x="232" y="629" on="0"/>
        <pt x="232" y="553" on="1"/>
        <pt x="232" y="445" on="1"/>
        <pt x="232" y="397" on="0"/>
        <pt x="196" y="335" on="0"/>
        <pt x="167" y="321" on="1"/>
        <pt x="167" y="316" on="1"/>
        <pt x="196" y="302" on="0"/>
        <pt x="232" y="241" on="0"/>
        <pt x="232" y="193" on="1"/>
        <pt x="232" y="84" on="1"/>
        <pt x="232" y="9" on="0"/>
        <pt x="299" y="-63" on="0"/>
        <pt x="373" y="-63" on="1"/>
      </contour>
    </TTGlyph>
    <TTGlyph name="braceright" xMin="15" yMin="-155" xMax="317" yMax="792">
      <contour>
        <pt x="15" y="-63" on="1"/>
        <pt x="89" y="-63" on="0"/>
        <pt x="156" y="9" on="0"/>
        <pt x="156" y="84" on="1"/>
        <pt x="156" y="193" on="1"/>
        <pt x="156" y="241" on="0"/>
        <pt x="192" y="302" on="0"/>
        <pt x="221" y="316" on="1"/>
        <pt x="221" y="321" on="1"/>
        <pt x="192" y="335" on="0"/>
        <pt x="156" y="397" on="0"/>
        <pt x="156" y="445" on="1"/>
        <pt x="156" y="553" on="1"/>
        <pt x="156" y="629" on="0"/>
        <pt x="89" y="701" on="0"/>
        <pt x="15" y="701" on="1"/>
        <pt x="15" y="792" on="1"/>
        <pt x="83" y="792" on="0"/>
        <pt x="176" y="755" on="0"/>
        <pt x="234" y="689" on="0"/>
        <pt x="259" y="597" on="0"/>
        <pt x="259" y="542" on="1"/>
        <pt x="259" y="450" on="1"/>
        <pt x="259" y="408" on="0"/>
        <pt x="273" y="377" on="0"/>
        <pt x="292" y="377" on="1"/>
        <pt x="317" y="377" on="1"/>
        <pt x="317" y="261" on="1"/>
        <pt x="292" y="261" on="1"/>
        <pt x="273" y="261" on="0"/>
        <pt x="259" y="229" on="0"/>
        <pt x="259" y="187" on="1"/>
        <pt x="259" y="96" on="1"/>
        <pt x="259" y="41" on="0"/>
        <pt x="234" y="-51" on="0"/>
        <pt x="176" y="-118" on="0"/>
        <pt x="83" y="-155" on="0"/>
        <pt x="15" y="-155" on="1"/>
      </contour>
    </TTGlyph>
    <TTGlyph name="bracketleft" xMin="94" yMin="-128" xMax="325" yMax="786">
      <contour>
        <pt x="94" y="786" on="1"/>
        <pt x="325" y="786" on="1"/>
        <pt x="325" y="692" on="1"/>
        <pt x="197" y="692" on="1"/>
        <pt x="197" y="-34" on="1"/>
        <pt x="325" y="-34" on="1"/>
        <pt x="325" y="-128" on="1"/>
        <pt x="94" y="-128" on="1"/>
      </contour>
    </TTGlyph>
    <TTGlyph name="bracketright" xMin="8" yMin="-128" xMax="239" yMax="786">
      <contour>
        <pt x="239" y="-128" on="1"/>
        <pt x="8" y="-128" on="1"/>
        <pt x="8" y="-34" on="1"/>
        <pt x="136" y="-34" on="1"/>
        <pt x="136" y="692" on="1"/>
        <pt x="8" y="692" on="1"/>
        <pt x="8" y="786" on="1"/>
        <pt x="239" y="786" on="1"/>
      </contour>
    </TTGlyph>
    <TTGlyph name="ca.tam" xMin="40" yMin="-9" xMax="646" yMax="509">
      <contour>
        <pt x="257" y="285" on="1"/>
        <pt x="406" y="285" on="1"/>
        <pt x="406" y="416" on="1"/>
        <pt x="257" y="416" on="1"/>
      </contour>
      <contour>
        <pt x="204" y="219" on="1"/>
        <pt x="148" y="219" on="0"/>
        <pt x="148" y="173" on="1"/>
        <pt x="148" y="153" on="0"/>
        <pt x="171" y="118" on="0"/>
        <pt x="212" y="92" on="0"/>
        <pt x="270" y="77" on="0"/>
        <pt x="305" y="77" on="1"/>
        <pt x="406" y="77" on="0"/>
        <pt x="406" y="178" on="1"/>
        <pt x="406" y="219" on="1"/>
      </contour>
      <contour>
        <pt x="646" y="509" on="1"/>
        <pt x="646" y="416" on="1"/>
        <pt x="508" y="416" on="1"/>
        <pt x="508" y="285" on="1"/>
        <pt x="623" y="285" on="1"/>
        <pt x="623" y="219" on="1"/>
        <pt x="508" y="219" on="1"/>
        <pt x="508" y="177" on="1"/>
        <pt x="508" y="81" on="0"/>
        <pt x="403" y="-9" on="0"/>
        <pt x="315" y="-9" on="1"/>
        <pt x="252" y="-9" on="0"/>
        <pt x="150" y="25" on="0"/>
        <pt x="78" y="80" on="0"/>
        <pt x="40" y="150" on="0"/>
        <pt x="40" y="185" on="1"/>
        <pt x="40" y="233" on="0"/>
        <pt x="101" y="285" on="0"/>
        <pt x="155" y="285" on="1"/>
        <pt x="162" y="285" on="1"/>
        <pt x="162" y="509" on="1"/>
      </contour>
    </TTGlyph>
    <TTGlyph name="cansv.tam" xMin="40" yMin="-9" xMax="646" yMax="831">
      <contour>
        <pt x="257" y="285" on="1"/>
        <pt x="406" y="285" on="1"/>
        <pt x="406" y="416" on="1"/>
        <pt x="257" y="416" on="1"/>
      </contour>
      <contour>
        <pt x="204" y="219" on="1"/>
        <pt x="148" y="219" on="0"/>
        <pt x="148" y="173" on="1"/>
        <pt x="148" y="153" on="0"/>
        <pt x="171" y="118" on="0"/>
        <pt x="212" y="92" on="0"/>
        <pt x="270" y="77" on="0"/>
        <pt x="305" y="77" on="1"/>
        <pt x="406" y="77" on="0"/>
        <pt x="406" y="178" on="1"/>
        <pt x="406" y="219" on="1"/>
      </contour>
      <contour>
        <pt x="646" y="509" on="1"/>
        <pt x="646" y="416" on="1"/>
        <pt x="508" y="416" on="1"/>
        <pt x="508" y="285" on="1"/>
        <pt x="623" y="285" on="1"/>
        <pt x="623" y="219" on="1"/>
        <pt x="508" y="219" on="1"/>
        <pt x="508" y="177" on="1"/>
        <pt x="508" y="81" on="0"/>
        <pt x="403" y="-9" on="0"/>
        <pt x="315" y="-9" on="1"/>
        <pt x="252" y="-9" on="0"/>
        <pt x="150" y="25" on="0"/>
        <pt x="78" y="80" on="0"/>
        <pt x="40" y="150" on="0"/>
        <pt x="40" y="185" on="1"/>
        <pt x="40" y="233" on="0"/>
        <pt x="101" y="285" on="0"/>
        <pt x="155" y="285" on="1"/>
        <pt x="162" y="285" on="1"/>
        <pt x="162" y="509" on="1"/>
      </contour>
      <contour>
        <pt x="402" y="831" on="1"/>
        <pt x="462" y="831" on="0"/>
        <pt x="538" y="767" on="0"/>
        <pt x="538" y="710" on="1"/>
        <pt x="538" y="653" on="0"/>
        <pt x="462" y="590" on="0"/>
        <pt x="402" y="590" on="1"/>
        <pt x="342" y="590" on="0"/>
        <pt x="266" y="653" on="0"/>
        <pt x="266" y="710" on="1"/>
        <pt x="266" y="767" on="0"/>
        <pt x="342" y="831" on="0"/>
      </contour>
      <contour>
        <pt x="402" y="760" on="1"/>
        <pt x="381" y="760" on="0"/>
        <pt x="358" y="733" on="0"/>
        <pt x="358" y="710" on="1"/>
        <pt x="358" y="687" on="0"/>
        <pt x="381" y="662" on="0"/>
        <pt x="402" y="662" on="1"/>
        <pt x="424" y="662" on="0"/>
        <pt x="447" y="687" on="0"/>
        <pt x="447" y="710" on="1"/>
        <pt x="447" y="733" on="0"/>
        <pt x="424" y="760" on="0"/>
      </contour>
    </TTGlyph>
    <TTGlyph name="ci.tam" xMin="41" yMin="-9" xMax="839" yMax="790">
      <contour>
        <pt x="428" y="509" on="1"/>
        <pt x="402" y="527" on="0"/>
        <pt x="372" y="583" on="0"/>
        <pt x="372" y="617" on="1"/>
        <pt x="372" y="654" on="0"/>
        <pt x="402" y="717" on="0"/>
        <pt x="459" y="764" on="0"/>
        <pt x="540" y="790" on="0"/>
        <pt x="590" y="790" on="1"/>
        <pt x="710" y="790" on="0"/>
        <pt x="839" y="640" on="0"/>
        <pt x="839" y="507" on="1"/>
        <pt x="839" y="0" on="1"/>
        <pt x="737" y="0" on="1"/>
        <pt x="737" y="507" on="1"/>
        <pt x="737" y="595" on="0"/>
        <pt x="669" y="692" on="0"/>
        <pt x="598" y="692" on="1"/>
        <pt x="570" y="692" on="0"/>
        <pt x="526" y="673" on="0"/>
        <pt x="496" y="640" on="0"/>
        <pt x="481" y="597" on="0"/>
        <pt x="481" y="573" on="1"/>
        <pt x="481" y="553" on="0"/>
        <pt x="488" y="523" on="0"/>
        <pt x="495" y="509" on="1"/>
        <pt x="647" y="509" on="1"/>
        <pt x="647" y="416" on="1"/>
        <pt x="509" y="416" on="1"/>
        <pt x="509" y="285" on="1"/>
        <pt x="624" y="285" on="1"/>
        <pt x="624" y="219" on="1"/>
        <pt x="509" y="219" on="1"/>
        <pt x="509" y="177" on="1"/>
        <pt x="509" y="81" on="0"/>
        <pt x="404" y="-9" on="0"/>
        <pt x="316" y="-9" on="1"/>
        <pt x="253" y="-9" on="0"/>
        <pt x="151" y="25" on="0"/>
        <pt x="79" y="80" on="0"/>
        <pt x="41" y="150" on="0"/>
        <pt x="41" y="185" on="1"/>
        <pt x="41" y="233" on="0"/>
        <pt x="102" y="285" on="0"/>
        <pt x="156" y="285" on="1"/>
        <pt x="163" y="285" on="1"/>
        <pt x="163" y="509" on="1"/>
      </contour>
      <contour>
        <pt x="205" y="219" on="1"/>
        <pt x="149" y="219" on="0"/>
        <pt x="149" y="173" on="1"/>
        <pt x="149" y="153" on="0"/>
        <pt x="172" y="118" on="0"/>
        <pt x="213" y="92" on="0"/>
        <pt x="271" y="77" on="0"/>
        <pt x="306" y="77" on="1"/>
        <pt x="407" y="77" on="0"/>
        <pt x="407" y="178" on="1"/>
        <pt x="407" y="219" on="1"/>
      </contour>
      <contour>
        <pt x="258" y="285" on="1"/>
        <pt x="407" y="285" on="1"/>
        <pt x="407" y="416" on="1"/>
        <pt x="258" y="416" on="1"/>
      </contour>
    </TTGlyph>
    <TTGlyph name="cii.tam" xMin="40" yMin="-9" xMax="753" yMax="845">
      <contour>
        <pt x="538" y="845" on="1"/>
        <pt x="587" y="845" on="0"/>
        <pt x="667" y="819" on="0"/>
        <pt x="723" y="775" on="0"/>
        <pt x="753" y="718" on="0"/>
        <pt x="753" y="688" on="1"/>
        <pt x="753" y="634" on="0"/>
        <pt x="676" y="567" on="0"/>
        <pt x="607" y="567" on="1"/>
        <pt x="575" y="567" on="0"/>
        <pt x="527" y="584" on="0"/>
        <pt x="495" y="613" on="0"/>
        <pt x="480" y="651" on="0"/>
        <pt x="480" y="672" on="1"/>
        <pt x="480" y="725" on="0"/>
        <pt x="522" y="765" on="1"/>
        <pt x="472" y="757" on="0"/>
        <pt x="406" y="689" on="0"/>
        <pt x="406" y="636" on="1"/>
        <pt x="406" y="595" on="0"/>
        <pt x="455" y="531" on="0"/>
        <pt x="502" y="509" on="1"/>
        <pt x="646" y="509" on="1"/>
        <pt x="646" y="416" on="1"/>
        <pt x="508" y="416" on="1"/>
        <pt x="508" y="285" on="1"/>
        <pt x="623" y="285" on="1"/>
        <pt x="623" y="219" on="1"/>
        <pt x="508" y="219" on="1"/>
        <pt x="508" y="177" on="1"/>
        <pt x="508" y="81" on="0"/>
        <pt x="403" y="-9" on="0"/>
        <pt x="315" y="-9" on="1"/>
        <pt x="252" y="-9" on="0"/>
        <pt x="150" y="25" on="0"/>
        <pt x="78" y="80" on="0"/>
        <pt x="40" y="150" on="0"/>
        <pt x="40" y="185" on="1"/>
        <pt x="40" y="233" on="0"/>
        <pt x="101" y="285" on="0"/>
        <pt x="155" y="285" on="1"/>
        <pt x="162" y="285" on="1"/>
        <pt x="162" y="509" on="1"/>
        <pt x="421" y="509" on="1"/>
        <pt x="369" y="529" on="0"/>
        <pt x="310" y="609" on="0"/>
        <pt x="310" y="660" on="1"/>
        <pt x="310" y="700" on="0"/>
        <pt x="346" y="767" on="0"/>
        <pt x="407" y="817" on="0"/>
        <pt x="490" y="845" on="0"/>
      </contour>
      <contour>
        <pt x="204" y="219" on="1"/>
        <pt x="148" y="219" on="0"/>
        <pt x="148" y="173" on="1"/>
        <pt x="148" y="153" on="0"/>
        <pt x="171" y="118" on="0"/>
        <pt x="212" y="92" on="0"/>
        <pt x="270" y="77" on="0"/>
        <pt x="305" y="77" on="1"/>
        <pt x="406" y="77" on="0"/>
        <pt x="406" y="178" on="1"/>
        <pt x="406" y="219" on="1"/>
      </contour>
      <contour>
        <pt x="257" y="285" on="1"/>
        <pt x="406" y="285" on="1"/>
        <pt x="406" y="416" on="1"/>
        <pt x="257" y="416" on="1"/>
      </contour>
      <contour>
        <pt x="568" y="769" on="1"/>
        <pt x="557" y="752" on="0"/>
        <pt x="541" y="713" on="0"/>
        <pt x="541" y="695" on="1"/>
        <pt x="541" y="669" on="0"/>
        <pt x="570" y="636" on="0"/>
        <pt x="596" y="636" on="1"/>
        <pt x="623" y="636" on="0"/>
        <pt x="654" y="669" on="0"/>
        <pt x="654" y="692" on="1"/>
        <pt x="654" y="724" on="0"/>
        <pt x="601" y="763" on="0"/>
      </contour>
    </TTGlyph>
    <TTGlyph name="colon" xMin="51" yMin="-9" xMax="199" yMax="491">
      <contour>
        <pt x="123" y="491" on="1"/>
        <pt x="155" y="491" on="0"/>
        <pt x="199" y="449" on="0"/>
        <pt x="199" y="417" on="1"/>
        <pt x="199" y="385" on="0"/>
        <pt x="155" y="345" on="0"/>
        <pt x="123" y="345" on="1"/>
        <pt x="91" y="345" on="0"/>
        <pt x="51" y="385" on="0"/>
        <pt x="51" y="417" on="1"/>
        <pt x="51" y="449" on="0"/>
        <pt x="91" y="491" on="0"/>
      </contour>
      <contour>
        <pt x="123" y="138" on="1"/>
        <pt x="155" y="138" on="0"/>
        <pt x="199" y="96" on="0"/>
        <pt x="199" y="64" on="1"/>
        <pt x="199" y="32" on="0"/>
        <pt x="155" y="-9" on="0"/>
        <pt x="123" y="-9" on="1"/>
        <pt x="91" y="-9" on="0"/>
        <pt x="51" y="32" on="0"/>
        <pt x="51" y="64" on="1"/>
        <pt x="51" y="96" on="0"/>
        <pt x="91" y="138" on="0"/>
      </contour>
    </TTGlyph>
    <TTGlyph name="comma" xMin="49" yMin="-133" xMax="228" yMax="127">
      <contour>
        <pt x="144" y="127" on="1"/>
        <pt x="183" y="127" on="0"/>
        <pt x="228" y="69" on="0"/>
        <pt x="228" y="26" on="1"/>
        <pt x="228" y="5" on="0"/>
        <pt x="214" y="-41" on="0"/>
        <pt x="188" y="-83" on="0"/>
        <pt x="149" y="-120" on="0"/>
        <pt x="125" y="-133" on="1"/>
        <pt x="49" y="-92" on="1"/>
        <pt x="80" y="-75" on="0"/>
        <pt x="126" y="-33" on="0"/>
        <pt x="134" y="-5" on="1"/>
        <pt x="108" y="-1" on="0"/>
        <pt x="72" y="32" on="0"/>
        <pt x="72" y="60" on="1"/>
        <pt x="72" y="89" on="0"/>
        <pt x="112" y="127" on="0"/>
      </contour>
    </TTGlyph>
    <TTGlyph name="cu.tam" xMin="40" yMin="-9" xMax="805" yMax="509">
      <contour>
        <pt x="646" y="509" on="1"/>
        <pt x="646" y="416" on="1"/>
        <pt x="508" y="416" on="1"/>
        <pt x="508" y="285" on="1"/>
        <pt x="805" y="285" on="1"/>
        <pt x="805" y="219" on="1"/>
        <pt x="720" y="219" on="1"/>
        <pt x="720" y="0" on="1"/>
        <pt x="618" y="0" on="1"/>
        <pt x="618" y="219" on="1"/>
        <pt x="508" y="219" on="1"/>
        <pt x="508" y="177" on="1"/>
        <pt x="508" y="81" on="0"/>
        <pt x="403" y="-9" on="0"/>
        <pt x="315" y="-9" on="1"/>
        <pt x="252" y="-9" on="0"/>
        <pt x="150" y="25" on="0"/>
        <pt x="78" y="80" on="0"/>
        <pt x="40" y="150" on="0"/>
        <pt x="40" y="185" on="1"/>
        <pt x="40" y="233" on="0"/>
        <pt x="101" y="285" on="0"/>
        <pt x="155" y="285" on="1"/>
        <pt x="162" y="285" on="1"/>
        <pt x="162" y="509" on="1"/>
      </contour>
      <contour>
        <pt x="204" y="219" on="1"/>
        <pt x="148" y="219" on="0"/>
        <pt x="148" y="173" on="1"/>
        <pt x="148" y="153" on="0"/>
        <pt x="171" y="118" on="0"/>
        <pt x="212" y="92" on="0"/>
        <pt x="270" y="77" on="0"/>
        <pt x="305" y="77" on="1"/>
        <pt x="406" y="77" on="0"/>
        <pt x="406" y="178" on="1"/>
        <pt x="406" y="219" on="1"/>
      </contour>
      <contour>
        <pt x="257" y="285" on="1"/>
        <pt x="406" y="285" on="1"/>
        <pt x="406" y="416" on="1"/>
        <pt x="257" y="416" on="1"/>
      </contour>
    </TTGlyph>
    <TTGlyph name="cuu.tam" xMin="59" yMin="-345" xMax="1239" yMax="518">
      <contour>
        <pt x="881" y="509" on="1"/>
        <pt x="881" y="416" on="1"/>
        <pt x="742" y="416" on="1"/>
        <pt x="742" y="285" on="1"/>
        <pt x="1065" y="285" on="1"/>
        <pt x="1065" y="219" on="1"/>
        <pt x="958" y="219" on="1"/>
        <pt x="958" y="41" on="1"/>
        <pt x="976" y="83" on="0"/>
        <pt x="1044" y="126" on="0"/>
        <pt x="1089" y="126" on="1"/>
        <pt x="1123" y="126" on="0"/>
        <pt x="1179" y="101" on="0"/>
        <pt x="1218" y="57" on="0"/>
        <pt x="1239" y="-3" on="0"/>
        <pt x="1239" y="-38" on="1"/>
        <pt x="1239" y="-97" on="0"/>
        <pt x="1188" y="-208" on="0"/>
        <pt x="1073" y="-294" on="0"/>
        <pt x="890" y="-345" on="0"/>
        <pt x="758" y="-345" on="1"/>
        <pt x="610" y="-345" on="0"/>
        <pt x="355" y="-269" on="0"/>
        <pt x="167" y="-131" on="0"/>
        <pt x="59" y="60" on="0"/>
        <pt x="59" y="174" on="1"/>
        <pt x="59" y="262" on="0"/>
        <pt x="101" y="426" on="0"/>
        <pt x="141" y="518" on="1"/>
        <pt x="238" y="489" on="1"/>
        <pt x="200" y="400" on="0"/>
        <pt x="165" y="251" on="0"/>
        <pt x="165" y="174" on="1"/>
        <pt x="165" y="70" on="0"/>
        <pt x="261" y="-87" on="0"/>
        <pt x="425" y="-193" on="0"/>
        <pt x="639" y="-247" on="0"/>
        <pt x="758" y="-247" on="1"/>
        <pt x="851" y="-247" on="0"/>
        <pt x="991" y="-216" on="0"/>
        <pt x="1085" y="-162" on="0"/>
        <pt x="1132" y="-88" on="0"/>
        <pt x="1132" y="-45" on="1"/>
        <pt x="1132" y="-7" on="0"/>
        <pt x="1096" y="36" on="0"/>
        <pt x="1065" y="36" on="1"/>
        <pt x="1043" y="36" on="0"/>
        <pt x="1004" y="15" on="0"/>
        <pt x="975" y="-21" on="0"/>
        <pt x="958" y="-68" on="0"/>
        <pt x="958" y="-94" on="1"/>
        <pt x="855" y="-94" on="1"/>
        <pt x="855" y="219" on="1"/>
        <pt x="742" y="219" on="1"/>
        <pt x="742" y="177" on="1"/>
        <pt x="742" y="129" on="0"/>
        <pt x="714" y="59" on="0"/>
        <pt x="664" y="13" on="0"/>
        <pt x="593" y="-9" on="0"/>
        <pt x="550" y="-9" on="1"/>
        <pt x="488" y="-9" on="0"/>
        <pt x="387" y="25" on="0"/>
        <pt x="315" y="81" on="0"/>
        <pt x="275" y="150" on="0"/>
        <pt x="275" y="186" on="1"/>
        <pt x="275" y="234" on="0"/>
        <pt x="337" y="285" on="0"/>
        <pt x="389" y="285" on="1"/>
        <pt x="396" y="285" on="1"/>
        <pt x="396" y="509" on="1"/>
      </contour>
      <contour>
        <pt x="438" y="219" on="1"/>
        <pt x="381" y="219" on="0"/>
        <pt x="381" y="173" on="1"/>
        <pt x="381" y="153" on="0"/>
        <pt x="404" y="118" on="0"/>
        <pt x="446" y="92" on="0"/>
        <pt x="504" y="77" on="0"/>
        <pt x="539" y="77" on="1"/>
        <pt x="640" y="77" on="0"/>
        <pt x="640" y="178" on="1"/>
        <pt x="640" y="219" on="1"/>
      </contour>
      <contour>
        <pt x="491" y="285" on="1"/>
        <pt x="640" y="285" on="1"/>
        <pt x="640" y="416" on="1"/>
        <pt x="491" y="416" on="1"/>
      </contour>
    </TTGlyph>
    <TTGlyph name="cvir.tam" xMin="40" yMin="-9" xMax="646" yMax="743">
      <contour>
        <pt x="257" y="285" on="1"/>
        <pt x="406" y="285" on="1"/>
        <pt x="406" y="416" on="1"/>
        <pt x="257" y="416" on="1"/>
      </contour>
      <contour>
        <pt x="204" y="219" on="1"/>
        <pt x="148" y="219" on="0"/>
        <pt x="148" y="173" on="1"/>
        <pt x="148" y="153" on="0"/>
        <pt x="171" y="118" on="0"/>
        <pt x="212" y="92" on="0"/>
        <pt x="270" y="77" on="0"/>
        <pt x="305" y="77" on="1"/>
        <pt x="406" y="77" on="0"/>
        <pt x="406" y="178" on="1"/>
        <pt x="406" y="219" on="1"/>
      </contour>
      <contour>
        <pt x="646" y="509" on="1"/>
        <pt x="646" y="416" on="1"/>
        <pt x="508" y="416" on="1"/>
        <pt x="508" y="285" on="1"/>
        <pt x="623" y="285" on="1"/>
        <pt x="623" y="219" on="1"/>
        <pt x="508" y="219" on="1"/>
        <pt x="508" y="177" on="1"/>
        <pt x="508" y="81" on="0"/>
        <pt x="403" y="-9" on="0"/>
        <pt x="315" y="-9" on="1"/>
        <pt x="252" y="-9" on="0"/>
        <pt x="150" y="25" on="0"/>
        <pt x="78" y="80" on="0"/>
        <pt x="40" y="150" on="0"/>
        <pt x="40" y="185" on="1"/>
        <pt x="40" y="233" on="0"/>
        <pt x="101" y="285" on="0"/>
        <pt x="155" y="285" on="1"/>
        <pt x="162" y="285" on="1"/>
        <pt x="162" y="509" on="1"/>
      </contour>
      <contour>
        <pt x="337" y="677" on="1"/>
        <pt x="337" y="706" on="0"/>
        <pt x="374" y="743" on="0"/>
        <pt x="400" y="743" on="1"/>
        <pt x="428" y="743" on="0"/>
        <pt x="466" y="706" on="0"/>
        <pt x="466" y="677" on="1"/>
        <pt x="466" y="651" on="0"/>
        <pt x="428" y="614" on="0"/>
        <pt x="400" y="614" on="1"/>
        <pt x="374" y="614" on="0"/>
        <pt x="337" y="651" on="0"/>
      </contour>
    </TTGlyph>
    <TTGlyph name="dollar" xMin="77" yMin="-107" xMax="612" yMax="750">
      <contour>
        <pt x="448" y="344" on="1"/>
        <pt x="525" y="321" on="0"/>
        <pt x="612" y="243" on="0"/>
        <pt x="612" y="174" on="1"/>
        <pt x="612" y="138" on="0"/>
        <pt x="580" y="76" on="0"/>
        <pt x="521" y="28" on="0"/>
        <pt x="437" y="-3" on="0"/>
        <pt x="385" y="-7" on="1"/>
        <pt x="385" y="-107" on="1"/>
        <pt x="302" y="-107" on="1"/>
        <pt x="302" y="-7" on="1"/>
        <pt x="257" y="-3" on="0"/>
        <pt x="175" y="27" on="0"/>
        <pt x="114" y="80" on="0"/>
        <pt x="77" y="157" on="0"/>
        <pt x="77" y="209" on="1"/>
        <pt x="179" y="209" on="1"/>
        <pt x="181" y="158" on="0"/>
        <pt x="240" y="86" on="0"/>
        <pt x="302" y="75" on="1"/>
        <pt x="302" y="292" on="1"/>
        <pt x="252" y="310" on="1"/>
        <pt x="168" y="338" on="0"/>
        <pt x="91" y="420" on="0"/>
        <pt x="91" y="484" on="1"/>
        <pt x="91" y="521" on="0"/>
        <pt x="123" y="580" on="0"/>
        <pt x="179" y="623" on="0"/>
        <pt x="257" y="649" on="0"/>
        <pt x="302" y="654" on="1"/>
        <pt x="302" y="750" on="1"/>
        <pt x="385" y="750" on="1"/>
        <pt x="385" y="655" on="1"/>
        <pt x="425" y="651" on="0"/>
        <pt x="494" y="625" on="0"/>
        <pt x="548" y="578" on="0"/>
        <pt x="584" y="511" on="0"/>
        <pt x="589" y="466" on="1"/>
        <pt x="486" y="466" on="1"/>
        <pt x="480" y="509" on="0"/>
        <pt x="430" y="564" on="0"/>
        <pt x="385" y="572" on="1"/>
        <pt x="385" y="363" on="1"/>
      </contour>
      <contour>
        <pt x="503" y="170" on="1"/>
        <pt x="503" y="229" on="0"/>
        <pt x="425" y="253" on="1"/>
        <pt x="385" y="265" on="1"/>
        <pt x="385" y="74" on="1"/>
        <pt x="442" y="82" on="0"/>
        <pt x="503" y="137" on="0"/>
      </contour>
      <contour>
        <pt x="199" y="483" on="1"/>
        <pt x="199" y="450" on="0"/>
        <pt x="239" y="413" on="0"/>
        <pt x="278" y="399" on="1"/>
        <pt x="302" y="391" on="1"/>
        <pt x="302" y="572" on="1"/>
        <pt x="251" y="564" on="0"/>
        <pt x="199" y="515" on="0"/>
      </contour>
    </TTGlyph>
    <TTGlyph name="e.tam" xMin="52" yMin="-9" xMax="808" yMax="509">
      <contour>
        <pt x="808" y="509" on="1"/>
        <pt x="808" y="416" on="1"/>
        <pt x="701" y="416" on="1"/>
        <pt x="701" y="0" on="1"/>
        <pt x="598" y="0" on="1"/>
        <pt x="598" y="416" on="1"/>
        <pt x="439" y="416" on="1"/>
        <pt x="382" y="416" on="0"/>
        <pt x="280" y="386" on="0"/>
        <pt x="204" y="331" on="0"/>
        <pt x="160" y="253" on="0"/>
        <pt x="160" y="206" on="1"/>
        <pt x="160" y="155" on="0"/>
        <pt x="197" y="97" on="0"/>
        <pt x="227" y="83" on="1"/>
        <pt x="221" y="107" on="0"/>
        <pt x="220" y="159" on="0"/>
        <pt x="226" y="184" on="1"/>
        <pt x="232" y="209" on="0"/>
        <pt x="257" y="253" on="0"/>
        <pt x="295" y="286" on="0"/>
        <pt x="345" y="305" on="0"/>
        <pt x="376" y="305" on="1"/>
        <pt x="410" y="305" on="0"/>
        <pt x="464" y="283" on="0"/>
        <pt x="502" y="244" on="0"/>
        <pt x="522" y="190" on="0"/>
        <pt x="522" y="159" on="1"/>
        <pt x="522" y="123" on="0"/>
        <pt x="491" y="61" on="0"/>
        <pt x="435" y="16" on="0"/>
        <pt x="357" y="-9" on="0"/>
        <pt x="311" y="-9" on="1"/>
        <pt x="262" y="-9" on="0"/>
        <pt x="169" y="25" on="0"/>
        <pt x="96" y="86" on="0"/>
        <pt x="52" y="171" on="0"/>
        <pt x="52" y="223" on="1"/>
        <pt x="52" y="284" on="0"/>
        <pt x="108" y="388" on="0"/>
        <pt x="210" y="465" on="0"/>
        <pt x="353" y="509" on="0"/>
        <pt x="439" y="509" on="1"/>
      </contour>
      <contour>
        <pt x="360" y="215" on="1"/>
        <pt x="327" y="215" on="0"/>
        <pt x="287" y="168" on="0"/>
        <pt x="282" y="137" on="1"/>
        <pt x="280" y="120" on="0"/>
        <pt x="280" y="88" on="0"/>
        <pt x="284" y="73" on="1"/>
        <pt x="292" y="71" on="0"/>
        <pt x="308" y="71" on="0"/>
        <pt x="316" y="71" on="1"/>
        <pt x="332" y="71" on="0"/>
        <pt x="367" y="82" on="0"/>
        <pt x="396" y="103" on="0"/>
        <pt x="415" y="136" on="0"/>
        <pt x="415" y="157" on="1"/>
        <pt x="415" y="183" on="0"/>
        <pt x="387" y="215" on="0"/>
      </contour>
    </TTGlyph>
    <TTGlyph name="ee.tam" xMin="52" yMin="-258" xMax="808" yMax="509">
      <contour>
        <pt x="808" y="509" on="1"/>
        <pt x="808" y="416" on="1"/>
        <pt x="701" y="416" on="1"/>
        <pt x="701" y="-65" on="1"/>
        <pt x="450" y="-258" on="1"/>
        <pt x="359" y="-205" on="1"/>
        <pt x="598" y="-19" on="1"/>
        <pt x="598" y="416" on="1"/>
        <pt x="439" y="416" on="1"/>
        <pt x="382" y="416" on="0"/>
        <pt x="280" y="386" on="0"/>
        <pt x="204" y="331" on="0"/>
        <pt x="160" y="253" on="0"/>
        <pt x="160" y="206" on="1"/>
        <pt x="160" y="155" on="0"/>
        <pt x="197" y="97" on="0"/>
        <pt x="227" y="83" on="1"/>
        <pt x="221" y="107" on="0"/>
        <pt x="220" y="159" on="0"/>
        <pt x="226" y="184" on="1"/>
        <pt x="232" y="209" on="0"/>
        <pt x="257" y="253" on="0"/>
        <pt x="295" y="286" on="0"/>
        <pt x="345" y="305" on="0"/>
        <pt x="376" y="305" on="1"/>
        <pt x="410" y="305" on="0"/>
        <pt x="464" y="283" on="0"/>
        <pt x="502" y="244" on="0"/>
        <pt x="522" y="190" on="0"/>
        <pt x="522" y="159" on="1"/>
        <pt x="522" y="123" on="0"/>
        <pt x="491" y="61" on="0"/>
        <pt x="435" y="16" on="0"/>
        <pt x="357" y="-9" on="0"/>
        <pt x="311" y="-9" on="1"/>
        <pt x="262" y="-9" on="0"/>
        <pt x="169" y="25" on="0"/>
        <pt x="96" y="86" on="0"/>
        <pt x="52" y="171" on="0"/>
        <pt x="52" y="223" on="1"/>
        <pt x="52" y="284" on="0"/>
        <pt x="108" y="388" on="0"/>
        <pt x="210" y="465" on="0"/>
        <pt x="353" y="509" on="0"/>
        <pt x="439" y="509" on="1"/>
      </contour>
      <contour>
        <pt x="360" y="215" on="1"/>
        <pt x="327" y="215" on="0"/>
        <pt x="287" y="168" on="0"/>
        <pt x="282" y="137" on="1"/>
        <pt x="280" y="120" on="0"/>
        <pt x="280" y="88" on="0"/>
        <pt x="284" y="73" on="1"/>
        <pt x="292" y="71" on="0"/>
        <pt x="308" y="71" on="0"/>
        <pt x="316" y="71" on="1"/>
        <pt x="332" y="71" on="0"/>
        <pt x="367" y="82" on="0"/>
        <pt x="396" y="103" on="0"/>
        <pt x="415" y="136" on="0"/>
        <pt x="415" y="157" on="1"/>
        <pt x="415" y="183" on="0"/>
        <pt x="387" y="215" on="0"/>
      </contour>
    </TTGlyph>
    <TTGlyph name="eematra.tam" xMin="41" yMin="-9" xMax="612" yMax="790">
      <contour>
        <pt x="385" y="790" on="1"/>
        <pt x="437" y="790" on="0"/>
        <pt x="521" y="762" on="0"/>
        <pt x="580" y="715" on="0"/>
        <pt x="612" y="654" on="0"/>
        <pt x="612" y="621" on="1"/>
        <pt x="612" y="563" on="0"/>
        <pt x="531" y="492" on="0"/>
        <pt x="459" y="492" on="1"/>
        <pt x="425" y="492" on="0"/>
        <pt x="374" y="511" on="0"/>
        <pt x="339" y="542" on="0"/>
        <pt x="321" y="583" on="0"/>
        <pt x="321" y="606" on="1"/>
        <pt x="321" y="636" on="0"/>
        <pt x="349" y="692" on="0"/>
        <pt x="371" y="714" on="1"/>
        <pt x="330" y="707" on="0"/>
        <pt x="251" y="653" on="0"/>
        <pt x="189" y="567" on="0"/>
        <pt x="151" y="454" on="0"/>
        <pt x="151" y="389" on="1"/>
        <pt x="151" y="324" on="0"/>
        <pt x="176" y="227" on="0"/>
        <pt x="219" y="155" on="0"/>
        <pt x="275" y="107" on="0"/>
        <pt x="305" y="92" on="1"/>
        <pt x="295" y="143" on="0"/>
        <pt x="309" y="195" on="1"/>
        <pt x="323" y="246" on="0"/>
        <pt x="402" y="311" on="0"/>
        <pt x="465" y="311" on="1"/>
        <pt x="498" y="311" on="0"/>
        <pt x="552" y="287" on="0"/>
        <pt x="591" y="246" on="0"/>
        <pt x="612" y="190" on="0"/>
        <pt x="612" y="159" on="1"/>
        <pt x="612" y="123" on="0"/>
        <pt x="581" y="61" on="0"/>
        <pt x="524" y="16" on="0"/>
        <pt x="446" y="-9" on="0"/>
        <pt x="400" y="-9" on="1"/>
        <pt x="338" y="-9" on="0"/>
        <pt x="211" y="43" on="0"/>
        <pt x="107" y="143" on="0"/>
        <pt x="41" y="292" on="0"/>
        <pt x="41" y="389" on="1"/>
        <pt x="41" y="476" on="0"/>
        <pt x="95" y="623" on="0"/>
        <pt x="189" y="730" on="0"/>
        <pt x="314" y="790" on="0"/>
      </contour>
      <contour>
        <pt x="360" y="141" on="1"/>
        <pt x="358" y="124" on="0"/>
        <pt x="358" y="91" on="0"/>
        <pt x="361" y="76" on="1"/>
        <pt x="379" y="71" on="0"/>
        <pt x="406" y="71" on="1"/>
        <pt x="424" y="71" on="0"/>
        <pt x="459" y="83" on="0"/>
        <pt x="488" y="105" on="0"/>
        <pt x="505" y="138" on="0"/>
        <pt x="505" y="159" on="1"/>
        <pt x="505" y="188" on="0"/>
        <pt x="473" y="222" on="0"/>
        <pt x="446" y="222" on="1"/>
        <pt x="411" y="222" on="0"/>
        <pt x="366" y="173" on="0"/>
      </contour>
      <contour>
        <pt x="512" y="624" on="1"/>
        <pt x="512" y="643" on="0"/>
        <pt x="495" y="673" on="0"/>
        <pt x="468" y="695" on="0"/>
        <pt x="433" y="710" on="0"/>
        <pt x="414" y="713" on="1"/>
        <pt x="400" y="695" on="0"/>
        <pt x="384" y="649" on="0"/>
        <pt x="384" y="629" on="1"/>
        <pt x="384" y="599" on="0"/>
        <pt x="419" y="561" on="0"/>
        <pt x="449" y="561" on="1"/>
        <pt x="477" y="561" on="0"/>
        <pt x="512" y="595" on="0"/>
      </contour>
    </TTGlyph>
    <TTGlyph name="eight" xMin="50" yMin="-13" xMax="588" yMax="656">
      <contour>
        <pt x="319" y="656" on="1"/>
        <pt x="371" y="656" on="0"/>
        <pt x="461" y="629" on="0"/>
        <pt x="527" y="580" on="0"/>
        <pt x="565" y="513" on="0"/>
        <pt x="565" y="473" on="1"/>
        <pt x="565" y="422" on="0"/>
        <pt x="496" y="345" on="0"/>
        <pt x="431" y="334" on="1"/>
        <pt x="442" y="330" on="1"/>
        <pt x="512" y="304" on="0"/>
        <pt x="588" y="232" on="0"/>
        <pt x="588" y="168" on="1"/>
        <pt x="588" y="128" on="0"/>
        <pt x="552" y="62" on="0"/>
        <pt x="483" y="14" on="0"/>
        <pt x="383" y="-13" on="0"/>
        <pt x="319" y="-13" on="1"/>
        <pt x="258" y="-13" on="0"/>
        <pt x="159" y="15" on="0"/>
        <pt x="88" y="65" on="0"/>
        <pt x="50" y="133" on="0"/>
        <pt x="50" y="173" on="1"/>
        <pt x="50" y="235" on="0"/>
        <pt x="134" y="310" on="0"/>
        <pt x="201" y="319" on="1"/>
        <pt x="178" y="329" on="0"/>
        <pt x="132" y="359" on="0"/>
        <pt x="95" y="399" on="0"/>
        <pt x="72" y="450" on="0"/>
        <pt x="72" y="482" on="1"/>
        <pt x="72" y="562" on="0"/>
        <pt x="201" y="656" on="0"/>
      </contour>
      <contour>
        <pt x="295" y="282" on="1"/>
        <pt x="236" y="277" on="0"/>
        <pt x="162" y="221" on="0"/>
        <pt x="162" y="184" on="1"/>
        <pt x="162" y="161" on="0"/>
        <pt x="187" y="124" on="0"/>
        <pt x="229" y="99" on="0"/>
        <pt x="286" y="86" on="0"/>
        <pt x="319" y="86" on="1"/>
        <pt x="397" y="86" on="0"/>
        <pt x="477" y="128" on="0"/>
        <pt x="477" y="163" on="1"/>
        <pt x="477" y="190" on="0"/>
        <pt x="437" y="228" on="0"/>
        <pt x="402" y="241" on="1"/>
      </contour>
      <contour>
        <pt x="184" y="477" on="1"/>
        <pt x="184" y="450" on="0"/>
        <pt x="220" y="417" on="0"/>
        <pt x="255" y="403" on="1"/>
        <pt x="329" y="374" on="1"/>
        <pt x="380" y="376" on="0"/>
        <pt x="453" y="425" on="0"/>
        <pt x="453" y="466" on="1"/>
        <pt x="453" y="508" on="0"/>
        <pt x="379" y="558" on="0"/>
        <pt x="319" y="558" on="1"/>
        <pt x="290" y="558" on="0"/>
        <pt x="241" y="546" on="0"/>
        <pt x="205" y="524" on="0"/>
        <pt x="184" y="494" on="0"/>
      </contour>
    </TTGlyph>
    <TTGlyph name="eighttamil" xMin="28" yMin="-9" xMax="826" yMax="518">
      <contour>
        <pt x="361" y="518" on="1"/>
        <pt x="424" y="518" on="0"/>
        <pt x="521" y="477" on="0"/>
        <pt x="588" y="409" on="0"/>
        <pt x="624" y="323" on="0"/>
        <pt x="627" y="278" on="1"/>
        <pt x="723" y="278" on="1"/>
        <pt x="723" y="511" on="1"/>
        <pt x="826" y="511" on="1"/>
        <pt x="826" y="0" on="1"/>
        <pt x="723" y="0" on="1"/>
        <pt x="723" y="211" on="1"/>
        <pt x="624" y="211" on="1"/>
        <pt x="617" y="169" on="0"/>
        <pt x="577" y="89" on="0"/>
        <pt x="505" y="28" on="0"/>
        <pt x="399" y="-9" on="0"/>
        <pt x="326" y="-9" on="1"/>
        <pt x="257" y="-9" on="0"/>
        <pt x="147" y="23" on="0"/>
        <pt x="69" y="76" on="0"/>
        <pt x="28" y="145" on="0"/>
        <pt x="28" y="182" on="1"/>
        <pt x="28" y="232" on="0"/>
        <pt x="96" y="278" on="0"/>
        <pt x="153" y="278" on="1"/>
        <pt x="213" y="278" on="1"/>
        <pt x="191" y="294" on="0"/>
        <pt x="166" y="341" on="0"/>
        <pt x="166" y="370" on="1"/>
        <pt x="166" y="403" on="0"/>
        <pt x="195" y="457" on="0"/>
        <pt x="246" y="496" on="0"/>
        <pt x="318" y="518" on="0"/>
      </contour>
      <contour>
        <pt x="326" y="85" on="1"/>
        <pt x="413" y="85" on="0"/>
        <pt x="503" y="155" on="0"/>
        <pt x="516" y="211" on="1"/>
        <pt x="186" y="211" on="1"/>
        <pt x="160" y="211" on="0"/>
        <pt x="137" y="190" on="0"/>
        <pt x="137" y="172" on="1"/>
        <pt x="137" y="156" on="0"/>
        <pt x="159" y="125" on="0"/>
        <pt x="206" y="100" on="0"/>
        <pt x="277" y="85" on="0"/>
      </contour>
      <contour>
        <pt x="271" y="349" on="1"/>
        <pt x="271" y="322" on="0"/>
        <pt x="309" y="280" on="0"/>
        <pt x="343" y="278" on="1"/>
        <pt x="520" y="278" on="1"/>
        <pt x="517" y="309" on="0"/>
        <pt x="493" y="363" on="0"/>
        <pt x="454" y="402" on="0"/>
        <pt x="402" y="424" on="0"/>
        <pt x="371" y="424" on="1"/>
        <pt x="325" y="424" on="0"/>
        <pt x="271" y="383" on="0"/>
      </contour>
    </TTGlyph>
    <TTGlyph name="ematra.tam" xMin="55" yMin="-9" xMax="730" yMax="790">
      <contour>
        <pt x="497" y="790" on="1"/>
        <pt x="554" y="790" on="0"/>
        <pt x="642" y="755" on="0"/>
        <pt x="700" y="689" on="0"/>
        <pt x="730" y="595" on="0"/>
        <pt x="730" y="537" on="1"/>
        <pt x="730" y="0" on="1"/>
        <pt x="628" y="0" on="1"/>
        <pt x="628" y="538" on="1"/>
        <pt x="628" y="621" on="0"/>
        <pt x="557" y="692" on="0"/>
        <pt x="497" y="692" on="1"/>
        <pt x="441" y="692" on="0"/>
        <pt x="323" y="628" on="0"/>
        <pt x="225" y="518" on="0"/>
        <pt x="162" y="369" on="0"/>
        <pt x="162" y="284" on="1"/>
        <pt x="162" y="204" on="0"/>
        <pt x="208" y="106" on="0"/>
        <pt x="243" y="84" on="1"/>
        <pt x="238" y="107" on="0"/>
        <pt x="237" y="159" on="0"/>
        <pt x="244" y="184" on="1"/>
        <pt x="250" y="209" on="0"/>
        <pt x="274" y="253" on="0"/>
        <pt x="312" y="286" on="0"/>
        <pt x="362" y="305" on="0"/>
        <pt x="393" y="305" on="1"/>
        <pt x="427" y="305" on="0"/>
        <pt x="482" y="283" on="0"/>
        <pt x="520" y="244" on="0"/>
        <pt x="540" y="190" on="0"/>
        <pt x="540" y="159" on="1"/>
        <pt x="540" y="123" on="0"/>
        <pt x="509" y="61" on="0"/>
        <pt x="453" y="16" on="0"/>
        <pt x="375" y="-9" on="0"/>
        <pt x="328" y="-9" on="1"/>
        <pt x="277" y="-9" on="0"/>
        <pt x="178" y="33" on="0"/>
        <pt x="102" y="115" on="0"/>
        <pt x="55" y="234" on="0"/>
        <pt x="55" y="312" on="1"/>
        <pt x="55" y="411" on="0"/>
        <pt x="124" y="585" on="0"/>
        <pt x="244" y="715" on="0"/>
        <pt x="405" y="790" on="0"/>
      </contour>
      <contour>
        <pt x="377" y="215" on="1"/>
        <pt x="344" y="215" on="0"/>
        <pt x="304" y="168" on="0"/>
        <pt x="299" y="137" on="1"/>
        <pt x="294" y="103" on="0"/>
        <pt x="302" y="73" on="1"/>
        <pt x="309" y="71" on="0"/>
        <pt x="325" y="71" on="0"/>
        <pt x="333" y="71" on="1"/>
        <pt x="349" y="71" on="0"/>
        <pt x="384" y="82" on="0"/>
        <pt x="413" y="103" on="0"/>
        <pt x="432" y="136" on="0"/>
        <pt x="432" y="157" on="1"/>
        <pt x="432" y="183" on="0"/>
        <pt x="404" y="215" on="0"/>
      </contour>
    </TTGlyph>
    <TTGlyph name="emdash" xMin="55" yMin="266" xMax="698" yMax="359">
      <contour>
        <pt x="698" y="359" on="1"/>
        <pt x="698" y="266" on="1"/>
        <pt x="55" y="266" on="1"/>
        <pt x="55" y="359" on="1"/>
      </contour>
    </TTGlyph>
    <TTGlyph name="endash" xMin="55" yMin="266" xMax="450" yMax="359">
      <contour>
        <pt x="450" y="359" on="1"/>
        <pt x="450" y="266" on="1"/>
        <pt x="55" y="266" on="1"/>
        <pt x="55" y="359" on="1"/>
      </contour>
    </TTGlyph>
    <TTGlyph name="equals" xMin="79" yMin="110" xMax="420" yMax="416">
      <contour>
        <pt x="420" y="203" on="1"/>
        <pt x="420" y="110" on="1"/>
        <pt x="79" y="110" on="1"/>
        <pt x="79" y="203" on="1"/>
      </contour>
      <contour>
        <pt x="420" y="416" on="1"/>
        <pt x="420" y="323" on="1"/>
        <pt x="79" y="323" on="1"/>
        <pt x="79" y="416" on="1"/>
      </contour>
    </TTGlyph>
    <TTGlyph name="exclam" xMin="74" yMin="-9" xMax="221" yMax="682">
      <contour>
        <pt x="201" y="682" on="1"/>
        <pt x="192" y="213" on="1"/>
        <pt x="101" y="213" on="1"/>
        <pt x="91" y="682" on="1"/>
      </contour>
      <contour>
        <pt x="147" y="138" on="1"/>
        <pt x="179" y="138" on="0"/>
        <pt x="221" y="96" on="0"/>
        <pt x="221" y="64" on="1"/>
        <pt x="221" y="32" on="0"/>
        <pt x="179" y="-9" on="0"/>
        <pt x="147" y="-9" on="1"/>
        <pt x="115" y="-9" on="0"/>
        <pt x="74" y="32" on="0"/>
        <pt x="74" y="64" on="1"/>
        <pt x="74" y="96" on="0"/>
        <pt x="115" y="138" on="0"/>
      </contour>
    </TTGlyph>
    <TTGlyph name="five" xMin="59" yMin="-118" xMax="528" yMax="571">
      <contour>
        <pt x="497" y="571" on="1"/>
        <pt x="497" y="473" on="1"/>
        <pt x="224" y="473" on="1"/>
        <pt x="207" y="311" on="1"/>
        <pt x="253" y="323" on="0"/>
        <pt x="301" y="323" on="1"/>
        <pt x="353" y="323" on="0"/>
        <pt x="438" y="293" on="0"/>
        <pt x="496" y="238" on="0"/>
        <pt x="528" y="161" on="0"/>
        <pt x="528" y="113" on="1"/>
        <pt x="528" y="63" on="0"/>
        <pt x="490" y="-22" on="0"/>
        <pt x="424" y="-84" on="0"/>
        <pt x="333" y="-118" on="0"/>
        <pt x="280" y="-118" on="1"/>
        <pt x="236" y="-118" on="0"/>
        <pt x="157" y="-91" on="0"/>
        <pt x="95" y="-39" on="0"/>
        <pt x="59" y="37" on="0"/>
        <pt x="59" y="87" on="1"/>
        <pt x="165" y="87" on="1"/>
        <pt x="165" y="35" on="0"/>
        <pt x="229" y="-20" on="0"/>
        <pt x="282" y="-20" on="1"/>
        <pt x="312" y="-20" on="0"/>
        <pt x="363" y="-1" on="0"/>
        <pt x="400" y="34" on="0"/>
        <pt x="421" y="83" on="0"/>
        <pt x="421" y="113" on="1"/>
        <pt x="421" y="170" on="0"/>
        <pt x="347" y="235" on="0"/>
        <pt x="272" y="235" on="1"/>
        <pt x="94" y="235" on="1"/>
        <pt x="124" y="571" on="1"/>
      </contour>
    </TTGlyph>
    <TTGlyph name="fivetamil" xMin="59" yMin="-258" xMax="1049" yMax="515">
      <contour>
        <pt x="860" y="509" on="1"/>
        <pt x="860" y="416" on="1"/>
        <pt x="748" y="416" on="1"/>
        <pt x="748" y="220" on="1"/>
        <pt x="766" y="263" on="0"/>
        <pt x="835" y="305" on="0"/>
        <pt x="880" y="305" on="1"/>
        <pt x="913" y="305" on="0"/>
        <pt x="975" y="277" on="0"/>
        <pt x="1021" y="223" on="0"/>
        <pt x="1049" y="146" on="0"/>
        <pt x="1049" y="97" on="1"/>
        <pt x="1049" y="16" on="0"/>
        <pt x="985" y="-115" on="0"/>
        <pt x="866" y="-208" on="0"/>
        <pt x="696" y="-258" on="0"/>
        <pt x="590" y="-258" on="1"/>
        <pt x="472" y="-258" on="0"/>
        <pt x="276" y="-201" on="0"/>
        <pt x="136" y="-91" on="0"/>
        <pt x="59" y="69" on="0"/>
        <pt x="59" y="171" on="1"/>
        <pt x="59" y="261" on="0"/>
        <pt x="107" y="428" on="0"/>
        <pt x="148" y="515" on="1"/>
        <pt x="246" y="487" on="1"/>
        <pt x="208" y="400" on="0"/>
        <pt x="167" y="251" on="0"/>
        <pt x="167" y="171" on="1"/>
        <pt x="167" y="87" on="0"/>
        <pt x="224" y="-38" on="0"/>
        <pt x="333" y="-119" on="0"/>
        <pt x="490" y="-159" on="0"/>
        <pt x="590" y="-159" on="1"/>
        <pt x="662" y="-159" on="0"/>
        <pt x="790" y="-127" on="0"/>
        <pt x="886" y="-63" on="0"/>
        <pt x="942" y="33" on="0"/>
        <pt x="942" y="97" on="1"/>
        <pt x="942" y="155" on="0"/>
        <pt x="893" y="215" on="0"/>
        <pt x="854" y="215" on="1"/>
        <pt x="808" y="215" on="0"/>
        <pt x="748" y="129" on="0"/>
        <pt x="748" y="57" on="1"/>
        <pt x="748" y="0" on="1"/>
        <pt x="646" y="0" on="1"/>
        <pt x="646" y="416" on="1"/>
        <pt x="467" y="416" on="1"/>
        <pt x="467" y="0" on="1"/>
        <pt x="365" y="0" on="1"/>
        <pt x="365" y="509" on="1"/>
      </contour>
    </TTGlyph>
    <TTGlyph name="four" xMin="19" yMin="-106" xMax="567" yMax="567">
      <contour>
        <pt x="456" y="567" on="1"/>
        <pt x="456" y="143" on="1"/>
        <pt x="567" y="143" on="1"/>
        <pt x="567" y="50" on="1"/>
        <pt x="456" y="50" on="1"/>
        <pt x="456" y="-106" on="1"/>
        <pt x="347" y="-106" on="1"/>
        <pt x="347" y="50" on="1"/>
        <pt x="19" y="50" on="1"/>
        <pt x="19" y="132" on="1"/>
        <pt x="351" y="567" on="1"/>
      </contour>
      <contour>
        <pt x="138" y="132" on="1"/>
        <pt x="353" y="132" on="1"/>
        <pt x="353" y="406" on="1"/>
      </contour>
    </TTGlyph>
    <TTGlyph name="fourtamil" xMin="41" yMin="-9" xMax="790" yMax="509">
      <contour>
        <pt x="790" y="509" on="1"/>
        <pt x="790" y="223" on="1"/>
        <pt x="750" y="223" on="1"/>
        <pt x="750" y="219" on="1"/>
        <pt x="509" y="219" on="1"/>
        <pt x="509" y="177" on="1"/>
        <pt x="509" y="81" on="0"/>
        <pt x="403" y="-9" on="0"/>
        <pt x="316" y="-9" on="1"/>
        <pt x="253" y="-9" on="0"/>
        <pt x="151" y="25" on="0"/>
        <pt x="79" y="80" on="0"/>
        <pt x="41" y="150" on="0"/>
        <pt x="41" y="185" on="1"/>
        <pt x="41" y="233" on="0"/>
        <pt x="102" y="285" on="0"/>
        <pt x="156" y="285" on="1"/>
        <pt x="162" y="285" on="1"/>
        <pt x="162" y="509" on="1"/>
        <pt x="594" y="509" on="1"/>
        <pt x="594" y="416" on="1"/>
        <pt x="509" y="416" on="1"/>
        <pt x="509" y="285" on="1"/>
        <pt x="687" y="285" on="1"/>
        <pt x="687" y="509" on="1"/>
      </contour>
      <contour>
        <pt x="205" y="219" on="1"/>
        <pt x="149" y="219" on="0"/>
        <pt x="149" y="173" on="1"/>
        <pt x="149" y="133" on="0"/>
        <pt x="235" y="77" on="0"/>
        <pt x="306" y="77" on="1"/>
        <pt x="407" y="77" on="0"/>
        <pt x="407" y="178" on="1"/>
        <pt x="407" y="219" on="1"/>
      </contour>
      <contour>
        <pt x="258" y="285" on="1"/>
        <pt x="407" y="285" on="1"/>
        <pt x="407" y="416" on="1"/>
        <pt x="258" y="416" on="1"/>
      </contour>
    </TTGlyph>
    <TTGlyph name="greater" xMin="45" yMin="29" xMax="455" yMax="614">
      <contour>
        <pt x="121" y="614" on="1"/>
        <pt x="455" y="373" on="1"/>
        <pt x="455" y="269" on="1"/>
        <pt x="121" y="29" on="1"/>
        <pt x="45" y="117" on="1"/>
        <pt x="335" y="321" on="1"/>
        <pt x="45" y="526" on="1"/>
      </contour>
    </TTGlyph>
    <TTGlyph name="ha.tam" xMin="53" yMin="-331" xMax="1617" yMax="518">
      <contour>
        <pt x="1093" y="518" on="1"/>
        <pt x="1144" y="518" on="0"/>
        <pt x="1207" y="463" on="0"/>
        <pt x="1219" y="421" on="1"/>
        <pt x="1248" y="477" on="0"/>
        <pt x="1330" y="518" on="0"/>
        <pt x="1384" y="518" on="1"/>
        <pt x="1436" y="518" on="0"/>
        <pt x="1522" y="470" on="0"/>
        <pt x="1584" y="385" on="0"/>
        <pt x="1617" y="271" on="0"/>
        <pt x="1617" y="205" on="1"/>
        <pt x="1617" y="112" on="0"/>
        <pt x="1565" y="-32" on="0"/>
        <pt x="1468" y="-130" on="0"/>
        <pt x="1328" y="-181" on="0"/>
        <pt x="1241" y="-181" on="1"/>
        <pt x="199" y="-181" on="1"/>
        <pt x="154" y="-181" on="0"/>
        <pt x="154" y="-217" on="1"/>
        <pt x="154" y="-237" on="0"/>
        <pt x="178" y="-270" on="0"/>
        <pt x="199" y="-287" on="1"/>
        <pt x="130" y="-331" on="1"/>
        <pt x="98" y="-307" on="0"/>
        <pt x="53" y="-237" on="0"/>
        <pt x="53" y="-196" on="1"/>
        <pt x="53" y="-174" on="0"/>
        <pt x="67" y="-135" on="0"/>
        <pt x="98" y="-105" on="0"/>
        <pt x="149" y="-87" on="0"/>
        <pt x="185" y="-87" on="1"/>
        <pt x="1241" y="-87" on="1"/>
        <pt x="1315" y="-87" on="0"/>
        <pt x="1418" y="-40" on="0"/>
        <pt x="1481" y="39" on="0"/>
        <pt x="1509" y="145" on="0"/>
        <pt x="1509" y="205" on="1"/>
        <pt x="1509" y="254" on="0"/>
        <pt x="1490" y="334" on="0"/>
        <pt x="1457" y="392" on="0"/>
        <pt x="1411" y="424" on="0"/>
        <pt x="1384" y="424" on="1"/>
        <pt x="1343" y="424" on="0"/>
        <pt x="1299" y="362" on="0"/>
        <pt x="1299" y="306" on="1"/>
        <pt x="1299" y="0" on="1"/>
        <pt x="1197" y="0" on="1"/>
        <pt x="1197" y="306" on="1"/>
        <pt x="1197" y="362" on="0"/>
        <pt x="1156" y="424" on="0"/>
        <pt x="1111" y="424" on="1"/>
        <pt x="1066" y="424" on="0"/>
        <pt x="1023" y="361" on="0"/>
        <pt x="1023" y="306" on="1"/>
        <pt x="1023" y="0" on="1"/>
        <pt x="673" y="0" on="1"/>
        <pt x="593" y="43" on="1"/>
        <pt x="612" y="82" on="0"/>
        <pt x="632" y="169" on="0"/>
        <pt x="632" y="211" on="1"/>
        <pt x="632" y="254" on="0"/>
        <pt x="602" y="332" on="0"/>
        <pt x="544" y="390" on="0"/>
        <pt x="459" y="424" on="0"/>
        <pt x="404" y="424" on="1"/>
        <pt x="354" y="424" on="0"/>
        <pt x="266" y="392" on="0"/>
        <pt x="201" y="335" on="0"/>
        <pt x="163" y="254" on="0"/>
        <pt x="163" y="206" on="1"/>
        <pt x="163" y="156" on="0"/>
        <pt x="201" y="97" on="0"/>
        <pt x="230" y="83" on="1"/>
        <pt x="224" y="107" on="0"/>
        <pt x="223" y="159" on="0"/>
        <pt x="229" y="184" on="1"/>
        <pt x="235" y="209" on="0"/>
        <pt x="260" y="253" on="0"/>
        <pt x="297" y="286" on="0"/>
        <pt x="348" y="305" on="0"/>
        <pt x="379" y="305" on="1"/>
        <pt x="413" y="305" on="0"/>
        <pt x="467" y="283" on="0"/>
        <pt x="505" y="244" on="0"/>
        <pt x="525" y="190" on="0"/>
        <pt x="525" y="159" on="1"/>
        <pt x="525" y="123" on="0"/>
        <pt x="494" y="61" on="0"/>
        <pt x="438" y="16" on="0"/>
        <pt x="360" y="-9" on="0"/>
        <pt x="313" y="-9" on="1"/>
        <pt x="264" y="-9" on="0"/>
        <pt x="171" y="25" on="0"/>
        <pt x="99" y="86" on="0"/>
        <pt x="55" y="171" on="0"/>
        <pt x="55" y="223" on="1"/>
        <pt x="55" y="289" on="0"/>
        <pt x="109" y="398" on="0"/>
        <pt x="204" y="475" on="0"/>
        <pt x="332" y="518" on="0"/>
        <pt x="407" y="518" on="1"/>
        <pt x="486" y="518" on="0"/>
        <pt x="610" y="470" on="0"/>
        <pt x="695" y="390" on="0"/>
        <pt x="740" y="285" on="0"/>
        <pt x="740" y="227" on="1"/>
        <pt x="740" y="190" on="0"/>
        <pt x="728" y="125" on="0"/>
        <pt x="717" y="94" on="1"/>
        <pt x="920" y="94" on="1"/>
        <pt x="920" y="306" on="1"/>
        <pt x="920" y="418" on="0"/>
        <pt x="1014" y="518" on="0"/>
      </contour>
      <contour>
        <pt x="363" y="215" on="1"/>
        <pt x="329" y="215" on="0"/>
        <pt x="289" y="168" on="0"/>
        <pt x="284" y="137" on="1"/>
        <pt x="282" y="120" on="0"/>
        <pt x="283" y="88" on="0"/>
        <pt x="287" y="73" on="1"/>
        <pt x="295" y="71" on="0"/>
        <pt x="311" y="71" on="0"/>
        <pt x="319" y="71" on="1"/>
        <pt x="335" y="71" on="0"/>
        <pt x="370" y="82" on="0"/>
        <pt x="399" y="103" on="0"/>
        <pt x="418" y="136" on="0"/>
        <pt x="418" y="157" on="1"/>
        <pt x="418" y="183" on="0"/>
        <pt x="390" y="215" on="0"/>
      </contour>
    </TTGlyph>
    <TTGlyph name="hansv.tam" xMin="39" yMin="-331" xMax="1603" yMax="834">
      <contour>
        <pt x="1079" y="518" on="1"/>
        <pt x="1130" y="518" on="0"/>
        <pt x="1193" y="463" on="0"/>
        <pt x="1205" y="421" on="1"/>
        <pt x="1234" y="477" on="0"/>
        <pt x="1316" y="518" on="0"/>
        <pt x="1370" y="518" on="1"/>
        <pt x="1422" y="518" on="0"/>
        <pt x="1508" y="470" on="0"/>
        <pt x="1570" y="385" on="0"/>
        <pt x="1603" y="271" on="0"/>
        <pt x="1603" y="205" on="1"/>
        <pt x="1603" y="112" on="0"/>
        <pt x="1551" y="-32" on="0"/>
        <pt x="1454" y="-130" on="0"/>
        <pt x="1314" y="-181" on="0"/>
        <pt x="1227" y="-181" on="1"/>
        <pt x="185" y="-181" on="1"/>
        <pt x="140" y="-181" on="0"/>
        <pt x="140" y="-217" on="1"/>
        <pt x="140" y="-237" on="0"/>
        <pt x="164" y="-270" on="0"/>
        <pt x="185" y="-287" on="1"/>
        <pt x="116" y="-331" on="1"/>
        <pt x="84" y="-307" on="0"/>
        <pt x="39" y="-237" on="0"/>
        <pt x="39" y="-196" on="1"/>
        <pt x="39" y="-174" on="0"/>
        <pt x="53" y="-135" on="0"/>
        <pt x="84" y="-105" on="0"/>
        <pt x="135" y="-87" on="0"/>
        <pt x="171" y="-87" on="1"/>
        <pt x="1227" y="-87" on="1"/>
        <pt x="1301" y="-87" on="0"/>
        <pt x="1404" y="-40" on="0"/>
        <pt x="1467" y="39" on="0"/>
        <pt x="1495" y="145" on="0"/>
        <pt x="1495" y="205" on="1"/>
        <pt x="1495" y="254" on="0"/>
        <pt x="1476" y="334" on="0"/>
        <pt x="1443" y="392" on="0"/>
        <pt x="1397" y="424" on="0"/>
        <pt x="1370" y="424" on="1"/>
        <pt x="1329" y="424" on="0"/>
        <pt x="1285" y="362" on="0"/>
        <pt x="1285" y="306" on="1"/>
        <pt x="1285" y="0" on="1"/>
        <pt x="1183" y="0" on="1"/>
        <pt x="1183" y="306" on="1"/>
        <pt x="1183" y="362" on="0"/>
        <pt x="1142" y="424" on="0"/>
        <pt x="1097" y="424" on="1"/>
        <pt x="1052" y="424" on="0"/>
        <pt x="1009" y="361" on="0"/>
        <pt x="1009" y="306" on="1"/>
        <pt x="1009" y="0" on="1"/>
        <pt x="659" y="0" on="1"/>
        <pt x="579" y="43" on="1"/>
        <pt x="598" y="82" on="0"/>
        <pt x="618" y="169" on="0"/>
        <pt x="618" y="211" on="1"/>
        <pt x="618" y="254" on="0"/>
        <pt x="588" y="332" on="0"/>
        <pt x="530" y="390" on="0"/>
        <pt x="445" y="424" on="0"/>
        <pt x="390" y="424" on="1"/>
        <pt x="340" y="424" on="0"/>
        <pt x="252" y="392" on="0"/>
        <pt x="187" y="335" on="0"/>
        <pt x="149" y="254" on="0"/>
        <pt x="149" y="206" on="1"/>
        <pt x="149" y="156" on="0"/>
        <pt x="187" y="97" on="0"/>
        <pt x="216" y="83" on="1"/>
        <pt x="210" y="107" on="0"/>
        <pt x="209" y="159" on="0"/>
        <pt x="215" y="184" on="1"/>
        <pt x="221" y="209" on="0"/>
        <pt x="246" y="253" on="0"/>
        <pt x="283" y="286" on="0"/>
        <pt x="334" y="305" on="0"/>
        <pt x="365" y="305" on="1"/>
        <pt x="399" y="305" on="0"/>
        <pt x="453" y="283" on="0"/>
        <pt x="491" y="244" on="0"/>
        <pt x="511" y="190" on="0"/>
        <pt x="511" y="159" on="1"/>
        <pt x="511" y="123" on="0"/>
        <pt x="480" y="61" on="0"/>
        <pt x="424" y="16" on="0"/>
        <pt x="346" y="-9" on="0"/>
        <pt x="299" y="-9" on="1"/>
        <pt x="250" y="-9" on="0"/>
        <pt x="157" y="25" on="0"/>
        <pt x="85" y="86" on="0"/>
        <pt x="41" y="171" on="0"/>
        <pt x="41" y="223" on="1"/>
        <pt x="41" y="289" on="0"/>
        <pt x="95" y="398" on="0"/>
        <pt x="190" y="475" on="0"/>
        <pt x="318" y="518" on="0"/>
        <pt x="393" y="518" on="1"/>
        <pt x="472" y="518" on="0"/>
        <pt x="596" y="470" on="0"/>
        <pt x="681" y="390" on="0"/>
        <pt x="726" y="285" on="0"/>
        <pt x="726" y="227" on="1"/>
        <pt x="726" y="190" on="0"/>
        <pt x="714" y="125" on="0"/>
        <pt x="703" y="94" on="1"/>
        <pt x="906" y="94" on="1"/>
        <pt x="906" y="306" on="1"/>
        <pt x="906" y="418" on="0"/>
        <pt x="1000" y="518" on="0"/>
      </contour>
      <contour>
        <pt x="349" y="215" on="1"/>
        <pt x="315" y="215" on="0"/>
        <pt x="275" y="168" on="0"/>
        <pt x="270" y="137" on="1"/>
        <pt x="268" y="120" on="0"/>
        <pt x="269" y="88" on="0"/>
        <pt x="273" y="73" on="1"/>
        <pt x="281" y="71" on="0"/>
        <pt x="297" y="71" on="0"/>
        <pt x="305" y="71" on="1"/>
        <pt x="321" y="71" on="0"/>
        <pt x="356" y="82" on="0"/>
        <pt x="385" y="103" on="0"/>
        <pt x="404" y="136" on="0"/>
        <pt x="404" y="157" on="1"/>
        <pt x="404" y="183" on="0"/>
        <pt x="376" y="215" on="0"/>
      </contour>
      <contour>
        <pt x="783" y="834" on="1"/>
        <pt x="843" y="834" on="0"/>
        <pt x="919" y="770" on="0"/>
        <pt x="919" y="713" on="1"/>
        <pt x="919" y="656" on="0"/>
        <pt x="843" y="593" on="0"/>
        <pt x="783" y="593" on="1"/>
        <pt x="723" y="593" on="0"/>
        <pt x="647" y="656" on="0"/>
        <pt x="647" y="713" on="1"/>
        <pt x="647" y="770" on="0"/>
        <pt x="723" y="834" on="0"/>
      </contour>
      <contour>
        <pt x="783" y="763" on="1"/>
        <pt x="762" y="763" on="0"/>
        <pt x="739" y="736" on="0"/>
        <pt x="739" y="713" on="1"/>
        <pt x="739" y="690" on="0"/>
        <pt x="762" y="665" on="0"/>
        <pt x="783" y="665" on="1"/>
        <pt x="805" y="665" on="0"/>
        <pt x="828" y="690" on="0"/>
        <pt x="828" y="713" on="1"/>
        <pt x="828" y="736" on="0"/>
        <pt x="805" y="763" on="0"/>
      </contour>
    </TTGlyph>
    <TTGlyph name="hi.tam" xMin="53" yMin="-331" xMax="1833" yMax="790">
      <contour>
        <pt x="1093" y="518" on="1"/>
        <pt x="1144" y="518" on="0"/>
        <pt x="1207" y="463" on="0"/>
        <pt x="1219" y="421" on="1"/>
        <pt x="1248" y="477" on="0"/>
        <pt x="1330" y="518" on="0"/>
        <pt x="1384" y="518" on="1"/>
        <pt x="1389" y="518" on="0"/>
        <pt x="1396" y="517" on="0"/>
        <pt x="1401" y="517" on="1"/>
        <pt x="1379" y="538" on="0"/>
        <pt x="1354" y="593" on="0"/>
        <pt x="1354" y="624" on="1"/>
        <pt x="1354" y="661" on="0"/>
        <pt x="1385" y="723" on="0"/>
        <pt x="1441" y="766" on="0"/>
        <pt x="1520" y="790" on="0"/>
        <pt x="1568" y="790" on="1"/>
        <pt x="1624" y="790" on="0"/>
        <pt x="1721" y="749" on="0"/>
        <pt x="1792" y="670" on="0"/>
        <pt x="1833" y="552" on="0"/>
        <pt x="1833" y="476" on="1"/>
        <pt x="1833" y="0" on="1"/>
        <pt x="1730" y="0" on="1"/>
        <pt x="1730" y="477" on="1"/>
        <pt x="1730" y="582" on="0"/>
        <pt x="1649" y="692" on="0"/>
        <pt x="1579" y="692" on="1"/>
        <pt x="1552" y="692" on="0"/>
        <pt x="1509" y="674" on="0"/>
        <pt x="1477" y="642" on="0"/>
        <pt x="1460" y="601" on="0"/>
        <pt x="1460" y="577" on="1"/>
        <pt x="1460" y="549" on="0"/>
        <pt x="1476" y="504" on="0"/>
        <pt x="1497" y="482" on="1"/>
        <pt x="1554" y="444" on="0"/>
        <pt x="1617" y="297" on="0"/>
        <pt x="1617" y="205" on="1"/>
        <pt x="1617" y="112" on="0"/>
        <pt x="1565" y="-32" on="0"/>
        <pt x="1468" y="-130" on="0"/>
        <pt x="1328" y="-181" on="0"/>
        <pt x="1241" y="-181" on="1"/>
        <pt x="199" y="-181" on="1"/>
        <pt x="154" y="-181" on="0"/>
        <pt x="154" y="-217" on="1"/>
        <pt x="154" y="-237" on="0"/>
        <pt x="178" y="-270" on="0"/>
        <pt x="199" y="-287" on="1"/>
        <pt x="130" y="-331" on="1"/>
        <pt x="98" y="-307" on="0"/>
        <pt x="53" y="-237" on="0"/>
        <pt x="53" y="-196" on="1"/>
        <pt x="53" y="-174" on="0"/>
        <pt x="67" y="-135" on="0"/>
        <pt x="98" y="-105" on="0"/>
        <pt x="149" y="-87" on="0"/>
        <pt x="185" y="-87" on="1"/>
        <pt x="1241" y="-87" on="1"/>
        <pt x="1315" y="-87" on="0"/>
        <pt x="1418" y="-40" on="0"/>
        <pt x="1481" y="39" on="0"/>
        <pt x="1509" y="145" on="0"/>
        <pt x="1509" y="205" on="1"/>
        <pt x="1509" y="254" on="0"/>
        <pt x="1490" y="334" on="0"/>
        <pt x="1457" y="392" on="0"/>
        <pt x="1411" y="424" on="0"/>
        <pt x="1384" y="424" on="1"/>
        <pt x="1343" y="424" on="0"/>
        <pt x="1299" y="362" on="0"/>
        <pt x="1299" y="306" on="1"/>
        <pt x="1299" y="0" on="1"/>
        <pt x="1197" y="0" on="1"/>
        <pt x="1197" y="306" on="1"/>
        <pt x="1197" y="362" on="0"/>
        <pt x="1156" y="424" on="0"/>
        <pt x="1111" y="424" on="1"/>
        <pt x="1066" y="424" on="0"/>
        <pt x="1023" y="361" on="0"/>
        <pt x="1023" y="306" on="1"/>
        <pt x="1023" y="0" on="1"/>
        <pt x="673" y="0" on="1"/>
        <pt x="593" y="43" on="1"/>
        <pt x="612" y="82" on="0"/>
        <pt x="632" y="169" on="0"/>
        <pt x="632" y="211" on="1"/>
        <pt x="632" y="254" on="0"/>
        <pt x="602" y="332" on="0"/>
        <pt x="544" y="390" on="0"/>
        <pt x="459" y="424" on="0"/>
        <pt x="404" y="424" on="1"/>
        <pt x="354" y="424" on="0"/>
        <pt x="266" y="392" on="0"/>
        <pt x="201" y="335" on="0"/>
        <pt x="163" y="254" on="0"/>
        <pt x="163" y="206" on="1"/>
        <pt x="163" y="156" on="0"/>
        <pt x="201" y="97" on="0"/>
        <pt x="230" y="83" on="1"/>
        <pt x="224" y="107" on="0"/>
        <pt x="223" y="159" on="0"/>
        <pt x="229" y="184" on="1"/>
        <pt x="235" y="209" on="0"/>
        <pt x="260" y="253" on="0"/>
        <pt x="297" y="286" on="0"/>
        <pt x="348" y="305" on="0"/>
        <pt x="379" y="305" on="1"/>
        <pt x="413" y="305" on="0"/>
        <pt x="467" y="283" on="0"/>
        <pt x="505" y="244" on="0"/>
        <pt x="525" y="190" on="0"/>
        <pt x="525" y="159" on="1"/>
        <pt x="525" y="123" on="0"/>
        <pt x="494" y="61" on="0"/>
        <pt x="438" y="16" on="0"/>
        <pt x="360" y="-9" on="0"/>
        <pt x="313" y="-9" on="1"/>
        <pt x="264" y="-9" on="0"/>
        <pt x="171" y="25" on="0"/>
        <pt x="99" y="86" on="0"/>
        <pt x="55" y="171" on="0"/>
        <pt x="55" y="223" on="1"/>
        <pt x="55" y="289" on="0"/>
        <pt x="109" y="398" on="0"/>
        <pt x="204" y="475" on="0"/>
        <pt x="332" y="518" on="0"/>
        <pt x="407" y="518" on="1"/>
        <pt x="486" y="518" on="0"/>
        <pt x="610" y="470" on="0"/>
        <pt x="695" y="390" on="0"/>
        <pt x="740" y="285" on="0"/>
        <pt x="740" y="227" on="1"/>
        <pt x="740" y="190" on="0"/>
        <pt x="728" y="125" on="0"/>
        <pt x="717" y="94" on="1"/>
        <pt x="920" y="94" on="1"/>
        <pt x="920" y="306" on="1"/>
        <pt x="920" y="418" on="0"/>
        <pt x="1014" y="518" on="0"/>
      </contour>
      <contour>
        <pt x="363" y="215" on="1"/>
        <pt x="329" y="215" on="0"/>
        <pt x="289" y="168" on="0"/>
        <pt x="284" y="137" on="1"/>
        <pt x="282" y="120" on="0"/>
        <pt x="283" y="88" on="0"/>
        <pt x="287" y="73" on="1"/>
        <pt x="295" y="71" on="0"/>
        <pt x="311" y="71" on="0"/>
        <pt x="319" y="71" on="1"/>
        <pt x="335" y="71" on="0"/>
        <pt x="370" y="82" on="0"/>
        <pt x="399" y="103" on="0"/>
        <pt x="418" y="136" on="0"/>
        <pt x="418" y="157" on="1"/>
        <pt x="418" y="183" on="0"/>
        <pt x="390" y="215" on="0"/>
      </contour>
    </TTGlyph>
    <TTGlyph name="hii.tam" xMin="53" yMin="-331" xMax="1670" yMax="845">
      <contour>
        <pt x="1455" y="845" on="1"/>
        <pt x="1504" y="845" on="0"/>
        <pt x="1584" y="819" on="0"/>
        <pt x="1640" y="775" on="0"/>
        <pt x="1670" y="718" on="0"/>
        <pt x="1670" y="688" on="1"/>
        <pt x="1670" y="634" on="0"/>
        <pt x="1593" y="567" on="0"/>
        <pt x="1525" y="567" on="1"/>
        <pt x="1492" y="567" on="0"/>
        <pt x="1444" y="584" on="0"/>
        <pt x="1413" y="613" on="0"/>
        <pt x="1397" y="651" on="0"/>
        <pt x="1397" y="672" on="1"/>
        <pt x="1397" y="725" on="0"/>
        <pt x="1439" y="765" on="1"/>
        <pt x="1390" y="757" on="0"/>
        <pt x="1322" y="688" on="0"/>
        <pt x="1322" y="636" on="1"/>
        <pt x="1322" y="594" on="0"/>
        <pt x="1377" y="531" on="0"/>
        <pt x="1428" y="513" on="1"/>
        <pt x="1471" y="504" on="0"/>
        <pt x="1541" y="449" on="0"/>
        <pt x="1590" y="368" on="0"/>
        <pt x="1617" y="264" on="0"/>
        <pt x="1617" y="205" on="1"/>
        <pt x="1617" y="112" on="0"/>
        <pt x="1565" y="-32" on="0"/>
        <pt x="1468" y="-130" on="0"/>
        <pt x="1328" y="-181" on="0"/>
        <pt x="1241" y="-181" on="1"/>
        <pt x="199" y="-181" on="1"/>
        <pt x="154" y="-181" on="0"/>
        <pt x="154" y="-217" on="1"/>
        <pt x="154" y="-237" on="0"/>
        <pt x="178" y="-270" on="0"/>
        <pt x="199" y="-287" on="1"/>
        <pt x="130" y="-331" on="1"/>
        <pt x="98" y="-307" on="0"/>
        <pt x="53" y="-237" on="0"/>
        <pt x="53" y="-196" on="1"/>
        <pt x="53" y="-174" on="0"/>
        <pt x="67" y="-135" on="0"/>
        <pt x="98" y="-105" on="0"/>
        <pt x="149" y="-87" on="0"/>
        <pt x="185" y="-87" on="1"/>
        <pt x="1241" y="-87" on="1"/>
        <pt x="1315" y="-87" on="0"/>
        <pt x="1418" y="-40" on="0"/>
        <pt x="1481" y="39" on="0"/>
        <pt x="1509" y="145" on="0"/>
        <pt x="1509" y="205" on="1"/>
        <pt x="1509" y="254" on="0"/>
        <pt x="1490" y="334" on="0"/>
        <pt x="1457" y="392" on="0"/>
        <pt x="1411" y="424" on="0"/>
        <pt x="1384" y="424" on="1"/>
        <pt x="1343" y="424" on="0"/>
        <pt x="1299" y="362" on="0"/>
        <pt x="1299" y="306" on="1"/>
        <pt x="1299" y="0" on="1"/>
        <pt x="1197" y="0" on="1"/>
        <pt x="1197" y="306" on="1"/>
        <pt x="1197" y="362" on="0"/>
        <pt x="1156" y="424" on="0"/>
        <pt x="1111" y="424" on="1"/>
        <pt x="1066" y="424" on="0"/>
        <pt x="1023" y="361" on="0"/>
        <pt x="1023" y="306" on="1"/>
        <pt x="1023" y="0" on="1"/>
        <pt x="673" y="0" on="1"/>
        <pt x="593" y="43" on="1"/>
        <pt x="612" y="82" on="0"/>
        <pt x="632" y="169" on="0"/>
        <pt x="632" y="211" on="1"/>
        <pt x="632" y="254" on="0"/>
        <pt x="602" y="332" on="0"/>
        <pt x="544" y="390" on="0"/>
        <pt x="459" y="424" on="0"/>
        <pt x="404" y="424" on="1"/>
        <pt x="354" y="424" on="0"/>
        <pt x="266" y="392" on="0"/>
        <pt x="201" y="335" on="0"/>
        <pt x="163" y="254" on="0"/>
        <pt x="163" y="206" on="1"/>
        <pt x="163" y="156" on="0"/>
        <pt x="201" y="97" on="0"/>
        <pt x="230" y="83" on="1"/>
        <pt x="224" y="107" on="0"/>
        <pt x="223" y="159" on="0"/>
        <pt x="229" y="184" on="1"/>
        <pt x="235" y="209" on="0"/>
        <pt x="260" y="253" on="0"/>
        <pt x="297" y="286" on="0"/>
        <pt x="348" y="305" on="0"/>
        <pt x="379" y="305" on="1"/>
        <pt x="413" y="305" on="0"/>
        <pt x="467" y="283" on="0"/>
        <pt x="505" y="244" on="0"/>
        <pt x="525" y="190" on="0"/>
        <pt x="525" y="159" on="1"/>
        <pt x="525" y="123" on="0"/>
        <pt x="494" y="61" on="0"/>
        <pt x="438" y="16" on="0"/>
        <pt x="360" y="-9" on="0"/>
        <pt x="313" y="-9" on="1"/>
        <pt x="264" y="-9" on="0"/>
        <pt x="171" y="25" on="0"/>
        <pt x="99" y="86" on="0"/>
        <pt x="55" y="171" on="0"/>
        <pt x="55" y="223" on="1"/>
        <pt x="55" y="289" on="0"/>
        <pt x="109" y="398" on="0"/>
        <pt x="204" y="475" on="0"/>
        <pt x="332" y="518" on="0"/>
        <pt x="407" y="518" on="1"/>
        <pt x="486" y="518" on="0"/>
        <pt x="610" y="470" on="0"/>
        <pt x="695" y="390" on="0"/>
        <pt x="740" y="285" on="0"/>
        <pt x="740" y="227" on="1"/>
        <pt x="740" y="190" on="0"/>
        <pt x="728" y="125" on="0"/>
        <pt x="717" y="94" on="1"/>
        <pt x="920" y="94" on="1"/>
        <pt x="920" y="306" on="1"/>
        <pt x="920" y="418" on="0"/>
        <pt x="1014" y="518" on="0"/>
        <pt x="1093" y="518" on="1"/>
        <pt x="1144" y="518" on="0"/>
        <pt x="1207" y="463" on="0"/>
        <pt x="1219" y="421" on="1"/>
        <pt x="1238" y="458" on="0"/>
        <pt x="1287" y="500" on="0"/>
        <pt x="1317" y="509" on="1"/>
        <pt x="1275" y="533" on="0"/>
        <pt x="1227" y="612" on="0"/>
        <pt x="1227" y="660" on="1"/>
        <pt x="1227" y="699" on="0"/>
        <pt x="1263" y="767" on="0"/>
        <pt x="1324" y="817" on="0"/>
        <pt x="1407" y="845" on="0"/>
      </contour>
      <contour>
        <pt x="363" y="215" on="1"/>
        <pt x="329" y="215" on="0"/>
        <pt x="289" y="168" on="0"/>
        <pt x="284" y="137" on="1"/>
        <pt x="282" y="120" on="0"/>
        <pt x="283" y="88" on="0"/>
        <pt x="287" y="73" on="1"/>
        <pt x="295" y="71" on="0"/>
        <pt x="311" y="71" on="0"/>
        <pt x="319" y="71" on="1"/>
        <pt x="335" y="71" on="0"/>
        <pt x="370" y="82" on="0"/>
        <pt x="399" y="103" on="0"/>
        <pt x="418" y="136" on="0"/>
        <pt x="418" y="157" on="1"/>
        <pt x="418" y="183" on="0"/>
        <pt x="390" y="215" on="0"/>
      </contour>
      <contour>
        <pt x="1484" y="769" on="1"/>
        <pt x="1473" y="752" on="0"/>
        <pt x="1458" y="713" on="0"/>
        <pt x="1458" y="695" on="1"/>
        <pt x="1458" y="669" on="0"/>
        <pt x="1488" y="636" on="0"/>
        <pt x="1514" y="636" on="1"/>
        <pt x="1540" y="636" on="0"/>
        <pt x="1571" y="668" on="0"/>
        <pt x="1571" y="692" on="1"/>
        <pt x="1571" y="724" on="0"/>
        <pt x="1519" y="763" on="0"/>
      </contour>
    </TTGlyph>
    <TTGlyph name="hu.tam" xMin="39" yMin="-331" xMax="2045" yMax="518">
      <contour>
        <pt x="1079" y="518" on="1"/>
        <pt x="1130" y="518" on="0"/>
        <pt x="1193" y="463" on="0"/>
        <pt x="1205" y="421" on="1"/>
        <pt x="1234" y="477" on="0"/>
        <pt x="1316" y="518" on="0"/>
        <pt x="1370" y="518" on="1"/>
        <pt x="1402" y="518" on="0"/>
        <pt x="1429" y="509" on="1"/>
        <pt x="1858" y="509" on="1"/>
        <pt x="1898" y="509" on="0"/>
        <pt x="1967" y="490" on="0"/>
        <pt x="2017" y="452" on="0"/>
        <pt x="2045" y="395" on="0"/>
        <pt x="2045" y="358" on="1"/>
        <pt x="2045" y="325" on="0"/>
        <pt x="2023" y="267" on="0"/>
        <pt x="1981" y="224" on="0"/>
        <pt x="1921" y="200" on="0"/>
        <pt x="1882" y="200" on="1"/>
        <pt x="1844" y="200" on="0"/>
        <pt x="1785" y="226" on="0"/>
        <pt x="1743" y="270" on="0"/>
        <pt x="1721" y="330" on="0"/>
        <pt x="1721" y="365" on="1"/>
        <pt x="1721" y="428" on="1"/>
        <pt x="1538" y="428" on="1"/>
        <pt x="1569" y="385" on="0"/>
        <pt x="1603" y="271" on="0"/>
        <pt x="1603" y="205" on="1"/>
        <pt x="1603" y="112" on="0"/>
        <pt x="1551" y="-32" on="0"/>
        <pt x="1454" y="-130" on="0"/>
        <pt x="1314" y="-181" on="0"/>
        <pt x="1227" y="-181" on="1"/>
        <pt x="185" y="-181" on="1"/>
        <pt x="140" y="-181" on="0"/>
        <pt x="140" y="-217" on="1"/>
        <pt x="140" y="-237" on="0"/>
        <pt x="164" y="-270" on="0"/>
        <pt x="185" y="-287" on="1"/>
        <pt x="116" y="-331" on="1"/>
        <pt x="84" y="-307" on="0"/>
        <pt x="39" y="-237" on="0"/>
        <pt x="39" y="-196" on="1"/>
        <pt x="39" y="-174" on="0"/>
        <pt x="53" y="-135" on="0"/>
        <pt x="84" y="-105" on="0"/>
        <pt x="135" y="-87" on="0"/>
        <pt x="171" y="-87" on="1"/>
        <pt x="1227" y="-87" on="1"/>
        <pt x="1301" y="-87" on="0"/>
        <pt x="1404" y="-40" on="0"/>
        <pt x="1467" y="39" on="0"/>
        <pt x="1495" y="145" on="0"/>
        <pt x="1495" y="205" on="1"/>
        <pt x="1495" y="254" on="0"/>
        <pt x="1476" y="334" on="0"/>
        <pt x="1443" y="392" on="0"/>
        <pt x="1397" y="424" on="0"/>
        <pt x="1370" y="424" on="1"/>
        <pt x="1329" y="424" on="0"/>
        <pt x="1285" y="362" on="0"/>
        <pt x="1285" y="306" on="1"/>
        <pt x="1285" y="0" on="1"/>
        <pt x="1183" y="0" on="1"/>
        <pt x="1183" y="306" on="1"/>
        <pt x="1183" y="362" on="0"/>
        <pt x="1142" y="424" on="0"/>
        <pt x="1097" y="424" on="1"/>
        <pt x="1052" y="424" on="0"/>
        <pt x="1009" y="361" on="0"/>
        <pt x="1009" y="306" on="1"/>
        <pt x="1009" y="0" on="1"/>
        <pt x="659" y="0" on="1"/>
        <pt x="579" y="43" on="1"/>
        <pt x="598" y="82" on="0"/>
        <pt x="618" y="169" on="0"/>
        <pt x="618" y="211" on="1"/>
        <pt x="618" y="254" on="0"/>
        <pt x="588" y="332" on="0"/>
        <pt x="530" y="390" on="0"/>
        <pt x="445" y="424" on="0"/>
        <pt x="390" y="424" on="1"/>
        <pt x="340" y="424" on="0"/>
        <pt x="252" y="392" on="0"/>
        <pt x="187" y="335" on="0"/>
        <pt x="149" y="254" on="0"/>
        <pt x="149" y="206" on="1"/>
        <pt x="149" y="156" on="0"/>
        <pt x="187" y="97" on="0"/>
        <pt x="216" y="83" on="1"/>
        <pt x="210" y="107" on="0"/>
        <pt x="209" y="159" on="0"/>
        <pt x="215" y="184" on="1"/>
        <pt x="221" y="209" on="0"/>
        <pt x="246" y="253" on="0"/>
        <pt x="283" y="286" on="0"/>
        <pt x="334" y="305" on="0"/>
        <pt x="365" y="305" on="1"/>
        <pt x="399" y="305" on="0"/>
        <pt x="453" y="283" on="0"/>
        <pt x="491" y="244" on="0"/>
        <pt x="511" y="190" on="0"/>
        <pt x="511" y="159" on="1"/>
        <pt x="511" y="123" on="0"/>
        <pt x="480" y="61" on="0"/>
        <pt x="424" y="16" on="0"/>
        <pt x="346" y="-9" on="0"/>
        <pt x="299" y="-9" on="1"/>
        <pt x="250" y="-9" on="0"/>
        <pt x="157" y="25" on="0"/>
        <pt x="85" y="86" on="0"/>
        <pt x="41" y="171" on="0"/>
        <pt x="41" y="223" on="1"/>
        <pt x="41" y="289" on="0"/>
        <pt x="95" y="398" on="0"/>
        <pt x="190" y="475" on="0"/>
        <pt x="318" y="518" on="0"/>
        <pt x="393" y="518" on="1"/>
        <pt x="472" y="518" on="0"/>
        <pt x="596" y="470" on="0"/>
        <pt x="681" y="390" on="0"/>
        <pt x="726" y="285" on="0"/>
        <pt x="726" y="227" on="1"/>
        <pt x="726" y="190" on="0"/>
        <pt x="714" y="125" on="0"/>
        <pt x="703" y="94" on="1"/>
        <pt x="906" y="94" on="1"/>
        <pt x="906" y="306" on="1"/>
        <pt x="906" y="418" on="0"/>
        <pt x="1000" y="518" on="0"/>
      </contour>
      <contour>
        <pt x="1815" y="428" on="1"/>
        <pt x="1815" y="354" on="1"/>
        <pt x="1815" y="317" on="0"/>
        <pt x="1847" y="281" on="0"/>
        <pt x="1875" y="281" on="1"/>
        <pt x="1904" y="281" on="0"/>
        <pt x="1941" y="323" on="0"/>
        <pt x="1941" y="358" on="1"/>
        <pt x="1941" y="428" on="0"/>
        <pt x="1858" y="428" on="1"/>
      </contour>
      <contour>
        <pt x="349" y="215" on="1"/>
        <pt x="315" y="215" on="0"/>
        <pt x="275" y="168" on="0"/>
        <pt x="270" y="137" on="1"/>
        <pt x="268" y="120" on="0"/>
        <pt x="269" y="88" on="0"/>
        <pt x="273" y="73" on="1"/>
        <pt x="281" y="71" on="0"/>
        <pt x="297" y="71" on="0"/>
        <pt x="305" y="71" on="1"/>
        <pt x="321" y="71" on="0"/>
        <pt x="356" y="82" on="0"/>
        <pt x="385" y="103" on="0"/>
        <pt x="404" y="136" on="0"/>
        <pt x="404" y="157" on="1"/>
        <pt x="404" y="183" on="0"/>
        <pt x="376" y="215" on="0"/>
      </contour>
    </TTGlyph>
    <TTGlyph name="hundredtamil" xMin="91" yMin="0" xMax="887" yMax="518">
      <contour>
        <pt x="887" y="509" on="1"/>
        <pt x="887" y="416" on="1"/>
        <pt x="779" y="416" on="1"/>
        <pt x="779" y="0" on="1"/>
        <pt x="676" y="0" on="1"/>
        <pt x="676" y="416" on="1"/>
        <pt x="499" y="416" on="1"/>
        <pt x="499" y="0" on="1"/>
        <pt x="396" y="0" on="1"/>
        <pt x="396" y="285" on="1"/>
        <pt x="395" y="322" on="0"/>
        <pt x="377" y="375" on="0"/>
        <pt x="349" y="408" on="0"/>
        <pt x="312" y="424" on="0"/>
        <pt x="292" y="424" on="1"/>
        <pt x="247" y="424" on="0"/>
        <pt x="194" y="369" on="0"/>
        <pt x="194" y="309" on="1"/>
        <pt x="194" y="0" on="1"/>
        <pt x="91" y="0" on="1"/>
        <pt x="91" y="339" on="1"/>
        <pt x="91" y="429" on="0"/>
        <pt x="182" y="518" on="0"/>
        <pt x="254" y="518" on="1"/>
        <pt x="305" y="518" on="0"/>
        <pt x="376" y="464" on="0"/>
        <pt x="396" y="414" on="1"/>
        <pt x="396" y="509" on="1"/>
      </contour>
    </TTGlyph>
    <TTGlyph name="huu.tam" xMin="39" yMin="-331" xMax="2355" yMax="672">
      <contour>
        <pt x="1079" y="518" on="1"/>
        <pt x="1130" y="518" on="0"/>
        <pt x="1193" y="463" on="0"/>
        <pt x="1205" y="421" on="1"/>
        <pt x="1234" y="477" on="0"/>
        <pt x="1316" y="518" on="0"/>
        <pt x="1370" y="518" on="1"/>
        <pt x="1402" y="518" on="0"/>
        <pt x="1429" y="509" on="1"/>
        <pt x="1841" y="509" on="1"/>
        <pt x="1860" y="586" on="0"/>
        <pt x="1982" y="672" on="0"/>
        <pt x="2065" y="672" on="1"/>
        <pt x="2126" y="672" on="0"/>
        <pt x="2232" y="627" on="0"/>
        <pt x="2310" y="546" on="0"/>
        <pt x="2355" y="430" on="0"/>
        <pt x="2355" y="360" on="1"/>
        <pt x="2355" y="286" on="0"/>
        <pt x="2313" y="160" on="0"/>
        <pt x="2228" y="67" on="0"/>
        <pt x="2100" y="14" on="0"/>
        <pt x="2014" y="14" on="1"/>
        <pt x="1901" y="14" on="0"/>
        <pt x="1723" y="127" on="0"/>
        <pt x="1675" y="232" on="1"/>
        <pt x="1745" y="282" on="1"/>
        <pt x="1789" y="186" on="0"/>
        <pt x="1920" y="108" on="0"/>
        <pt x="2007" y="108" on="1"/>
        <pt x="2067" y="108" on="0"/>
        <pt x="2158" y="145" on="0"/>
        <pt x="2219" y="211" on="0"/>
        <pt x="2251" y="304" on="0"/>
        <pt x="2251" y="360" on="1"/>
        <pt x="2251" y="411" on="0"/>
        <pt x="2222" y="492" on="0"/>
        <pt x="2172" y="548" on="0"/>
        <pt x="2104" y="578" on="0"/>
        <pt x="2065" y="578" on="1"/>
        <pt x="2023" y="578" on="0"/>
        <pt x="1952" y="541" on="0"/>
        <pt x="1929" y="509" on="1"/>
        <pt x="1972" y="509" on="1"/>
        <pt x="2013" y="509" on="0"/>
        <pt x="2082" y="490" on="0"/>
        <pt x="2132" y="452" on="0"/>
        <pt x="2160" y="395" on="0"/>
        <pt x="2160" y="358" on="1"/>
        <pt x="2160" y="325" on="0"/>
        <pt x="2138" y="267" on="0"/>
        <pt x="2096" y="224" on="0"/>
        <pt x="2036" y="200" on="0"/>
        <pt x="1997" y="200" on="1"/>
        <pt x="1959" y="200" on="0"/>
        <pt x="1899" y="226" on="0"/>
        <pt x="1858" y="270" on="0"/>
        <pt x="1836" y="330" on="0"/>
        <pt x="1836" y="365" on="1"/>
        <pt x="1836" y="428" on="1"/>
        <pt x="1538" y="428" on="1"/>
        <pt x="1569" y="385" on="0"/>
        <pt x="1603" y="271" on="0"/>
        <pt x="1603" y="205" on="1"/>
        <pt x="1603" y="112" on="0"/>
        <pt x="1551" y="-32" on="0"/>
        <pt x="1454" y="-130" on="0"/>
        <pt x="1314" y="-181" on="0"/>
        <pt x="1227" y="-181" on="1"/>
        <pt x="185" y="-181" on="1"/>
        <pt x="140" y="-181" on="0"/>
        <pt x="140" y="-217" on="1"/>
        <pt x="140" y="-237" on="0"/>
        <pt x="164" y="-270" on="0"/>
        <pt x="185" y="-287" on="1"/>
        <pt x="116" y="-331" on="1"/>
        <pt x="84" y="-307" on="0"/>
        <pt x="39" y="-237" on="0"/>
        <pt x="39" y="-196" on="1"/>
        <pt x="39" y="-174" on="0"/>
        <pt x="53" y="-135" on="0"/>
        <pt x="84" y="-105" on="0"/>
        <pt x="135" y="-87" on="0"/>
        <pt x="171" y="-87" on="1"/>
        <pt x="1227" y="-87" on="1"/>
        <pt x="1301" y="-87" on="0"/>
        <pt x="1404" y="-40" on="0"/>
        <pt x="1467" y="39" on="0"/>
        <pt x="1495" y="145" on="0"/>
        <pt x="1495" y="205" on="1"/>
        <pt x="1495" y="254" on="0"/>
        <pt x="1476" y="334" on="0"/>
        <pt x="1443" y="392" on="0"/>
        <pt x="1397" y="424" on="0"/>
        <pt x="1370" y="424" on="1"/>
        <pt x="1329" y="424" on="0"/>
        <pt x="1285" y="362" on="0"/>
        <pt x="1285" y="306" on="1"/>
        <pt x="1285" y="0" on="1"/>
        <pt x="1183" y="0" on="1"/>
        <pt x="1183" y="306" on="1"/>
        <pt x="1183" y="362" on="0"/>
        <pt x="1142" y="424" on="0"/>
        <pt x="1097" y="424" on="1"/>
        <pt x="1052" y="424" on="0"/>
        <pt x="1009" y="361" on="0"/>
        <pt x="1009" y="306" on="1"/>
        <pt x="1009" y="0" on="1"/>
        <pt x="659" y="0" on="1"/>
        <pt x="579" y="43" on="1"/>
        <pt x="598" y="82" on="0"/>
        <pt x="618" y="169" on="0"/>
        <pt x="618" y="211" on="1"/>
        <pt x="618" y="254" on="0"/>
        <pt x="588" y="332" on="0"/>
        <pt x="530" y="390" on="0"/>
        <pt x="445" y="424" on="0"/>
        <pt x="390" y="424" on="1"/>
        <pt x="340" y="424" on="0"/>
        <pt x="252" y="392" on="0"/>
        <pt x="187" y="335" on="0"/>
        <pt x="149" y="254" on="0"/>
        <pt x="149" y="206" on="1"/>
        <pt x="149" y="156" on="0"/>
        <pt x="187" y="97" on="0"/>
        <pt x="216" y="83" on="1"/>
        <pt x="210" y="107" on="0"/>
        <pt x="209" y="159" on="0"/>
        <pt x="215" y="184" on="1"/>
        <pt x="221" y="209" on="0"/>
        <pt x="246" y="253" on="0"/>
        <pt x="283" y="286" on="0"/>
        <pt x="334" y="305" on="0"/>
        <pt x="365" y="305" on="1"/>
        <pt x="399" y="305" on="0"/>
        <pt x="453" y="283" on="0"/>
        <pt x="491" y="244" on="0"/>
        <pt x="511" y="190" on="0"/>
        <pt x="511" y="159" on="1"/>
        <pt x="511" y="123" on="0"/>
        <pt x="480" y="61" on="0"/>
        <pt x="424" y="16" on="0"/>
        <pt x="346" y="-9" on="0"/>
        <pt x="299" y="-9" on="1"/>
        <pt x="250" y="-9" on="0"/>
        <pt x="157" y="25" on="0"/>
        <pt x="85" y="86" on="0"/>
        <pt x="41" y="171" on="0"/>
        <pt x="41" y="223" on="1"/>
        <pt x="41" y="289" on="0"/>
        <pt x="95" y="398" on="0"/>
        <pt x="190" y="475" on="0"/>
        <pt x="318" y="518" on="0"/>
        <pt x="393" y="518" on="1"/>
        <pt x="472" y="518" on="0"/>
        <pt x="596" y="470" on="0"/>
        <pt x="681" y="390" on="0"/>
        <pt x="726" y="285" on="0"/>
        <pt x="726" y="227" on="1"/>
        <pt x="726" y="190" on="0"/>
        <pt x="714" y="125" on="0"/>
        <pt x="703" y="94" on="1"/>
        <pt x="906" y="94" on="1"/>
        <pt x="906" y="306" on="1"/>
        <pt x="906" y="418" on="0"/>
        <pt x="1000" y="518" on="0"/>
      </contour>
      <contour>
        <pt x="1930" y="354" on="1"/>
        <pt x="1930" y="317" on="0"/>
        <pt x="1963" y="281" on="0"/>
        <pt x="1990" y="281" on="1"/>
        <pt x="2019" y="281" on="0"/>
        <pt x="2056" y="323" on="0"/>
        <pt x="2056" y="358" on="1"/>
        <pt x="2056" y="428" on="0"/>
        <pt x="1972" y="428" on="1"/>
        <pt x="1930" y="428" on="1"/>
      </contour>
      <contour>
        <pt x="349" y="215" on="1"/>
        <pt x="315" y="215" on="0"/>
        <pt x="275" y="168" on="0"/>
        <pt x="270" y="137" on="1"/>
        <pt x="268" y="120" on="0"/>
        <pt x="269" y="88" on="0"/>
        <pt x="273" y="73" on="1"/>
        <pt x="281" y="71" on="0"/>
        <pt x="297" y="71" on="0"/>
        <pt x="305" y="71" on="1"/>
        <pt x="321" y="71" on="0"/>
        <pt x="356" y="82" on="0"/>
        <pt x="385" y="103" on="0"/>
        <pt x="404" y="136" on="0"/>
        <pt x="404" y="157" on="1"/>
        <pt x="404" y="183" on="0"/>
        <pt x="376" y="215" on="0"/>
      </contour>
    </TTGlyph>
    <TTGlyph name="hvir.tam" xMin="53" yMin="-331" xMax="1617" yMax="743">
      <contour>
        <pt x="1093" y="518" on="1"/>
        <pt x="1144" y="518" on="0"/>
        <pt x="1207" y="463" on="0"/>
        <pt x="1219" y="421" on="1"/>
        <pt x="1248" y="477" on="0"/>
        <pt x="1330" y="518" on="0"/>
        <pt x="1384" y="518" on="1"/>
        <pt x="1436" y="518" on="0"/>
        <pt x="1522" y="470" on="0"/>
        <pt x="1584" y="385" on="0"/>
        <pt x="1617" y="271" on="0"/>
        <pt x="1617" y="205" on="1"/>
        <pt x="1617" y="112" on="0"/>
        <pt x="1565" y="-32" on="0"/>
        <pt x="1468" y="-130" on="0"/>
        <pt x="1328" y="-181" on="0"/>
        <pt x="1241" y="-181" on="1"/>
        <pt x="199" y="-181" on="1"/>
        <pt x="154" y="-181" on="0"/>
        <pt x="154" y="-217" on="1"/>
        <pt x="154" y="-237" on="0"/>
        <pt x="178" y="-270" on="0"/>
        <pt x="199" y="-287" on="1"/>
        <pt x="130" y="-331" on="1"/>
        <pt x="98" y="-307" on="0"/>
        <pt x="53" y="-237" on="0"/>
        <pt x="53" y="-196" on="1"/>
        <pt x="53" y="-174" on="0"/>
        <pt x="67" y="-135" on="0"/>
        <pt x="98" y="-105" on="0"/>
        <pt x="149" y="-87" on="0"/>
        <pt x="185" y="-87" on="1"/>
        <pt x="1241" y="-87" on="1"/>
        <pt x="1315" y="-87" on="0"/>
        <pt x="1418" y="-40" on="0"/>
        <pt x="1481" y="39" on="0"/>
        <pt x="1509" y="145" on="0"/>
        <pt x="1509" y="205" on="1"/>
        <pt x="1509" y="254" on="0"/>
        <pt x="1490" y="334" on="0"/>
        <pt x="1457" y="392" on="0"/>
        <pt x="1411" y="424" on="0"/>
        <pt x="1384" y="424" on="1"/>
        <pt x="1343" y="424" on="0"/>
        <pt x="1299" y="362" on="0"/>
        <pt x="1299" y="306" on="1"/>
        <pt x="1299" y="0" on="1"/>
        <pt x="1197" y="0" on="1"/>
        <pt x="1197" y="306" on="1"/>
        <pt x="1197" y="362" on="0"/>
        <pt x="1156" y="424" on="0"/>
        <pt x="1111" y="424" on="1"/>
        <pt x="1066" y="424" on="0"/>
        <pt x="1023" y="361" on="0"/>
        <pt x="1023" y="306" on="1"/>
        <pt x="1023" y="0" on="1"/>
        <pt x="673" y="0" on="1"/>
        <pt x="593" y="43" on="1"/>
        <pt x="612" y="82" on="0"/>
        <pt x="632" y="169" on="0"/>
        <pt x="632" y="211" on="1"/>
        <pt x="632" y="254" on="0"/>
        <pt x="602" y="332" on="0"/>
        <pt x="544" y="390" on="0"/>
        <pt x="459" y="424" on="0"/>
        <pt x="404" y="424" on="1"/>
        <pt x="354" y="424" on="0"/>
        <pt x="266" y="392" on="0"/>
        <pt x="201" y="335" on="0"/>
        <pt x="163" y="254" on="0"/>
        <pt x="163" y="206" on="1"/>
        <pt x="163" y="156" on="0"/>
        <pt x="201" y="97" on="0"/>
        <pt x="230" y="83" on="1"/>
        <pt x="224" y="107" on="0"/>
        <pt x="223" y="159" on="0"/>
        <pt x="229" y="184" on="1"/>
        <pt x="235" y="209" on="0"/>
        <pt x="260" y="253" on="0"/>
        <pt x="297" y="286" on="0"/>
        <pt x="348" y="305" on="0"/>
        <pt x="379" y="305" on="1"/>
        <pt x="413" y="305" on="0"/>
        <pt x="467" y="283" on="0"/>
        <pt x="505" y="244" on="0"/>
        <pt x="525" y="190" on="0"/>
        <pt x="525" y="159" on="1"/>
        <pt x="525" y="123" on="0"/>
        <pt x="494" y="61" on="0"/>
        <pt x="438" y="16" on="0"/>
        <pt x="360" y="-9" on="0"/>
        <pt x="313" y="-9" on="1"/>
        <pt x="264" y="-9" on="0"/>
        <pt x="171" y="25" on="0"/>
        <pt x="99" y="86" on="0"/>
        <pt x="55" y="171" on="0"/>
        <pt x="55" y="223" on="1"/>
        <pt x="55" y="289" on="0"/>
        <pt x="109" y="398" on="0"/>
        <pt x="204" y="475" on="0"/>
        <pt x="332" y="518" on="0"/>
        <pt x="407" y="518" on="1"/>
        <pt x="486" y="518" on="0"/>
        <pt x="610" y="470" on="0"/>
        <pt x="695" y="390" on="0"/>
        <pt x="740" y="285" on="0"/>
        <pt x="740" y="227" on="1"/>
        <pt x="740" y="190" on="0"/>
        <pt x="728" y="125" on="0"/>
        <pt x="717" y="94" on="1"/>
        <pt x="920" y="94" on="1"/>
        <pt x="920" y="306" on="1"/>
        <pt x="920" y="418" on="0"/>
        <pt x="1014" y="518" on="0"/>
      </contour>
      <contour>
        <pt x="363" y="215" on="1"/>
        <pt x="329" y="215" on="0"/>
        <pt x="289" y="168" on="0"/>
        <pt x="284" y="137" on="1"/>
        <pt x="282" y="120" on="0"/>
        <pt x="283" y="88" on="0"/>
        <pt x="287" y="73" on="1"/>
        <pt x="295" y="71" on="0"/>
        <pt x="311" y="71" on="0"/>
        <pt x="319" y="71" on="1"/>
        <pt x="335" y="71" on="0"/>
        <pt x="370" y="82" on="0"/>
        <pt x="399" y="103" on="0"/>
        <pt x="418" y="136" on="0"/>
        <pt x="418" y="157" on="1"/>
        <pt x="418" y="183" on="0"/>
        <pt x="390" y="215" on="0"/>
      </contour>
      <contour>
        <pt x="775" y="677" on="1"/>
        <pt x="775" y="706" on="0"/>
        <pt x="812" y="743" on="0"/>
        <pt x="838" y="743" on="1"/>
        <pt x="866" y="743" on="0"/>
        <pt x="904" y="706" on="0"/>
        <pt x="904" y="677" on="1"/>
        <pt x="904" y="651" on="0"/>
        <pt x="866" y="614" on="0"/>
        <pt x="838" y="614" on="1"/>
        <pt x="812" y="614" on="0"/>
        <pt x="775" y="651" on="0"/>
      </contour>
    </TTGlyph>
    <TTGlyph name="hyphen" xMin="55" yMin="266" xMax="331" yMax="359">
      <contour>
        <pt x="331" y="359" on="1"/>
        <pt x="331" y="266" on="1"/>
        <pt x="55" y="266" on="1"/>
        <pt x="55" y="359" on="1"/>
      </contour>
    </TTGlyph>
    <TTGlyph name="i.tam" xMin="44" yMin="-258" xMax="965" yMax="741">
      <contour>
        <pt x="529" y="741" on="1"/>
        <pt x="631" y="741" on="0"/>
        <pt x="793" y="667" on="0"/>
        <pt x="906" y="539" on="0"/>
        <pt x="965" y="367" on="0"/>
        <pt x="965" y="269" on="1"/>
        <pt x="965" y="131" on="1"/>
        <pt x="879" y="131" on="1"/>
        <pt x="879" y="261" on="1"/>
        <pt x="879" y="350" on="0"/>
        <pt x="831" y="493" on="0"/>
        <pt x="741" y="594" on="0"/>
        <pt x="611" y="649" on="0"/>
        <pt x="529" y="649" on="1"/>
        <pt x="448" y="649" on="0"/>
        <pt x="315" y="599" on="0"/>
        <pt x="220" y="510" on="0"/>
        <pt x="169" y="387" on="0"/>
        <pt x="169" y="314" on="1"/>
        <pt x="169" y="243" on="0"/>
        <pt x="215" y="137" on="0"/>
        <pt x="250" y="88" on="1"/>
        <pt x="301" y="106" on="0"/>
        <pt x="431" y="127" on="0"/>
        <pt x="500" y="127" on="1"/>
        <pt x="542" y="127" on="0"/>
        <pt x="614" y="119" on="0"/>
        <pt x="649" y="111" on="1"/>
        <pt x="660" y="137" on="0"/>
        <pt x="671" y="198" on="0"/>
        <pt x="671" y="226" on="1"/>
        <pt x="671" y="261" on="0"/>
        <pt x="655" y="328" on="0"/>
        <pt x="625" y="385" on="0"/>
        <pt x="581" y="430" on="0"/>
        <pt x="553" y="444" on="1"/>
        <pt x="564" y="421" on="0"/>
        <pt x="577" y="366" on="0"/>
        <pt x="577" y="342" on="1"/>
        <pt x="577" y="314" on="0"/>
        <pt x="558" y="266" on="0"/>
        <pt x="524" y="230" on="0"/>
        <pt x="474" y="209" on="0"/>
        <pt x="443" y="209" on="1"/>
        <pt x="413" y="209" on="0"/>
        <pt x="360" y="228" on="0"/>
        <pt x="322" y="264" on="0"/>
        <pt x="300" y="314" on="0"/>
        <pt x="300" y="344" on="1"/>
        <pt x="300" y="384" on="0"/>
        <pt x="334" y="448" on="0"/>
        <pt x="390" y="492" on="0"/>
        <pt x="464" y="515" on="0"/>
        <pt x="505" y="515" on="1"/>
        <pt x="558" y="515" on="0"/>
        <pt x="649" y="472" on="0"/>
        <pt x="717" y="396" on="0"/>
        <pt x="755" y="290" on="0"/>
        <pt x="755" y="227" on="1"/>
        <pt x="755" y="157" on="0"/>
        <pt x="732" y="91" on="1"/>
        <pt x="781" y="75" on="0"/>
        <pt x="866" y="31" on="0"/>
        <pt x="929" y="-21" on="0"/>
        <pt x="965" y="-82" on="0"/>
        <pt x="965" y="-115" on="1"/>
        <pt x="965" y="-146" on="0"/>
        <pt x="940" y="-199" on="0"/>
        <pt x="894" y="-237" on="0"/>
        <pt x="830" y="-258" on="0"/>
        <pt x="791" y="-258" on="1"/>
        <pt x="723" y="-258" on="0"/>
        <pt x="582" y="-217" on="0"/>
        <pt x="506" y="-181" on="1"/>
        <pt x="446" y="-216" on="0"/>
        <pt x="316" y="-258" on="0"/>
        <pt x="239" y="-258" on="1"/>
        <pt x="195" y="-258" on="0"/>
        <pt x="124" y="-236" on="0"/>
        <pt x="72" y="-196" on="0"/>
        <pt x="44" y="-141" on="0"/>
        <pt x="44" y="-108" on="1"/>
        <pt x="44" y="-58" on="0"/>
        <pt x="113" y="26" on="0"/>
        <pt x="174" y="58" on="1"/>
        <pt x="128" y="118" on="0"/>
        <pt x="75" y="246" on="0"/>
        <pt x="75" y="318" on="1"/>
        <pt x="75" y="416" on="0"/>
        <pt x="146" y="573" on="0"/>
        <pt x="269" y="682" on="0"/>
        <pt x="434" y="741" on="0"/>
      </contour>
      <contour>
        <pt x="864" y="-109" on="1"/>
        <pt x="864" y="-70" on="0"/>
        <pt x="779" y="0" on="0"/>
        <pt x="707" y="26" on="1"/>
        <pt x="680" y="-26" on="0"/>
        <pt x="610" y="-106" on="0"/>
        <pt x="564" y="-139" on="1"/>
        <pt x="617" y="-159" on="0"/>
        <pt x="719" y="-182" on="0"/>
        <pt x="765" y="-182" on="1"/>
        <pt x="815" y="-182" on="0"/>
        <pt x="864" y="-139" on="0"/>
      </contour>
      <contour>
        <pt x="485" y="-100" on="1"/>
        <pt x="569" y="-40" on="0"/>
        <pt x="620" y="48" on="1"/>
        <pt x="591" y="53" on="0"/>
        <pt x="531" y="59" on="0"/>
        <pt x="499" y="59" on="1"/>
        <pt x="451" y="59" on="0"/>
        <pt x="346" y="44" on="0"/>
        <pt x="304" y="29" on="1"/>
        <pt x="342" y="-9" on="0"/>
        <pt x="436" y="-73" on="0"/>
      </contour>
      <contour>
        <pt x="243" y="-182" on="1"/>
        <pt x="287" y="-182" on="0"/>
        <pt x="383" y="-160" on="0"/>
        <pt x="428" y="-140" on="1"/>
        <pt x="368" y="-111" on="0"/>
        <pt x="264" y="-40" on="0"/>
        <pt x="229" y="-2" on="1"/>
        <pt x="187" y="-26" on="0"/>
        <pt x="142" y="-84" on="0"/>
        <pt x="142" y="-115" on="1"/>
        <pt x="142" y="-144" on="0"/>
        <pt x="192" y="-182" on="0"/>
      </contour>
      <contour>
        <pt x="504" y="433" on="1"/>
        <pt x="452" y="430" on="0"/>
        <pt x="381" y="384" on="0"/>
        <pt x="381" y="345" on="1"/>
        <pt x="381" y="316" on="0"/>
        <pt x="413" y="283" on="0"/>
        <pt x="438" y="283" on="1"/>
        <pt x="473" y="283" on="0"/>
        <pt x="513" y="331" on="0"/>
        <pt x="513" y="377" on="1"/>
        <pt x="513" y="392" on="0"/>
        <pt x="509" y="420" on="0"/>
      </contour>
    </TTGlyph>
    <TTGlyph name="ii.tam" xMin="97" yMin="0" xMax="715" yMax="509">
      <contour>
        <pt x="709" y="509" on="1"/>
        <pt x="709" y="416" on="1"/>
        <pt x="537" y="416" on="1"/>
        <pt x="537" y="0" on="1"/>
        <pt x="434" y="0" on="1"/>
        <pt x="434" y="416" on="1"/>
        <pt x="200" y="416" on="1"/>
        <pt x="200" y="0" on="1"/>
        <pt x="97" y="0" on="1"/>
        <pt x="97" y="509" on="1"/>
      </contour>
      <contour>
        <pt x="316" y="282" on="1"/>
        <pt x="343" y="282" on="0"/>
        <pt x="378" y="247" on="0"/>
        <pt x="378" y="221" on="1"/>
        <pt x="378" y="195" on="0"/>
        <pt x="343" y="161" on="0"/>
        <pt x="316" y="161" on="1"/>
        <pt x="290" y="161" on="0"/>
        <pt x="255" y="195" on="0"/>
        <pt x="255" y="221" on="1"/>
        <pt x="255" y="247" on="0"/>
        <pt x="290" y="282" on="0"/>
      </contour>
      <contour>
        <pt x="653" y="282" on="1"/>
        <pt x="680" y="282" on="0"/>
        <pt x="715" y="247" on="0"/>
        <pt x="715" y="221" on="1"/>
        <pt x="715" y="195" on="0"/>
        <pt x="680" y="161" on="0"/>
        <pt x="653" y="161" on="1"/>
        <pt x="627" y="161" on="0"/>
        <pt x="592" y="195" on="0"/>
        <pt x="592" y="221" on="1"/>
        <pt x="592" y="247" on="0"/>
        <pt x="627" y="282" on="0"/>
      </contour>
    </TTGlyph>
    <TTGlyph name="iimatra.alt.tam" xMin="4" yMin="487" xMax="447" yMax="845">
      <contour>
        <pt x="232" y="845" on="1"/>
        <pt x="281" y="845" on="0"/>
        <pt x="361" y="819" on="0"/>
        <pt x="417" y="775" on="0"/>
        <pt x="447" y="718" on="0"/>
        <pt x="447" y="688" on="1"/>
        <pt x="447" y="634" on="0"/>
        <pt x="370" y="567" on="0"/>
        <pt x="302" y="567" on="1"/>
        <pt x="269" y="567" on="0"/>
        <pt x="221" y="584" on="0"/>
        <pt x="190" y="613" on="0"/>
        <pt x="174" y="651" on="0"/>
        <pt x="174" y="672" on="1"/>
        <pt x="174" y="725" on="0"/>
        <pt x="216" y="765" on="1"/>
        <pt x="167" y="757" on="0"/>
        <pt x="99" y="688" on="0"/>
        <pt x="99" y="636" on="1"/>
        <pt x="99" y="592" on="0"/>
        <pt x="161" y="526" on="0"/>
        <pt x="218" y="509" on="1"/>
        <pt x="151" y="487" on="1"/>
        <pt x="119" y="494" on="0"/>
        <pt x="65" y="527" on="0"/>
        <pt x="26" y="572" on="0"/>
        <pt x="4" y="628" on="0"/>
        <pt x="4" y="660" on="1"/>
        <pt x="4" y="699" on="0"/>
        <pt x="40" y="767" on="0"/>
        <pt x="101" y="817" on="0"/>
        <pt x="184" y="845" on="0"/>
      </contour>
      <contour>
        <pt x="261" y="769" on="1"/>
        <pt x="250" y="752" on="0"/>
        <pt x="235" y="713" on="0"/>
        <pt x="235" y="695" on="1"/>
        <pt x="235" y="669" on="0"/>
        <pt x="265" y="636" on="0"/>
        <pt x="291" y="636" on="1"/>
        <pt x="317" y="636" on="0"/>
        <pt x="348" y="668" on="0"/>
        <pt x="348" y="692" on="1"/>
        <pt x="348" y="724" on="0"/>
        <pt x="296" y="763" on="0"/>
      </contour>
    </TTGlyph>
    <TTGlyph name="iimatra.tam" xMin="21" yMin="496" xMax="464" yMax="845">
      <contour>
        <pt x="249" y="845" on="1"/>
        <pt x="298" y="845" on="0"/>
        <pt x="378" y="819" on="0"/>
        <pt x="434" y="775" on="0"/>
        <pt x="464" y="718" on="0"/>
        <pt x="464" y="688" on="1"/>
        <pt x="464" y="634" on="0"/>
        <pt x="387" y="567" on="0"/>
        <pt x="318" y="567" on="1"/>
        <pt x="286" y="567" on="0"/>
        <pt x="238" y="584" on="0"/>
        <pt x="206" y="613" on="0"/>
        <pt x="191" y="651" on="0"/>
        <pt x="191" y="672" on="1"/>
        <pt x="191" y="725" on="0"/>
        <pt x="233" y="765" on="1"/>
        <pt x="183" y="757" on="0"/>
        <pt x="117" y="689" on="0"/>
        <pt x="117" y="636" on="1"/>
        <pt x="117" y="594" on="0"/>
        <pt x="168" y="530" on="0"/>
        <pt x="216" y="508" on="1"/>
        <pt x="186" y="496" on="1"/>
        <pt x="148" y="500" on="0"/>
        <pt x="88" y="530" on="0"/>
        <pt x="44" y="573" on="0"/>
        <pt x="21" y="629" on="0"/>
        <pt x="21" y="660" on="1"/>
        <pt x="21" y="700" on="0"/>
        <pt x="57" y="767" on="0"/>
        <pt x="118" y="817" on="0"/>
        <pt x="201" y="845" on="0"/>
      </contour>
      <contour>
        <pt x="279" y="769" on="1"/>
        <pt x="268" y="752" on="0"/>
        <pt x="252" y="713" on="0"/>
        <pt x="252" y="695" on="1"/>
        <pt x="252" y="669" on="0"/>
        <pt x="281" y="636" on="0"/>
        <pt x="307" y="636" on="1"/>
        <pt x="334" y="636" on="0"/>
        <pt x="365" y="669" on="0"/>
        <pt x="365" y="692" on="1"/>
        <pt x="365" y="724" on="0"/>
        <pt x="312" y="763" on="0"/>
      </contour>
    </TTGlyph>
    <TTGlyph name="imatra.alt.tam" xMin="-307" yMin="0" xMax="145" yMax="790">
      <contour>
        <pt x="-103" y="790" on="1"/>
        <pt x="-47" y="790" on="0"/>
        <pt x="44" y="751" on="0"/>
        <pt x="109" y="678" on="0"/>
        <pt x="145" y="573" on="0"/>
        <pt x="145" y="507" on="1"/>
        <pt x="145" y="0" on="1"/>
        <pt x="43" y="0" on="1"/>
        <pt x="43" y="505" on="1"/>
        <pt x="43" y="593" on="0"/>
        <pt x="-28" y="692" on="0"/>
        <pt x="-94" y="692" on="1"/>
        <pt x="-141" y="692" on="0"/>
        <pt x="-201" y="634" on="0"/>
        <pt x="-201" y="589" on="1"/>
        <pt x="-201" y="527" on="0"/>
        <pt x="-151" y="486" on="1"/>
        <pt x="-171" y="486" on="1"/>
        <pt x="-197" y="491" on="0"/>
        <pt x="-246" y="518" on="0"/>
        <pt x="-284" y="558" on="0"/>
        <pt x="-307" y="608" on="0"/>
        <pt x="-307" y="635" on="1"/>
        <pt x="-307" y="668" on="0"/>
        <pt x="-279" y="725" on="0"/>
        <pt x="-226" y="767" on="0"/>
        <pt x="-150" y="790" on="0"/>
      </contour>
    </TTGlyph>
    <TTGlyph name="imatra.alt1.tam" xMin="-272" yMin="0" xMax="181" yMax="790">
      <contour>
        <pt x="-65" y="790" on="1"/>
        <pt x="-11" y="790" on="0"/>
        <pt x="80" y="750" on="0"/>
        <pt x="145" y="674" on="0"/>
        <pt x="181" y="566" on="0"/>
        <pt x="181" y="499" on="1"/>
        <pt x="181" y="0" on="1"/>
        <pt x="79" y="0" on="1"/>
        <pt x="79" y="499" on="1"/>
        <pt x="79" y="599" on="0"/>
        <pt x="4" y="696" on="0"/>
        <pt x="-59" y="696" on="1"/>
        <pt x="-108" y="696" on="0"/>
        <pt x="-168" y="640" on="0"/>
        <pt x="-168" y="599" on="1"/>
        <pt x="-168" y="565" on="0"/>
        <pt x="-122" y="518" on="0"/>
        <pt x="-87" y="509" on="1"/>
        <pt x="-120" y="464" on="1"/>
        <pt x="-150" y="467" on="0"/>
        <pt x="-205" y="491" on="0"/>
        <pt x="-247" y="531" on="0"/>
        <pt x="-272" y="586" on="0"/>
        <pt x="-272" y="620" on="1"/>
        <pt x="-272" y="654" on="0"/>
        <pt x="-244" y="716" on="0"/>
        <pt x="-191" y="763" on="0"/>
        <pt x="-114" y="790" on="0"/>
      </contour>
    </TTGlyph>
    <TTGlyph name="imatra.alt2.tam" xMin="-439" yMin="0" xMax="181" yMax="790">
      <contour>
        <pt x="-173" y="790" on="1"/>
        <pt x="-94" y="790" on="0"/>
        <pt x="37" y="735" on="0"/>
        <pt x="130" y="630" on="0"/>
        <pt x="181" y="479" on="0"/>
        <pt x="181" y="384" on="1"/>
        <pt x="181" y="0" on="1"/>
        <pt x="79" y="0" on="1"/>
        <pt x="79" y="384" on="1"/>
        <pt x="79" y="528" on="0"/>
        <pt x="-47" y="692" on="0"/>
        <pt x="-165" y="692" on="1"/>
        <pt x="-241" y="692" on="0"/>
        <pt x="-334" y="623" on="0"/>
        <pt x="-334" y="567" on="1"/>
        <pt x="-334" y="525" on="0"/>
        <pt x="-309" y="487" on="1"/>
        <pt x="-331" y="487" on="1"/>
        <pt x="-376" y="497" on="0"/>
        <pt x="-439" y="564" on="0"/>
        <pt x="-439" y="613" on="1"/>
        <pt x="-439" y="647" on="0"/>
        <pt x="-406" y="711" on="0"/>
        <pt x="-339" y="760" on="0"/>
        <pt x="-239" y="790" on="0"/>
      </contour>
    </TTGlyph>
    <TTGlyph name="imatra.tam" xMin="-409" yMin="0" xMax="163" yMax="790">
      <contour>
        <pt x="-153" y="790" on="1"/>
        <pt x="-74" y="790" on="0"/>
        <pt x="44" y="739" on="0"/>
        <pt x="123" y="643" on="0"/>
        <pt x="163" y="505" on="0"/>
        <pt x="163" y="417" on="1"/>
        <pt x="163" y="0" on="1"/>
        <pt x="61" y="0" on="1"/>
        <pt x="61" y="417" on="1"/>
        <pt x="61" y="491" on="0"/>
        <pt x="33" y="596" on="0"/>
        <pt x="-19" y="662" on="0"/>
        <pt x="-96" y="692" on="0"/>
        <pt x="-145" y="692" on="1"/>
        <pt x="-180" y="692" on="0"/>
        <pt x="-238" y="673" on="0"/>
        <pt x="-282" y="640" on="0"/>
        <pt x="-306" y="593" on="0"/>
        <pt x="-306" y="565" on="1"/>
        <pt x="-306" y="522" on="0"/>
        <pt x="-280" y="487" on="1"/>
        <pt x="-300" y="487" on="1"/>
        <pt x="-324" y="491" on="0"/>
        <pt x="-364" y="515" on="0"/>
        <pt x="-393" y="549" on="0"/>
        <pt x="-409" y="592" on="0"/>
        <pt x="-409" y="615" on="1"/>
        <pt x="-409" y="652" on="0"/>
        <pt x="-372" y="717" on="0"/>
        <pt x="-304" y="763" on="0"/>
        <pt x="-210" y="790" on="0"/>
      </contour>
    </TTGlyph>
    <TTGlyph name="ja.tam" xMin="63" yMin="-265" xMax="827" yMax="518">
      <contour>
        <pt x="272" y="518" on="1"/>
        <pt x="341" y="518" on="0"/>
        <pt x="433" y="451" on="0"/>
        <pt x="456" y="400" on="1"/>
        <pt x="482" y="458" on="0"/>
        <pt x="572" y="518" on="0"/>
        <pt x="632" y="518" on="1"/>
        <pt x="671" y="518" on="0"/>
        <pt x="740" y="487" on="0"/>
        <pt x="792" y="431" on="0"/>
        <pt x="822" y="355" on="0"/>
        <pt x="822" y="309" on="1"/>
        <pt x="822" y="240" on="0"/>
        <pt x="766" y="138" on="0"/>
        <pt x="670" y="71" on="0"/>
        <pt x="539" y="38" on="0"/>
        <pt x="464" y="38" on="1"/>
        <pt x="285" y="38" on="1"/>
        <pt x="262" y="38" on="0"/>
        <pt x="220" y="24" on="0"/>
        <pt x="189" y="-3" on="0"/>
        <pt x="171" y="-40" on="0"/>
        <pt x="171" y="-63" on="1"/>
        <pt x="171" y="-110" on="0"/>
        <pt x="237" y="-165" on="0"/>
        <pt x="284" y="-165" on="1"/>
        <pt x="316" y="-165" on="0"/>
        <pt x="380" y="-140" on="0"/>
        <pt x="443" y="-103" on="0"/>
        <pt x="506" y="-59" on="0"/>
        <pt x="572" y="-22" on="0"/>
        <pt x="642" y="3" on="0"/>
        <pt x="679" y="3" on="1"/>
        <pt x="716" y="3" on="0"/>
        <pt x="772" y="-17" on="0"/>
        <pt x="809" y="-51" on="0"/>
        <pt x="827" y="-96" on="0"/>
        <pt x="827" y="-121" on="1"/>
        <pt x="827" y="-175" on="0"/>
        <pt x="756" y="-249" on="0"/>
        <pt x="682" y="-265" on="1"/>
        <pt x="613" y="-216" on="1"/>
        <pt x="663" y="-203" on="0"/>
        <pt x="723" y="-162" on="0"/>
        <pt x="723" y="-131" on="1"/>
        <pt x="723" y="-110" on="0"/>
        <pt x="693" y="-83" on="0"/>
        <pt x="668" y="-83" on="1"/>
        <pt x="643" y="-83" on="0"/>
        <pt x="587" y="-109" on="0"/>
        <pt x="527" y="-148" on="0"/>
        <pt x="462" y="-193" on="0"/>
        <pt x="393" y="-232" on="0"/>
        <pt x="321" y="-258" on="0"/>
        <pt x="284" y="-258" on="1"/>
        <pt x="236" y="-258" on="0"/>
        <pt x="154" y="-229" on="0"/>
        <pt x="96" y="-178" on="0"/>
        <pt x="63" y="-106" on="0"/>
        <pt x="63" y="-63" on="1"/>
        <pt x="63" y="-19" on="0"/>
        <pt x="96" y="49" on="0"/>
        <pt x="155" y="96" on="0"/>
        <pt x="236" y="120" on="0"/>
        <pt x="285" y="120" on="1"/>
        <pt x="464" y="120" on="1"/>
        <pt x="581" y="120" on="0"/>
        <pt x="713" y="220" on="0"/>
        <pt x="713" y="315" on="1"/>
        <pt x="713" y="371" on="0"/>
        <pt x="667" y="428" on="0"/>
        <pt x="631" y="428" on="1"/>
        <pt x="590" y="428" on="0"/>
        <pt x="538" y="359" on="0"/>
        <pt x="538" y="290" on="1"/>
        <pt x="538" y="208" on="1"/>
        <pt x="436" y="208" on="1"/>
        <pt x="436" y="262" on="1"/>
        <pt x="436" y="319" on="0"/>
        <pt x="388" y="405" on="0"/>
        <pt x="341" y="417" on="1"/>
        <pt x="328" y="425" on="0"/>
        <pt x="296" y="430" on="0"/>
        <pt x="282" y="431" on="1"/>
        <pt x="317" y="406" on="0"/>
        <pt x="357" y="332" on="0"/>
        <pt x="357" y="295" on="1"/>
        <pt x="357" y="247" on="0"/>
        <pt x="291" y="179" on="0"/>
        <pt x="224" y="179" on="1"/>
        <pt x="192" y="179" on="0"/>
        <pt x="134" y="199" on="0"/>
        <pt x="89" y="237" on="0"/>
        <pt x="63" y="294" on="0"/>
        <pt x="63" y="332" on="1"/>
        <pt x="63" y="373" on="0"/>
        <pt x="99" y="442" on="0"/>
        <pt x="158" y="491" on="0"/>
        <pt x="233" y="518" on="0"/>
      </contour>
      <contour>
        <pt x="237" y="421" on="1"/>
        <pt x="202" y="407" on="0"/>
        <pt x="163" y="356" on="0"/>
        <pt x="163" y="321" on="1"/>
        <pt x="163" y="289" on="0"/>
        <pt x="198" y="256" on="0"/>
        <pt x="224" y="256" on="1"/>
        <pt x="256" y="256" on="0"/>
        <pt x="290" y="297" on="0"/>
        <pt x="290" y="327" on="1"/>
        <pt x="290" y="354" on="0"/>
        <pt x="263" y="404" on="0"/>
      </contour>
    </TTGlyph>
    <TTGlyph name="jansv.tam" xMin="63" yMin="-265" xMax="827" yMax="832">
      <contour>
        <pt x="272" y="518" on="1"/>
        <pt x="341" y="518" on="0"/>
        <pt x="433" y="451" on="0"/>
        <pt x="456" y="400" on="1"/>
        <pt x="482" y="458" on="0"/>
        <pt x="572" y="518" on="0"/>
        <pt x="632" y="518" on="1"/>
        <pt x="671" y="518" on="0"/>
        <pt x="740" y="487" on="0"/>
        <pt x="792" y="431" on="0"/>
        <pt x="822" y="355" on="0"/>
        <pt x="822" y="309" on="1"/>
        <pt x="822" y="240" on="0"/>
        <pt x="766" y="138" on="0"/>
        <pt x="670" y="71" on="0"/>
        <pt x="539" y="38" on="0"/>
        <pt x="464" y="38" on="1"/>
        <pt x="285" y="38" on="1"/>
        <pt x="262" y="38" on="0"/>
        <pt x="220" y="24" on="0"/>
        <pt x="189" y="-3" on="0"/>
        <pt x="171" y="-40" on="0"/>
        <pt x="171" y="-63" on="1"/>
        <pt x="171" y="-110" on="0"/>
        <pt x="237" y="-165" on="0"/>
        <pt x="284" y="-165" on="1"/>
        <pt x="316" y="-165" on="0"/>
        <pt x="380" y="-140" on="0"/>
        <pt x="443" y="-103" on="0"/>
        <pt x="506" y="-59" on="0"/>
        <pt x="572" y="-22" on="0"/>
        <pt x="642" y="3" on="0"/>
        <pt x="679" y="3" on="1"/>
        <pt x="716" y="3" on="0"/>
        <pt x="772" y="-17" on="0"/>
        <pt x="809" y="-51" on="0"/>
        <pt x="827" y="-96" on="0"/>
        <pt x="827" y="-121" on="1"/>
        <pt x="827" y="-175" on="0"/>
        <pt x="756" y="-249" on="0"/>
        <pt x="682" y="-265" on="1"/>
        <pt x="613" y="-216" on="1"/>
        <pt x="663" y="-203" on="0"/>
        <pt x="723" y="-162" on="0"/>
        <pt x="723" y="-131" on="1"/>
        <pt x="723" y="-110" on="0"/>
        <pt x="693" y="-83" on="0"/>
        <pt x="668" y="-83" on="1"/>
        <pt x="643" y="-83" on="0"/>
        <pt x="587" y="-109" on="0"/>
        <pt x="527" y="-148" on="0"/>
        <pt x="462" y="-193" on="0"/>
        <pt x="393" y="-232" on="0"/>
        <pt x="321" y="-258" on="0"/>
        <pt x="284" y="-258" on="1"/>
        <pt x="236" y="-258" on="0"/>
        <pt x="154" y="-229" on="0"/>
        <pt x="96" y="-178" on="0"/>
        <pt x="63" y="-106" on="0"/>
        <pt x="63" y="-63" on="1"/>
        <pt x="63" y="-19" on="0"/>
        <pt x="96" y="49" on="0"/>
        <pt x="155" y="96" on="0"/>
        <pt x="236" y="120" on="0"/>
        <pt x="285" y="120" on="1"/>
        <pt x="464" y="120" on="1"/>
        <pt x="581" y="120" on="0"/>
        <pt x="713" y="220" on="0"/>
        <pt x="713" y="315" on="1"/>
        <pt x="713" y="371" on="0"/>
        <pt x="667" y="428" on="0"/>
        <pt x="631" y="428" on="1"/>
        <pt x="590" y="428" on="0"/>
        <pt x="538" y="359" on="0"/>
        <pt x="538" y="290" on="1"/>
        <pt x="538" y="208" on="1"/>
        <pt x="436" y="208" on="1"/>
        <pt x="436" y="262" on="1"/>
        <pt x="436" y="319" on="0"/>
        <pt x="388" y="405" on="0"/>
        <pt x="341" y="417" on="1"/>
        <pt x="328" y="425" on="0"/>
        <pt x="296" y="430" on="0"/>
        <pt x="282" y="431" on="1"/>
        <pt x="317" y="406" on="0"/>
        <pt x="357" y="332" on="0"/>
        <pt x="357" y="295" on="1"/>
        <pt x="357" y="247" on="0"/>
        <pt x="291" y="179" on="0"/>
        <pt x="224" y="179" on="1"/>
        <pt x="192" y="179" on="0"/>
        <pt x="134" y="199" on="0"/>
        <pt x="89" y="237" on="0"/>
        <pt x="63" y="294" on="0"/>
        <pt x="63" y="332" on="1"/>
        <pt x="63" y="373" on="0"/>
        <pt x="99" y="442" on="0"/>
        <pt x="158" y="491" on="0"/>
        <pt x="233" y="518" on="0"/>
      </contour>
      <contour>
        <pt x="237" y="421" on="1"/>
        <pt x="202" y="407" on="0"/>
        <pt x="163" y="356" on="0"/>
        <pt x="163" y="321" on="1"/>
        <pt x="163" y="289" on="0"/>
        <pt x="198" y="256" on="0"/>
        <pt x="224" y="256" on="1"/>
        <pt x="256" y="256" on="0"/>
        <pt x="290" y="297" on="0"/>
        <pt x="290" y="327" on="1"/>
        <pt x="290" y="354" on="0"/>
        <pt x="263" y="404" on="0"/>
      </contour>
      <contour>
        <pt x="456" y="832" on="1"/>
        <pt x="516" y="832" on="0"/>
        <pt x="592" y="768" on="0"/>
        <pt x="592" y="711" on="1"/>
        <pt x="592" y="654" on="0"/>
        <pt x="516" y="591" on="0"/>
        <pt x="456" y="591" on="1"/>
        <pt x="396" y="591" on="0"/>
        <pt x="320" y="654" on="0"/>
        <pt x="320" y="711" on="1"/>
        <pt x="320" y="768" on="0"/>
        <pt x="396" y="832" on="0"/>
      </contour>
      <contour>
        <pt x="456" y="761" on="1"/>
        <pt x="435" y="761" on="0"/>
        <pt x="412" y="734" on="0"/>
        <pt x="412" y="711" on="1"/>
        <pt x="412" y="688" on="0"/>
        <pt x="435" y="663" on="0"/>
        <pt x="456" y="663" on="1"/>
        <pt x="478" y="663" on="0"/>
        <pt x="501" y="688" on="0"/>
        <pt x="501" y="711" on="1"/>
        <pt x="501" y="734" on="0"/>
        <pt x="478" y="761" on="0"/>
      </contour>
    </TTGlyph>
    <TTGlyph name="ji.tam" xMin="61" yMin="-265" xMax="1027" yMax="790">
      <contour>
        <pt x="779" y="790" on="1"/>
        <pt x="835" y="790" on="0"/>
        <pt x="926" y="751" on="0"/>
        <pt x="991" y="678" on="0"/>
        <pt x="1027" y="573" on="0"/>
        <pt x="1027" y="507" on="1"/>
        <pt x="1027" y="0" on="1"/>
        <pt x="925" y="0" on="1"/>
        <pt x="925" y="505" on="1"/>
        <pt x="925" y="593" on="0"/>
        <pt x="854" y="692" on="0"/>
        <pt x="788" y="692" on="1"/>
        <pt x="741" y="692" on="0"/>
        <pt x="681" y="634" on="0"/>
        <pt x="681" y="589" on="1"/>
        <pt x="681" y="560" on="0"/>
        <pt x="703" y="510" on="0"/>
        <pt x="726" y="490" on="1"/>
        <pt x="768" y="464" on="0"/>
        <pt x="820" y="370" on="0"/>
        <pt x="820" y="309" on="1"/>
        <pt x="820" y="240" on="0"/>
        <pt x="764" y="138" on="0"/>
        <pt x="668" y="71" on="0"/>
        <pt x="537" y="38" on="0"/>
        <pt x="462" y="38" on="1"/>
        <pt x="283" y="38" on="1"/>
        <pt x="260" y="38" on="0"/>
        <pt x="218" y="24" on="0"/>
        <pt x="187" y="-3" on="0"/>
        <pt x="169" y="-40" on="0"/>
        <pt x="169" y="-63" on="1"/>
        <pt x="169" y="-110" on="0"/>
        <pt x="235" y="-165" on="0"/>
        <pt x="282" y="-165" on="1"/>
        <pt x="314" y="-165" on="0"/>
        <pt x="378" y="-140" on="0"/>
        <pt x="441" y="-103" on="0"/>
        <pt x="504" y="-59" on="0"/>
        <pt x="570" y="-22" on="0"/>
        <pt x="640" y="3" on="0"/>
        <pt x="677" y="3" on="1"/>
        <pt x="714" y="3" on="0"/>
        <pt x="770" y="-17" on="0"/>
        <pt x="807" y="-51" on="0"/>
        <pt x="825" y="-96" on="0"/>
        <pt x="825" y="-121" on="1"/>
        <pt x="825" y="-175" on="0"/>
        <pt x="754" y="-249" on="0"/>
        <pt x="680" y="-265" on="1"/>
        <pt x="611" y="-216" on="1"/>
        <pt x="661" y="-203" on="0"/>
        <pt x="721" y="-162" on="0"/>
        <pt x="721" y="-131" on="1"/>
        <pt x="721" y="-110" on="0"/>
        <pt x="691" y="-83" on="0"/>
        <pt x="666" y="-83" on="1"/>
        <pt x="641" y="-83" on="0"/>
        <pt x="585" y="-109" on="0"/>
        <pt x="525" y="-148" on="0"/>
        <pt x="460" y="-193" on="0"/>
        <pt x="391" y="-232" on="0"/>
        <pt x="319" y="-258" on="0"/>
        <pt x="282" y="-258" on="1"/>
        <pt x="234" y="-258" on="0"/>
        <pt x="152" y="-229" on="0"/>
        <pt x="94" y="-178" on="0"/>
        <pt x="61" y="-106" on="0"/>
        <pt x="61" y="-63" on="1"/>
        <pt x="61" y="-19" on="0"/>
        <pt x="94" y="49" on="0"/>
        <pt x="153" y="96" on="0"/>
        <pt x="234" y="120" on="0"/>
        <pt x="283" y="120" on="1"/>
        <pt x="462" y="120" on="1"/>
        <pt x="579" y="120" on="0"/>
        <pt x="711" y="220" on="0"/>
        <pt x="711" y="315" on="1"/>
        <pt x="711" y="371" on="0"/>
        <pt x="665" y="428" on="0"/>
        <pt x="629" y="428" on="1"/>
        <pt x="588" y="428" on="0"/>
        <pt x="536" y="359" on="0"/>
        <pt x="536" y="290" on="1"/>
        <pt x="536" y="208" on="1"/>
        <pt x="434" y="208" on="1"/>
        <pt x="434" y="262" on="1"/>
        <pt x="434" y="319" on="0"/>
        <pt x="386" y="405" on="0"/>
        <pt x="339" y="417" on="1"/>
        <pt x="326" y="425" on="0"/>
        <pt x="294" y="430" on="0"/>
        <pt x="280" y="431" on="1"/>
        <pt x="315" y="406" on="0"/>
        <pt x="355" y="332" on="0"/>
        <pt x="355" y="295" on="1"/>
        <pt x="355" y="247" on="0"/>
        <pt x="289" y="179" on="0"/>
        <pt x="222" y="179" on="1"/>
        <pt x="190" y="179" on="0"/>
        <pt x="132" y="199" on="0"/>
        <pt x="87" y="237" on="0"/>
        <pt x="61" y="294" on="0"/>
        <pt x="61" y="332" on="1"/>
        <pt x="61" y="373" on="0"/>
        <pt x="97" y="442" on="0"/>
        <pt x="156" y="491" on="0"/>
        <pt x="231" y="518" on="0"/>
        <pt x="270" y="518" on="1"/>
        <pt x="339" y="518" on="0"/>
        <pt x="431" y="451" on="0"/>
        <pt x="454" y="400" on="1"/>
        <pt x="480" y="458" on="0"/>
        <pt x="570" y="518" on="0"/>
        <pt x="630" y="518" on="1"/>
        <pt x="640" y="518" on="1"/>
        <pt x="611" y="539" on="0"/>
        <pt x="575" y="600" on="0"/>
        <pt x="575" y="635" on="1"/>
        <pt x="575" y="668" on="0"/>
        <pt x="603" y="725" on="0"/>
        <pt x="656" y="767" on="0"/>
        <pt x="732" y="790" on="0"/>
      </contour>
      <contour>
        <pt x="235" y="421" on="1"/>
        <pt x="200" y="407" on="0"/>
        <pt x="161" y="356" on="0"/>
        <pt x="161" y="321" on="1"/>
        <pt x="161" y="289" on="0"/>
        <pt x="196" y="256" on="0"/>
        <pt x="222" y="256" on="1"/>
        <pt x="254" y="256" on="0"/>
        <pt x="288" y="297" on="0"/>
        <pt x="288" y="327" on="1"/>
        <pt x="288" y="354" on="0"/>
        <pt x="261" y="404" on="0"/>
      </contour>
    </TTGlyph>
    <TTGlyph name="jii.tam" xMin="63" yMin="-265" xMax="915" yMax="845">
      <contour>
        <pt x="700" y="845" on="1"/>
        <pt x="749" y="845" on="0"/>
        <pt x="829" y="819" on="0"/>
        <pt x="885" y="775" on="0"/>
        <pt x="915" y="718" on="0"/>
        <pt x="915" y="688" on="1"/>
        <pt x="915" y="634" on="0"/>
        <pt x="838" y="567" on="0"/>
        <pt x="770" y="567" on="1"/>
        <pt x="737" y="567" on="0"/>
        <pt x="689" y="584" on="0"/>
        <pt x="658" y="613" on="0"/>
        <pt x="642" y="651" on="0"/>
        <pt x="642" y="672" on="1"/>
        <pt x="642" y="725" on="0"/>
        <pt x="684" y="765" on="1"/>
        <pt x="635" y="757" on="0"/>
        <pt x="567" y="688" on="0"/>
        <pt x="567" y="636" on="1"/>
        <pt x="567" y="594" on="0"/>
        <pt x="621" y="531" on="0"/>
        <pt x="672" y="513" on="1"/>
        <pt x="704" y="506" on="0"/>
        <pt x="759" y="470" on="0"/>
        <pt x="799" y="417" on="0"/>
        <pt x="822" y="348" on="0"/>
        <pt x="822" y="309" on="1"/>
        <pt x="822" y="240" on="0"/>
        <pt x="766" y="138" on="0"/>
        <pt x="670" y="71" on="0"/>
        <pt x="539" y="38" on="0"/>
        <pt x="464" y="38" on="1"/>
        <pt x="285" y="38" on="1"/>
        <pt x="262" y="38" on="0"/>
        <pt x="220" y="24" on="0"/>
        <pt x="189" y="-3" on="0"/>
        <pt x="171" y="-40" on="0"/>
        <pt x="171" y="-63" on="1"/>
        <pt x="171" y="-110" on="0"/>
        <pt x="237" y="-165" on="0"/>
        <pt x="284" y="-165" on="1"/>
        <pt x="316" y="-165" on="0"/>
        <pt x="380" y="-140" on="0"/>
        <pt x="443" y="-103" on="0"/>
        <pt x="506" y="-59" on="0"/>
        <pt x="572" y="-22" on="0"/>
        <pt x="642" y="3" on="0"/>
        <pt x="679" y="3" on="1"/>
        <pt x="716" y="3" on="0"/>
        <pt x="772" y="-17" on="0"/>
        <pt x="809" y="-51" on="0"/>
        <pt x="827" y="-96" on="0"/>
        <pt x="827" y="-121" on="1"/>
        <pt x="827" y="-175" on="0"/>
        <pt x="756" y="-249" on="0"/>
        <pt x="682" y="-265" on="1"/>
        <pt x="613" y="-216" on="1"/>
        <pt x="663" y="-203" on="0"/>
        <pt x="723" y="-162" on="0"/>
        <pt x="723" y="-131" on="1"/>
        <pt x="723" y="-110" on="0"/>
        <pt x="693" y="-83" on="0"/>
        <pt x="668" y="-83" on="1"/>
        <pt x="643" y="-83" on="0"/>
        <pt x="587" y="-109" on="0"/>
        <pt x="527" y="-148" on="0"/>
        <pt x="462" y="-193" on="0"/>
        <pt x="393" y="-232" on="0"/>
        <pt x="321" y="-258" on="0"/>
        <pt x="284" y="-258" on="1"/>
        <pt x="236" y="-258" on="0"/>
        <pt x="154" y="-229" on="0"/>
        <pt x="96" y="-178" on="0"/>
        <pt x="63" y="-106" on="0"/>
        <pt x="63" y="-63" on="1"/>
        <pt x="63" y="-19" on="0"/>
        <pt x="96" y="49" on="0"/>
        <pt x="155" y="96" on="0"/>
        <pt x="236" y="120" on="0"/>
        <pt x="285" y="120" on="1"/>
        <pt x="464" y="120" on="1"/>
        <pt x="581" y="120" on="0"/>
        <pt x="713" y="220" on="0"/>
        <pt x="713" y="315" on="1"/>
        <pt x="713" y="371" on="0"/>
        <pt x="667" y="428" on="0"/>
        <pt x="631" y="428" on="1"/>
        <pt x="590" y="428" on="0"/>
        <pt x="538" y="359" on="0"/>
        <pt x="538" y="290" on="1"/>
        <pt x="538" y="208" on="1"/>
        <pt x="436" y="208" on="1"/>
        <pt x="436" y="262" on="1"/>
        <pt x="436" y="319" on="0"/>
        <pt x="388" y="405" on="0"/>
        <pt x="341" y="417" on="1"/>
        <pt x="328" y="425" on="0"/>
        <pt x="296" y="430" on="0"/>
        <pt x="282" y="431" on="1"/>
        <pt x="317" y="406" on="0"/>
        <pt x="357" y="332" on="0"/>
        <pt x="357" y="295" on="1"/>
        <pt x="357" y="247" on="0"/>
        <pt x="291" y="179" on="0"/>
        <pt x="224" y="179" on="1"/>
        <pt x="192" y="179" on="0"/>
        <pt x="134" y="199" on="0"/>
        <pt x="89" y="237" on="0"/>
        <pt x="63" y="294" on="0"/>
        <pt x="63" y="332" on="1"/>
        <pt x="63" y="373" on="0"/>
        <pt x="99" y="442" on="0"/>
        <pt x="158" y="491" on="0"/>
        <pt x="233" y="518" on="0"/>
        <pt x="272" y="518" on="1"/>
        <pt x="341" y="518" on="0"/>
        <pt x="433" y="451" on="0"/>
        <pt x="456" y="400" on="1"/>
        <pt x="492" y="481" on="0"/>
        <pt x="566" y="507" on="1"/>
        <pt x="523" y="530" on="0"/>
        <pt x="472" y="611" on="0"/>
        <pt x="472" y="660" on="1"/>
        <pt x="472" y="699" on="0"/>
        <pt x="508" y="767" on="0"/>
        <pt x="569" y="817" on="0"/>
        <pt x="652" y="845" on="0"/>
      </contour>
      <contour>
        <pt x="237" y="421" on="1"/>
        <pt x="202" y="407" on="0"/>
        <pt x="163" y="356" on="0"/>
        <pt x="163" y="321" on="1"/>
        <pt x="163" y="289" on="0"/>
        <pt x="198" y="256" on="0"/>
        <pt x="224" y="256" on="1"/>
        <pt x="256" y="256" on="0"/>
        <pt x="290" y="297" on="0"/>
        <pt x="290" y="327" on="1"/>
        <pt x="290" y="354" on="0"/>
        <pt x="263" y="404" on="0"/>
      </contour>
      <contour>
        <pt x="729" y="769" on="1"/>
        <pt x="718" y="752" on="0"/>
        <pt x="703" y="713" on="0"/>
        <pt x="703" y="695" on="1"/>
        <pt x="703" y="669" on="0"/>
        <pt x="733" y="636" on="0"/>
        <pt x="759" y="636" on="1"/>
        <pt x="785" y="636" on="0"/>
        <pt x="816" y="668" on="0"/>
        <pt x="816" y="692" on="1"/>
        <pt x="816" y="724" on="0"/>
        <pt x="764" y="763" on="0"/>
      </contour>
    </TTGlyph>
    <TTGlyph name="ju.tam" xMin="63" yMin="-265" xMax="1267" yMax="518">
      <contour>
        <pt x="272" y="518" on="1"/>
        <pt x="341" y="518" on="0"/>
        <pt x="433" y="451" on="0"/>
        <pt x="456" y="400" on="1"/>
        <pt x="482" y="458" on="0"/>
        <pt x="572" y="518" on="0"/>
        <pt x="632" y="518" on="1"/>
        <pt x="661" y="518" on="0"/>
        <pt x="688" y="509" on="1"/>
        <pt x="1079" y="509" on="1"/>
        <pt x="1120" y="509" on="0"/>
        <pt x="1189" y="490" on="0"/>
        <pt x="1239" y="452" on="0"/>
        <pt x="1267" y="395" on="0"/>
        <pt x="1267" y="358" on="1"/>
        <pt x="1267" y="325" on="0"/>
        <pt x="1245" y="267" on="0"/>
        <pt x="1203" y="224" on="0"/>
        <pt x="1142" y="200" on="0"/>
        <pt x="1104" y="200" on="1"/>
        <pt x="1066" y="200" on="0"/>
        <pt x="1006" y="226" on="0"/>
        <pt x="964" y="270" on="0"/>
        <pt x="942" y="330" on="0"/>
        <pt x="942" y="365" on="1"/>
        <pt x="942" y="428" on="1"/>
        <pt x="789" y="428" on="1"/>
        <pt x="805" y="403" on="0"/>
        <pt x="822" y="343" on="0"/>
        <pt x="822" y="309" on="1"/>
        <pt x="822" y="240" on="0"/>
        <pt x="766" y="138" on="0"/>
        <pt x="670" y="71" on="0"/>
        <pt x="539" y="38" on="0"/>
        <pt x="464" y="38" on="1"/>
        <pt x="285" y="38" on="1"/>
        <pt x="262" y="38" on="0"/>
        <pt x="220" y="24" on="0"/>
        <pt x="189" y="-3" on="0"/>
        <pt x="171" y="-40" on="0"/>
        <pt x="171" y="-63" on="1"/>
        <pt x="171" y="-110" on="0"/>
        <pt x="237" y="-165" on="0"/>
        <pt x="284" y="-165" on="1"/>
        <pt x="316" y="-165" on="0"/>
        <pt x="380" y="-140" on="0"/>
        <pt x="443" y="-103" on="0"/>
        <pt x="506" y="-59" on="0"/>
        <pt x="572" y="-22" on="0"/>
        <pt x="642" y="3" on="0"/>
        <pt x="679" y="3" on="1"/>
        <pt x="716" y="3" on="0"/>
        <pt x="772" y="-17" on="0"/>
        <pt x="809" y="-51" on="0"/>
        <pt x="827" y="-96" on="0"/>
        <pt x="827" y="-121" on="1"/>
        <pt x="827" y="-175" on="0"/>
        <pt x="756" y="-249" on="0"/>
        <pt x="682" y="-265" on="1"/>
        <pt x="613" y="-216" on="1"/>
        <pt x="663" y="-203" on="0"/>
        <pt x="723" y="-162" on="0"/>
        <pt x="723" y="-131" on="1"/>
        <pt x="723" y="-110" on="0"/>
        <pt x="693" y="-83" on="0"/>
        <pt x="668" y="-83" on="1"/>
        <pt x="643" y="-83" on="0"/>
        <pt x="587" y="-109" on="0"/>
        <pt x="527" y="-148" on="0"/>
        <pt x="462" y="-193" on="0"/>
        <pt x="393" y="-232" on="0"/>
        <pt x="321" y="-258" on="0"/>
        <pt x="284" y="-258" on="1"/>
        <pt x="236" y="-258" on="0"/>
        <pt x="154" y="-229" on="0"/>
        <pt x="96" y="-178" on="0"/>
        <pt x="63" y="-106" on="0"/>
        <pt x="63" y="-63" on="1"/>
        <pt x="63" y="-19" on="0"/>
        <pt x="96" y="49" on="0"/>
        <pt x="155" y="96" on="0"/>
        <pt x="236" y="120" on="0"/>
        <pt x="285" y="120" on="1"/>
        <pt x="464" y="120" on="1"/>
        <pt x="581" y="120" on="0"/>
        <pt x="713" y="220" on="0"/>
        <pt x="713" y="315" on="1"/>
        <pt x="713" y="371" on="0"/>
        <pt x="667" y="428" on="0"/>
        <pt x="631" y="428" on="1"/>
        <pt x="590" y="428" on="0"/>
        <pt x="538" y="359" on="0"/>
        <pt x="538" y="290" on="1"/>
        <pt x="538" y="208" on="1"/>
        <pt x="436" y="208" on="1"/>
        <pt x="436" y="262" on="1"/>
        <pt x="436" y="319" on="0"/>
        <pt x="388" y="405" on="0"/>
        <pt x="341" y="417" on="1"/>
        <pt x="328" y="425" on="0"/>
        <pt x="296" y="430" on="0"/>
        <pt x="282" y="431" on="1"/>
        <pt x="317" y="406" on="0"/>
        <pt x="357" y="332" on="0"/>
        <pt x="357" y="295" on="1"/>
        <pt x="357" y="247" on="0"/>
        <pt x="291" y="179" on="0"/>
        <pt x="224" y="179" on="1"/>
        <pt x="192" y="179" on="0"/>
        <pt x="134" y="199" on="0"/>
        <pt x="89" y="237" on="0"/>
        <pt x="63" y="294" on="0"/>
        <pt x="63" y="332" on="1"/>
        <pt x="63" y="373" on="0"/>
        <pt x="99" y="442" on="0"/>
        <pt x="158" y="491" on="0"/>
        <pt x="233" y="518" on="0"/>
      </contour>
      <contour>
        <pt x="1036" y="428" on="1"/>
        <pt x="1036" y="354" on="1"/>
        <pt x="1036" y="317" on="0"/>
        <pt x="1069" y="281" on="0"/>
        <pt x="1097" y="281" on="1"/>
        <pt x="1126" y="281" on="0"/>
        <pt x="1163" y="323" on="0"/>
        <pt x="1163" y="358" on="1"/>
        <pt x="1163" y="428" on="0"/>
        <pt x="1079" y="428" on="1"/>
      </contour>
      <contour>
        <pt x="237" y="421" on="1"/>
        <pt x="202" y="407" on="0"/>
        <pt x="163" y="356" on="0"/>
        <pt x="163" y="321" on="1"/>
        <pt x="163" y="289" on="0"/>
        <pt x="198" y="256" on="0"/>
        <pt x="224" y="256" on="1"/>
        <pt x="256" y="256" on="0"/>
        <pt x="290" y="297" on="0"/>
        <pt x="290" y="327" on="1"/>
        <pt x="290" y="354" on="0"/>
        <pt x="263" y="404" on="0"/>
      </contour>
    </TTGlyph>
    <TTGlyph name="juu.tam" xMin="63" yMin="-265" xMax="1564" yMax="672">
      <contour>
        <pt x="1274" y="672" on="1"/>
        <pt x="1334" y="672" on="0"/>
        <pt x="1440" y="627" on="0"/>
        <pt x="1519" y="546" on="0"/>
        <pt x="1564" y="430" on="0"/>
        <pt x="1564" y="360" on="1"/>
        <pt x="1564" y="286" on="0"/>
        <pt x="1522" y="160" on="0"/>
        <pt x="1437" y="67" on="0"/>
        <pt x="1309" y="14" on="0"/>
        <pt x="1223" y="14" on="1"/>
        <pt x="1110" y="14" on="0"/>
        <pt x="932" y="127" on="0"/>
        <pt x="883" y="232" on="1"/>
        <pt x="953" y="282" on="1"/>
        <pt x="997" y="186" on="0"/>
        <pt x="1129" y="108" on="0"/>
        <pt x="1215" y="108" on="1"/>
        <pt x="1275" y="108" on="0"/>
        <pt x="1366" y="145" on="0"/>
        <pt x="1428" y="211" on="0"/>
        <pt x="1460" y="304" on="0"/>
        <pt x="1460" y="360" on="1"/>
        <pt x="1460" y="411" on="0"/>
        <pt x="1431" y="492" on="0"/>
        <pt x="1380" y="548" on="0"/>
        <pt x="1313" y="578" on="0"/>
        <pt x="1274" y="578" on="1"/>
        <pt x="1231" y="578" on="0"/>
        <pt x="1160" y="541" on="0"/>
        <pt x="1137" y="509" on="1"/>
        <pt x="1186" y="509" on="1"/>
        <pt x="1267" y="509" on="0"/>
        <pt x="1368" y="433" on="0"/>
        <pt x="1368" y="358" on="1"/>
        <pt x="1368" y="325" on="0"/>
        <pt x="1346" y="267" on="0"/>
        <pt x="1304" y="224" on="0"/>
        <pt x="1244" y="200" on="0"/>
        <pt x="1206" y="200" on="1"/>
        <pt x="1168" y="200" on="0"/>
        <pt x="1108" y="226" on="0"/>
        <pt x="1066" y="270" on="0"/>
        <pt x="1044" y="330" on="0"/>
        <pt x="1044" y="365" on="1"/>
        <pt x="1044" y="416" on="1"/>
        <pt x="796" y="416" on="1"/>
        <pt x="822" y="369" on="0"/>
        <pt x="822" y="309" on="1"/>
        <pt x="822" y="240" on="0"/>
        <pt x="766" y="138" on="0"/>
        <pt x="670" y="71" on="0"/>
        <pt x="539" y="38" on="0"/>
        <pt x="464" y="38" on="1"/>
        <pt x="285" y="38" on="1"/>
        <pt x="262" y="38" on="0"/>
        <pt x="220" y="24" on="0"/>
        <pt x="189" y="-3" on="0"/>
        <pt x="171" y="-40" on="0"/>
        <pt x="171" y="-63" on="1"/>
        <pt x="171" y="-110" on="0"/>
        <pt x="237" y="-165" on="0"/>
        <pt x="284" y="-165" on="1"/>
        <pt x="316" y="-165" on="0"/>
        <pt x="380" y="-140" on="0"/>
        <pt x="443" y="-103" on="0"/>
        <pt x="506" y="-59" on="0"/>
        <pt x="572" y="-22" on="0"/>
        <pt x="642" y="3" on="0"/>
        <pt x="679" y="3" on="1"/>
        <pt x="716" y="3" on="0"/>
        <pt x="772" y="-17" on="0"/>
        <pt x="809" y="-51" on="0"/>
        <pt x="827" y="-96" on="0"/>
        <pt x="827" y="-121" on="1"/>
        <pt x="827" y="-175" on="0"/>
        <pt x="756" y="-249" on="0"/>
        <pt x="682" y="-265" on="1"/>
        <pt x="613" y="-216" on="1"/>
        <pt x="663" y="-203" on="0"/>
        <pt x="723" y="-162" on="0"/>
        <pt x="723" y="-131" on="1"/>
        <pt x="723" y="-110" on="0"/>
        <pt x="693" y="-83" on="0"/>
        <pt x="668" y="-83" on="1"/>
        <pt x="643" y="-83" on="0"/>
        <pt x="587" y="-109" on="0"/>
        <pt x="527" y="-148" on="0"/>
        <pt x="462" y="-193" on="0"/>
        <pt x="393" y="-232" on="0"/>
        <pt x="321" y="-258" on="0"/>
        <pt x="284" y="-258" on="1"/>
        <pt x="236" y="-258" on="0"/>
        <pt x="154" y="-229" on="0"/>
        <pt x="96" y="-178" on="0"/>
        <pt x="63" y="-106" on="0"/>
        <pt x="63" y="-63" on="1"/>
        <pt x="63" y="-19" on="0"/>
        <pt x="96" y="49" on="0"/>
        <pt x="155" y="96" on="0"/>
        <pt x="236" y="120" on="0"/>
        <pt x="285" y="120" on="1"/>
        <pt x="464" y="120" on="1"/>
        <pt x="581" y="120" on="0"/>
        <pt x="713" y="220" on="0"/>
        <pt x="713" y="315" on="1"/>
        <pt x="713" y="371" on="0"/>
        <pt x="667" y="428" on="0"/>
        <pt x="631" y="428" on="1"/>
        <pt x="590" y="428" on="0"/>
        <pt x="538" y="359" on="0"/>
        <pt x="538" y="290" on="1"/>
        <pt x="538" y="208" on="1"/>
        <pt x="436" y="208" on="1"/>
        <pt x="436" y="262" on="1"/>
        <pt x="436" y="319" on="0"/>
        <pt x="388" y="405" on="0"/>
        <pt x="341" y="417" on="1"/>
        <pt x="328" y="425" on="0"/>
        <pt x="296" y="430" on="0"/>
        <pt x="282" y="431" on="1"/>
        <pt x="317" y="406" on="0"/>
        <pt x="357" y="332" on="0"/>
        <pt x="357" y="295" on="1"/>
        <pt x="357" y="247" on="0"/>
        <pt x="291" y="179" on="0"/>
        <pt x="224" y="179" on="1"/>
        <pt x="192" y="179" on="0"/>
        <pt x="134" y="199" on="0"/>
        <pt x="89" y="237" on="0"/>
        <pt x="63" y="294" on="0"/>
        <pt x="63" y="332" on="1"/>
        <pt x="63" y="373" on="0"/>
        <pt x="99" y="442" on="0"/>
        <pt x="158" y="491" on="0"/>
        <pt x="233" y="518" on="0"/>
        <pt x="272" y="518" on="1"/>
        <pt x="341" y="518" on="0"/>
        <pt x="433" y="451" on="0"/>
        <pt x="456" y="400" on="1"/>
        <pt x="482" y="458" on="0"/>
        <pt x="572" y="518" on="0"/>
        <pt x="632" y="518" on="1"/>
        <pt x="661" y="518" on="0"/>
        <pt x="688" y="509" on="1"/>
        <pt x="1049" y="509" on="1"/>
        <pt x="1069" y="586" on="0"/>
        <pt x="1190" y="672" on="0"/>
      </contour>
      <contour>
        <pt x="237" y="421" on="1"/>
        <pt x="202" y="407" on="0"/>
        <pt x="163" y="356" on="0"/>
        <pt x="163" y="321" on="1"/>
        <pt x="163" y="289" on="0"/>
        <pt x="198" y="256" on="0"/>
        <pt x="224" y="256" on="1"/>
        <pt x="256" y="256" on="0"/>
        <pt x="290" y="297" on="0"/>
        <pt x="290" y="327" on="1"/>
        <pt x="290" y="354" on="0"/>
        <pt x="263" y="404" on="0"/>
      </contour>
      <contour>
        <pt x="1138" y="354" on="1"/>
        <pt x="1138" y="317" on="0"/>
        <pt x="1171" y="281" on="0"/>
        <pt x="1199" y="281" on="1"/>
        <pt x="1228" y="281" on="0"/>
        <pt x="1264" y="323" on="0"/>
        <pt x="1264" y="357" on="1"/>
        <pt x="1264" y="421" on="0"/>
        <pt x="1186" y="421" on="1"/>
        <pt x="1138" y="421" on="1"/>
      </contour>
    </TTGlyph>
    <TTGlyph name="jvir.tam" xMin="63" yMin="-265" xMax="827" yMax="743">
      <contour>
        <pt x="272" y="518" on="1"/>
        <pt x="341" y="518" on="0"/>
        <pt x="433" y="451" on="0"/>
        <pt x="456" y="400" on="1"/>
        <pt x="482" y="458" on="0"/>
        <pt x="572" y="518" on="0"/>
        <pt x="632" y="518" on="1"/>
        <pt x="671" y="518" on="0"/>
        <pt x="740" y="487" on="0"/>
        <pt x="792" y="431" on="0"/>
        <pt x="822" y="355" on="0"/>
        <pt x="822" y="309" on="1"/>
        <pt x="822" y="240" on="0"/>
        <pt x="766" y="138" on="0"/>
        <pt x="670" y="71" on="0"/>
        <pt x="539" y="38" on="0"/>
        <pt x="464" y="38" on="1"/>
        <pt x="285" y="38" on="1"/>
        <pt x="262" y="38" on="0"/>
        <pt x="220" y="24" on="0"/>
        <pt x="189" y="-3" on="0"/>
        <pt x="171" y="-40" on="0"/>
        <pt x="171" y="-63" on="1"/>
        <pt x="171" y="-110" on="0"/>
        <pt x="237" y="-165" on="0"/>
        <pt x="284" y="-165" on="1"/>
        <pt x="316" y="-165" on="0"/>
        <pt x="380" y="-140" on="0"/>
        <pt x="443" y="-103" on="0"/>
        <pt x="506" y="-59" on="0"/>
        <pt x="572" y="-22" on="0"/>
        <pt x="642" y="3" on="0"/>
        <pt x="679" y="3" on="1"/>
        <pt x="716" y="3" on="0"/>
        <pt x="772" y="-17" on="0"/>
        <pt x="809" y="-51" on="0"/>
        <pt x="827" y="-96" on="0"/>
        <pt x="827" y="-121" on="1"/>
        <pt x="827" y="-175" on="0"/>
        <pt x="756" y="-249" on="0"/>
        <pt x="682" y="-265" on="1"/>
        <pt x="613" y="-216" on="1"/>
        <pt x="663" y="-203" on="0"/>
        <pt x="723" y="-162" on="0"/>
        <pt x="723" y="-131" on="1"/>
        <pt x="723" y="-110" on="0"/>
        <pt x="693" y="-83" on="0"/>
        <pt x="668" y="-83" on="1"/>
        <pt x="643" y="-83" on="0"/>
        <pt x="587" y="-109" on="0"/>
        <pt x="527" y="-148" on="0"/>
        <pt x="462" y="-193" on="0"/>
        <pt x="393" y="-232" on="0"/>
        <pt x="321" y="-258" on="0"/>
        <pt x="284" y="-258" on="1"/>
        <pt x="236" y="-258" on="0"/>
        <pt x="154" y="-229" on="0"/>
        <pt x="96" y="-178" on="0"/>
        <pt x="63" y="-106" on="0"/>
        <pt x="63" y="-63" on="1"/>
        <pt x="63" y="-19" on="0"/>
        <pt x="96" y="49" on="0"/>
        <pt x="155" y="96" on="0"/>
        <pt x="236" y="120" on="0"/>
        <pt x="285" y="120" on="1"/>
        <pt x="464" y="120" on="1"/>
        <pt x="581" y="120" on="0"/>
        <pt x="713" y="220" on="0"/>
        <pt x="713" y="315" on="1"/>
        <pt x="713" y="371" on="0"/>
        <pt x="667" y="428" on="0"/>
        <pt x="631" y="428" on="1"/>
        <pt x="590" y="428" on="0"/>
        <pt x="538" y="359" on="0"/>
        <pt x="538" y="290" on="1"/>
        <pt x="538" y="208" on="1"/>
        <pt x="436" y="208" on="1"/>
        <pt x="436" y="262" on="1"/>
        <pt x="436" y="319" on="0"/>
        <pt x="388" y="405" on="0"/>
        <pt x="341" y="417" on="1"/>
        <pt x="328" y="425" on="0"/>
        <pt x="296" y="430" on="0"/>
        <pt x="282" y="431" on="1"/>
        <pt x="317" y="406" on="0"/>
        <pt x="357" y="332" on="0"/>
        <pt x="357" y="295" on="1"/>
        <pt x="357" y="247" on="0"/>
        <pt x="291" y="179" on="0"/>
        <pt x="224" y="179" on="1"/>
        <pt x="192" y="179" on="0"/>
        <pt x="134" y="199" on="0"/>
        <pt x="89" y="237" on="0"/>
        <pt x="63" y="294" on="0"/>
        <pt x="63" y="332" on="1"/>
        <pt x="63" y="373" on="0"/>
        <pt x="99" y="442" on="0"/>
        <pt x="158" y="491" on="0"/>
        <pt x="233" y="518" on="0"/>
      </contour>
      <contour>
        <pt x="237" y="421" on="1"/>
        <pt x="202" y="407" on="0"/>
        <pt x="163" y="356" on="0"/>
        <pt x="163" y="321" on="1"/>
        <pt x="163" y="289" on="0"/>
        <pt x="198" y="256" on="0"/>
        <pt x="224" y="256" on="1"/>
        <pt x="256" y="256" on="0"/>
        <pt x="290" y="297" on="0"/>
        <pt x="290" y="327" on="1"/>
        <pt x="290" y="354" on="0"/>
        <pt x="263" y="404" on="0"/>
      </contour>
      <contour>
        <pt x="405" y="677" on="1"/>
        <pt x="405" y="706" on="0"/>
        <pt x="442" y="743" on="0"/>
        <pt x="468" y="743" on="1"/>
        <pt x="496" y="743" on="0"/>
        <pt x="534" y="706" on="0"/>
        <pt x="534" y="677" on="1"/>
        <pt x="534" y="651" on="0"/>
        <pt x="496" y="614" on="0"/>
        <pt x="468" y="614" on="1"/>
        <pt x="442" y="614" on="0"/>
        <pt x="405" y="651" on="0"/>
      </contour>
    </TTGlyph>
    <TTGlyph name="ka.tam" xMin="41" yMin="-9" xMax="746" yMax="509">
      <contour>
        <pt x="258" y="285" on="1"/>
        <pt x="407" y="285" on="1"/>
        <pt x="407" y="416" on="1"/>
        <pt x="258" y="416" on="1"/>
      </contour>
      <contour>
        <pt x="205" y="219" on="1"/>
        <pt x="149" y="219" on="0"/>
        <pt x="149" y="173" on="1"/>
        <pt x="149" y="133" on="0"/>
        <pt x="235" y="77" on="0"/>
        <pt x="306" y="77" on="1"/>
        <pt x="407" y="77" on="0"/>
        <pt x="407" y="178" on="1"/>
        <pt x="407" y="219" on="1"/>
      </contour>
      <contour>
        <pt x="647" y="509" on="1"/>
        <pt x="647" y="416" on="1"/>
        <pt x="509" y="416" on="1"/>
        <pt x="509" y="285" on="1"/>
        <pt x="576" y="285" on="1"/>
        <pt x="654" y="285" on="0"/>
        <pt x="746" y="214" on="0"/>
        <pt x="746" y="152" on="1"/>
        <pt x="746" y="89" on="0"/>
        <pt x="674" y="9" on="0"/>
        <pt x="618" y="-9" on="1"/>
        <pt x="555" y="68" on="1"/>
        <pt x="595" y="78" on="0"/>
        <pt x="639" y="123" on="0"/>
        <pt x="639" y="155" on="1"/>
        <pt x="639" y="184" on="0"/>
        <pt x="600" y="219" on="0"/>
        <pt x="563" y="219" on="1"/>
        <pt x="509" y="219" on="1"/>
        <pt x="509" y="177" on="1"/>
        <pt x="509" y="81" on="0"/>
        <pt x="403" y="-9" on="0"/>
        <pt x="316" y="-9" on="1"/>
        <pt x="253" y="-9" on="0"/>
        <pt x="151" y="25" on="0"/>
        <pt x="79" y="80" on="0"/>
        <pt x="41" y="150" on="0"/>
        <pt x="41" y="185" on="1"/>
        <pt x="41" y="233" on="0"/>
        <pt x="102" y="285" on="0"/>
        <pt x="156" y="285" on="1"/>
        <pt x="162" y="285" on="1"/>
        <pt x="162" y="509" on="1"/>
      </contour>
    </TTGlyph>
    <TTGlyph name="kansv.tam" xMin="41" yMin="-9" xMax="746" yMax="831">
      <contour>
        <pt x="258" y="285" on="1"/>
        <pt x="407" y="285" on="1"/>
        <pt x="407" y="416" on="1"/>
        <pt x="258" y="416" on="1"/>
      </contour>
      <contour>
        <pt x="205" y="219" on="1"/>
        <pt x="149" y="219" on="0"/>
        <pt x="149" y="173" on="1"/>
        <pt x="149" y="133" on="0"/>
        <pt x="235" y="77" on="0"/>
        <pt x="306" y="77" on="1"/>
        <pt x="407" y="77" on="0"/>
        <pt x="407" y="178" on="1"/>
        <pt x="407" y="219" on="1"/>
      </contour>
      <contour>
        <pt x="647" y="509" on="1"/>
        <pt x="647" y="416" on="1"/>
        <pt x="509" y="416" on="1"/>
        <pt x="509" y="285" on="1"/>
        <pt x="576" y="285" on="1"/>
        <pt x="654" y="285" on="0"/>
        <pt x="746" y="214" on="0"/>
        <pt x="746" y="152" on="1"/>
        <pt x="746" y="89" on="0"/>
        <pt x="674" y="9" on="0"/>
        <pt x="618" y="-9" on="1"/>
        <pt x="555" y="68" on="1"/>
        <pt x="595" y="78" on="0"/>
        <pt x="639" y="123" on="0"/>
        <pt x="639" y="155" on="1"/>
        <pt x="639" y="184" on="0"/>
        <pt x="600" y="219" on="0"/>
        <pt x="563" y="219" on="1"/>
        <pt x="509" y="219" on="1"/>
        <pt x="509" y="177" on="1"/>
        <pt x="509" y="81" on="0"/>
        <pt x="403" y="-9" on="0"/>
        <pt x="316" y="-9" on="1"/>
        <pt x="253" y="-9" on="0"/>
        <pt x="151" y="25" on="0"/>
        <pt x="79" y="80" on="0"/>
        <pt x="41" y="150" on="0"/>
        <pt x="41" y="185" on="1"/>
        <pt x="41" y="233" on="0"/>
        <pt x="102" y="285" on="0"/>
        <pt x="156" y="285" on="1"/>
        <pt x="162" y="285" on="1"/>
        <pt x="162" y="509" on="1"/>
      </contour>
      <contour>
        <pt x="389" y="831" on="1"/>
        <pt x="449" y="831" on="0"/>
        <pt x="525" y="767" on="0"/>
        <pt x="525" y="710" on="1"/>
        <pt x="525" y="653" on="0"/>
        <pt x="449" y="590" on="0"/>
        <pt x="389" y="590" on="1"/>
        <pt x="329" y="590" on="0"/>
        <pt x="253" y="653" on="0"/>
        <pt x="253" y="710" on="1"/>
        <pt x="253" y="767" on="0"/>
        <pt x="329" y="831" on="0"/>
      </contour>
      <contour>
        <pt x="389" y="760" on="1"/>
        <pt x="368" y="760" on="0"/>
        <pt x="345" y="733" on="0"/>
        <pt x="345" y="710" on="1"/>
        <pt x="345" y="687" on="0"/>
        <pt x="368" y="662" on="0"/>
        <pt x="389" y="662" on="1"/>
        <pt x="411" y="662" on="0"/>
        <pt x="434" y="687" on="0"/>
        <pt x="434" y="710" on="1"/>
        <pt x="434" y="733" on="0"/>
        <pt x="411" y="760" on="0"/>
      </contour>
    </TTGlyph>
    <TTGlyph name="ki.tam" xMin="41" yMin="-9" xMax="950" yMax="790">
      <contour>
        <pt x="634" y="790" on="1"/>
        <pt x="713" y="790" on="0"/>
        <pt x="831" y="739" on="0"/>
        <pt x="910" y="643" on="0"/>
        <pt x="950" y="505" on="0"/>
        <pt x="950" y="417" on="1"/>
        <pt x="950" y="0" on="1"/>
        <pt x="848" y="0" on="1"/>
        <pt x="848" y="417" on="1"/>
        <pt x="848" y="491" on="0"/>
        <pt x="820" y="596" on="0"/>
        <pt x="768" y="662" on="0"/>
        <pt x="691" y="692" on="0"/>
        <pt x="642" y="692" on="1"/>
        <pt x="607" y="692" on="0"/>
        <pt x="549" y="673" on="0"/>
        <pt x="505" y="640" on="0"/>
        <pt x="481" y="593" on="0"/>
        <pt x="481" y="565" on="1"/>
        <pt x="481" y="534" on="0"/>
        <pt x="493" y="509" on="1"/>
        <pt x="647" y="509" on="1"/>
        <pt x="647" y="416" on="1"/>
        <pt x="509" y="416" on="1"/>
        <pt x="509" y="285" on="1"/>
        <pt x="576" y="285" on="1"/>
        <pt x="654" y="285" on="0"/>
        <pt x="746" y="214" on="0"/>
        <pt x="746" y="152" on="1"/>
        <pt x="746" y="89" on="0"/>
        <pt x="674" y="9" on="0"/>
        <pt x="618" y="-9" on="1"/>
        <pt x="555" y="68" on="1"/>
        <pt x="595" y="78" on="0"/>
        <pt x="639" y="123" on="0"/>
        <pt x="639" y="155" on="1"/>
        <pt x="639" y="184" on="0"/>
        <pt x="600" y="219" on="0"/>
        <pt x="563" y="219" on="1"/>
        <pt x="509" y="219" on="1"/>
        <pt x="509" y="177" on="1"/>
        <pt x="509" y="81" on="0"/>
        <pt x="403" y="-9" on="0"/>
        <pt x="316" y="-9" on="1"/>
        <pt x="253" y="-9" on="0"/>
        <pt x="151" y="25" on="0"/>
        <pt x="79" y="80" on="0"/>
        <pt x="41" y="150" on="0"/>
        <pt x="41" y="185" on="1"/>
        <pt x="41" y="233" on="0"/>
        <pt x="102" y="285" on="0"/>
        <pt x="156" y="285" on="1"/>
        <pt x="162" y="285" on="1"/>
        <pt x="162" y="509" on="1"/>
        <pt x="434" y="509" on="1"/>
        <pt x="408" y="527" on="0"/>
        <pt x="378" y="583" on="0"/>
        <pt x="378" y="615" on="1"/>
        <pt x="378" y="652" on="0"/>
        <pt x="415" y="717" on="0"/>
        <pt x="483" y="763" on="0"/>
        <pt x="577" y="790" on="0"/>
      </contour>
      <contour>
        <pt x="205" y="219" on="1"/>
        <pt x="149" y="219" on="0"/>
        <pt x="149" y="173" on="1"/>
        <pt x="149" y="133" on="0"/>
        <pt x="235" y="77" on="0"/>
        <pt x="306" y="77" on="1"/>
        <pt x="407" y="77" on="0"/>
        <pt x="407" y="178" on="1"/>
        <pt x="407" y="219" on="1"/>
      </contour>
      <contour>
        <pt x="258" y="285" on="1"/>
        <pt x="407" y="285" on="1"/>
        <pt x="407" y="416" on="1"/>
        <pt x="258" y="416" on="1"/>
      </contour>
    </TTGlyph>
</ttFont>
